<?xml version="1.0" encoding="UTF-8" standalone="no"?>
<!-- Created with Inkscape (http://www.inkscape.org/) -->

<svg
   xmlns:dc="http://purl.org/dc/elements/1.1/"
   xmlns:cc="http://creativecommons.org/ns#"
   xmlns:rdf="http://www.w3.org/1999/02/22-rdf-syntax-ns#"
   xmlns:svg="http://www.w3.org/2000/svg"
   xmlns="http://www.w3.org/2000/svg"
   xmlns:sodipodi="http://sodipodi.sourceforge.net/DTD/sodipodi-0.dtd"
   xmlns:inkscape="http://www.inkscape.org/namespaces/inkscape"
   version="1.1"
   id="svg2"
   width="399.20001"
   height="248"
   viewBox="0 0 399.20001 248"
   sodipodi:docname="logo_prusa.svg"
   inkscape:version="0.92.2 2405546, 2018-03-11">
  <metadata
     id="metadata8">
    <rdf:RDF>
      <cc:Work
         rdf:about="">
        <dc:format>image/svg+xml</dc:format>
        <dc:type
           rdf:resource="http://purl.org/dc/dcmitype/StillImage" />
        <dc:title></dc:title>
      </cc:Work>
    </rdf:RDF>
  </metadata>
  <defs
     id="defs6" />
  <sodipodi:namedview
     pagecolor="#ffffff"
     bordercolor="#666666"
     borderopacity="1"
     objecttolerance="10"
     gridtolerance="10"
     guidetolerance="10"
     inkscape:pageopacity="0"
     inkscape:pageshadow="2"
     inkscape:window-width="1920"
     inkscape:window-height="997"
     id="namedview4"
     showgrid="false"
     inkscape:zoom="1.5430861"
     inkscape:cx="94.71564"
     inkscape:cy="31.040352"
     inkscape:window-x="0"
     inkscape:window-y="31"
     inkscape:window-maximized="1"
     inkscape:current-layer="svg2" />
  <path
     style="fill:#000000;stroke-width:1"
     d="m 36.639999,233.18033 v -1.6735 l 0.92,-0.0114 c 1.198186,-0.0149 1.727573,-0.23372 2.119461,-0.87621 0.644392,-1.05647 0.659417,-0.99578 -2.36825,-9.56399 l -2.855157,-8.08 2.239711,-0.0446 c 1.282673,-0.0255 2.279134,0.0199 2.331973,0.10626 0.05074,0.083 0.812262,2.60422 1.692262,5.60283 0.88,2.99859 1.636,5.45274 1.68,5.45365 0.044,0.002 0.687384,-2.1763 1.429742,-4.83826 0.742359,-2.66195 1.449775,-5.18192 1.572036,-5.59992 l 0.222293,-0.76 h 2.147964 c 1.181381,0 2.147965,0.0516 2.147965,0.11461 0,0.27307 -5.858232,16.89765 -6.394664,18.14688 -1.393507,3.24514 -1.761198,3.51597 -4.925336,3.62784 l -1.96,0.0693 v -1.67351 z m 31.377562,-3.96947 c -3.438181,-0.35373 -5.523574,-1.62613 -6.816606,-4.15911 -0.943218,-1.84771 -1.519255,-4.6199 -1.520312,-7.31654 l -6.44e-4,-1.64 H 62.88 h 3.2 v 1.00419 c 0,1.38875 0.281612,3.56458 0.579936,4.48077 0.368865,1.13285 0.897462,1.67046 1.940637,1.97371 1.85015,0.53786 3.433191,-0.044 4.163081,-1.53019 l 0.43635,-0.88848 0.0464,-12.6 0.0464,-12.6 h 3.35898 3.35899 l -0.0489,13 c -0.0542,14.38758 -0.008,13.72306 -1.11563,15.93387 -1.65154,3.29544 -5.60226,4.87951 -10.828589,4.34178 z m 29.999518,-0.0924 c -3.033785,-0.5479 -4.991735,-1.56819 -7.154065,-3.728 -3.12955,-3.1259 -4.51332,-6.66488 -4.72931,-12.0952 -0.25178,-6.32997 1.23508,-10.97982 4.58078,-14.32552 3.13007,-3.13006 7.333425,-4.44266 12.793206,-3.99493 2.44053,0.20013 4.08041,0.62912 5.93231,1.55187 1.29335,0.64444 1.7611,0.9968 3.13682,2.36298 2.29905,2.28309 3.47248,4.42323 4.24851,7.74853 0.47413,2.03166 0.59691,7.36825 0.2219,9.64523 -0.29902,1.81563 -0.96568,3.98491 -1.62564,5.28978 -1.16074,2.29499 -3.32611,4.69776 -5.27042,5.84822 -1.35649,0.80264 -3.56353,1.55312 -5.24274,1.78272 -1.72051,0.23523 -5.365311,0.18992 -6.891351,-0.0857 z m 5.808031,-5.74957 c 2.95466,-0.69646 5.27719,-3.16678 6.16153,-6.55363 0.47656,-1.82514 0.65401,-4.40339 0.44419,-6.45366 -0.34955,-3.41549 -1.12879,-5.39855 -2.83001,-7.20192 -1.62179,-1.71919 -3.33564,-2.41912 -5.93178,-2.42252 -2.462011,-0.003 -4.174351,0.69584 -5.829031,2.37975 -1.690135,1.71995 -2.554795,3.89486 -2.892865,7.27651 -0.44871,4.48837 0.6758,8.60288 2.983375,10.91597 1.97886,1.98358 4.939771,2.75601 7.894591,2.0595 z m 28.06058,5.84141 c -4.78201,-0.60205 -8.26047,-2.71637 -9.88799,-6.01022 -0.55181,-1.11677 -1.0377,-3.06413 -1.0377,-4.1589 v -0.54597 h 3.2622 3.26219 l 0.11009,0.58683 c 0.40796,2.17463 1.65273,3.62186 3.65729,4.25215 0.98821,0.3107 1.48271,0.35944 3.54823,0.34961 2.66073,-0.0126 3.83489,-0.27345 5.06317,-1.12464 1.37694,-0.95422 1.94094,-2.89078 1.25473,-4.30829 -0.68508,-1.4152 -2.07195,-1.9924 -7.87811,-3.27873 -5.77158,-1.27871 -7.75626,-2.04231 -9.41134,-3.62098 -0.97697,-0.93187 -1.75384,-2.29577 -2.08244,-3.65605 -0.3015,-1.24806 -0.25866,-4.14387 0.0781,-5.2799 0.91094,-3.07291 3.23971,-5.50482 6.28572,-6.56413 1.65453,-0.57537 3.70387,-0.87587 5.97345,-0.87587 3.4163,0 6.00745,0.6892 8.35008,2.22096 2.66279,1.74112 4.15959,4.26786 4.4916,7.58222 l 0.0764,0.76319 -3.28871,-0.0432 -3.28872,-0.0432 -0.1833,-0.8 c -0.24161,-1.0545 -0.56391,-1.63419 -1.30749,-2.35163 -2.18496,-2.10818 -7.52635,-2.28869 -9.81274,-0.33163 -1.71914,1.47152 -1.68854,4.05555 0.0602,5.08035 1.04446,0.61209 1.76105,0.82576 7.01687,2.09213 5.33898,1.28641 6.8691,1.7964 8.40156,2.80019 2.20716,1.44573 3.39681,3.88073 3.39582,6.95059 -0.002,5.12619 -3.37705,8.89229 -9.03486,10.08061 -1.50459,0.31601 -5.40081,0.44513 -7.07431,0.23443 z m 165.23432,0.0558 c -4.64607,-0.48062 -7.85983,-2.43276 -9.43453,-5.73086 -1.32472,-2.77448 -1.43618,-4.10157 -1.44134,-17.16 l -0.004,-10.44 h 3.52 3.52 l 0.003,11.08 c 0.003,12.12541 0.0273,12.49363 0.92939,14.09992 0.93088,1.65757 2.51205,2.39643 5.14782,2.40554 2.42215,0.008 3.84461,-0.55864 4.91188,-1.95792 1.21371,-1.59127 1.32544,-2.88362 1.32691,-15.34754 l 0.002,-10.28 h 3.44856 3.44857 l -0.059,11.72 c -0.0565,11.21574 -0.0735,11.78347 -0.3951,13.1952 -0.51324,2.25286 -1.29698,3.73165 -2.7465,5.18214 -1.86101,1.86226 -4.01504,2.79964 -7.29651,3.17522 -1.36819,0.15659 -3.66458,0.18403 -4.88,0.0583 z m 31.20027,-0.0603 c -6.3539,-0.7933 -10.34342,-4.29914 -10.81506,-9.50386 l -0.10936,-1.20673 h 3.28428 3.28425 l 0.1101,0.58683 c 0.45843,2.44363 1.72641,3.75523 4.24643,4.3925 1.14221,0.28883 1.65253,0.32824 3.35317,0.25891 3.98374,-0.16238 5.94214,-1.38112 6.19766,-3.85688 0.0729,-0.70619 0.0204,-1.01794 -0.27384,-1.6257 -0.68459,-1.41417 -2.05517,-1.98432 -7.8764,-3.27646 -5.79718,-1.28682 -7.75736,-2.04398 -9.43557,-3.64472 -1.15729,-1.10387 -1.82003,-2.40334 -2.14513,-4.20618 -0.60293,-3.3434 0.35016,-6.60164 2.5819,-8.82636 1.70549,-1.70013 3.52432,-2.57647 6.38163,-3.07474 1.84612,-0.32194 5.12231,-0.31886 6.83799,0.006 3.79041,0.71861 6.9664,2.86397 8.37209,5.65531 0.63389,1.25874 0.86877,2.07127 1.02711,3.55312 l 0.11731,1.09797 h -3.30766 -3.30768 l -0.0988,-0.72051 c -0.37528,-2.73802 -3.45468,-4.4993 -7.30473,-4.17799 -2.42565,0.20245 -4.16235,1.13122 -4.82149,2.5785 -0.64568,1.4177 -0.1767,3.12283 1.05789,3.84635 1.02961,0.60339 2.12347,0.92845 7.2127,2.14333 6.22525,1.48606 7.67368,2.05666 9.33943,3.67914 2.41486,2.35216 2.97611,6.84651 1.29014,10.33118 -1.43816,2.9725 -4.20814,4.94766 -8.07867,5.76061 -1.51847,0.31893 -5.40245,0.44438 -7.11973,0.22997 z M 24.519626,228.6034 c -0.876367,-0.31209 -1.266968,-0.58414 -1.993125,-1.38819 l -0.433498,-0.48 -0.0065,0.92 -0.0065,0.92 h -2 -2 v -10.56 -10.56 h 2 2 v 3.7088 3.7088 l 0.542592,-0.6339 c 0.298426,-0.34864 0.928426,-0.8476 1.4,-1.1088 0.804848,-0.4458 0.965296,-0.4749 2.617408,-0.4749 1.571425,0 1.85729,0.0456 2.668025,0.42566 1.74362,0.81738 2.931286,2.31824 3.588131,4.53434 0.346742,1.16986 0.390968,4.17176 0.0825,5.6 -0.504776,2.33718 -1.949269,4.37349 -3.663402,5.1643 -1.232107,0.56842 -3.527234,0.67557 -4.795627,0.22389 z m 2.245512,-3.28848 c 0.692096,-0.29613 1.300883,-0.97264 1.745546,-1.93971 0.31495,-0.68498 0.366836,-1.05307 0.360851,-2.56 -0.0081,-2.03501 -0.357074,-3.09563 -1.287367,-3.91243 -1.650337,-1.44903 -4.267701,-0.82659 -5.12484,1.21873 -0.729936,1.7418 -0.590867,4.33205 0.313075,5.8312 0.843359,1.39868 2.548149,1.98031 3.992735,1.36221 z M 152.96,212.25521 v -16.32 h 12 12 v 2.88 2.88 h -8.64 -8.64 v 3.44 3.44 h 7.92 7.92 v 2.88 2.88 h -7.92 -7.92 v 4.16 4.16 h 9.04 9.04 v 2.96 2.96 h -12.4 -12.4 z m 30.08,0 v -16.32 h 11.6 11.60001 v 2.88 2.88 h -8.24295 -8.24296 l 0.043,3.72 0.0429,3.72 7.24,0.0416 7.24001,0.0416 v 2.79674 2.79674 l -7.24001,0.0416 -7.24,0.0416 -0.0417,6.84 -0.0417,6.84 H 186.39829 183.04 Z m 40.48001,0 v -16.32 h 7.92675 c 8.95334,0 9.46273,0.049 11.67325,1.12312 1.53963,0.74813 2.56001,1.60221 3.3674,2.81859 1.27752,1.92467 1.79912,4.71379 1.50607,8.05336 -0.35042,3.99322 -1.74143,6.2665 -4.69775,7.67743 -1.89494,0.90436 -2.60704,1.00296 -8.01572,1.10964 l -4.96,0.0979 -0.042,5.88 -0.042,5.88 h -3.35803 -3.35803 z m 14.7811,-1.38995 c 1.30723,-0.36679 2.36301,-1.37443 2.72326,-2.59909 0.50168,-1.70547 0.23538,-4.09581 -0.57044,-5.1204 -0.48492,-0.61654 -1.32026,-1.11022 -2.31863,-1.37027 -0.68393,-0.17815 -1.82424,-0.24029 -4.40891,-0.24029 h -3.48638 v 4.8 4.8 h 3.5495 c 2.84333,0 3.74091,-0.0537 4.5116,-0.26995 z m 15.4589,1.38995 v -16.32 l 8.76,0.006 c 9.61185,0.006 10.43588,0.068 12.25622,0.91981 1.99539,0.93376 3.87746,3.17457 4.5981,5.47461 0.39013,1.24513 0.4639,3.63896 0.15286,4.96 -0.56746,2.41008 -1.9361,4.31113 -3.73864,5.19304 l -0.92739,0.45372 0.84822,0.46386 c 1.03087,0.56373 1.63731,1.12272 2.13658,1.96938 0.73144,1.24036 0.89696,2.29843 1.01366,6.48 0.10195,3.65212 0.13479,3.97212 0.4805,4.6827 0.20408,0.4195 0.50805,0.83603 0.67547,0.92563 0.19477,0.10424 0.30442,0.33482 0.30442,0.64019 v 0.47727 l -3.79621,-0.0429 -3.79623,-0.0429 -0.29272,-1.2 c -0.2074,-0.85029 -0.3319,-2.24912 -0.42716,-4.8 -0.15461,-4.13951 -0.32864,-4.96672 -1.20716,-5.73808 -0.9847,-0.86458 -1.74355,-0.98192 -6.34956,-0.98192 h -4.13096 v 6.4 6.4 h -3.28 -3.28 v -16.32 z m 16.0727,-2.16126 c 1.34952,-0.28588 2.09091,-0.82552 2.6473,-1.92692 0.77001,-1.5243 0.43385,-4.28875 -0.66356,-5.45689 -0.18036,-0.19199 -0.69884,-0.51679 -1.15219,-0.72178 -0.80325,-0.3632 -0.94459,-0.3727 -5.54425,-0.37293 h -4.72 l -0.0428,4.15738 c -0.0235,2.28654 -0.008,4.24854 0.035,4.36 0.11901,0.31013 7.94528,0.2781 9.4405,-0.0386 z m 77.20853,18.28432 c 0,-0.11168 2.5861,-7.43906 5.74536,-16.28306 l 5.74411,-16.08 3.93466,-0.0428 c 2.16405,-0.0235 3.93464,-0.0144 3.93464,0.0202 0,0.0346 2.556,7.28689 5.68,16.11609 3.124,8.82922 5.68,16.14612 5.68,16.25981 0,0.16288 -0.77371,0.20669 -3.65054,0.20669 h -3.65055 l -1.07689,-3.36192 -1.07688,-3.36192 -6.02791,0.0419 -6.02789,0.0419 -1.05697,3.28 -1.05698,3.28 -3.5477,0.0431 c -2.78313,0.0338 -3.54742,0 -3.54646,-0.16 z m 19.35877,-12.29159 c 0,-0.26145 -3.85658,-12.21581 -3.98518,-12.35304 -0.0923,-0.0985 -4.17482,12.03949 -4.17482,12.41245 0,0.06 1.836,0.10912 4.08,0.10912 2.75104,0 4.08,-0.0549 4.08,-0.16853 z M 18.879998,143.05521 V 99.935206 H 199.76 380.64001 v 43.120004 43.12 H 199.76 18.879998 Z M 140.88,165.25068 c 6.63851,-1.45849 10.60797,-4.90659 11.82908,-10.2754 0.30124,-1.32446 0.35683,-4.08082 0.10821,-5.36545 -0.70103,-3.62224 -3.60007,-6.85479 -7.68785,-8.5723 -0.61638,-0.25897 -3.51666,-1.08281 -6.44506,-1.83075 -5.92771,-1.51398 -7.42909,-1.96182 -8.8682,-2.64525 -1.71762,-0.81571 -2.41592,-2.00894 -2.25095,-3.84635 0.27178,-3.02709 3.09798,-4.67424 7.55477,-4.40304 3.59393,0.2187 5.60956,1.29087 6.66438,3.54496 0.25319,0.54105 0.51355,1.40997 0.57859,1.93092 l 0.11825,0.94719 4.39712,0.0426 c 2.41842,0.0234 4.47312,0.0135 4.566,-0.0222 0.26011,-0.0998 -0.0109,-2.84143 -0.41119,-4.1592 -1.55579,-5.12211 -6.03763,-8.40875 -12.81238,-9.39565 -0.73742,-0.10742 -2.38477,-0.19626 -3.66077,-0.19741 -6.51285,-0.006 -11.76279,2.46728 -14.4551,6.80957 -2.05172,3.3091 -2.2445,7.82008 -0.47817,11.18941 1.21584,2.31928 3.73575,4.35322 6.91772,5.58362 1.73077,0.66925 5.64834,1.80204 9.37555,2.711 4.35133,1.06116 6.73892,2.3334 7.6318,4.06665 0.49948,0.96958 0.4523,2.71287 -0.10419,3.8503 -1.09589,2.23993 -4.21326,3.42632 -8.48761,3.23017 -3.1715,-0.14553 -5.20234,-0.88387 -6.7785,-2.4644 -1.16177,-1.16499 -1.72782,-2.31373 -1.97468,-4.00739 l -0.19197,-1.31707 H 121.48743 116.96 l 0.001,0.6 c 0.002,1.10093 0.43198,3.46651 0.84485,4.64894 0.5439,1.55764 1.46809,3.07802 2.66351,4.38172 2.46252,2.68555 5.61345,4.24369 10.33051,5.10846 2.22743,0.40835 7.93794,0.32698 10.08,-0.14365 z m 164.91532,-0.0839 c 4.60792,-1.21709 8.11755,-3.63626 10.43291,-7.19138 1.10127,-1.69093 1.65485,-2.88467 2.31883,-5.00024 0.47309,-1.50732 1.00146,-4.33676 0.859,-4.6 -0.0357,-0.066 -2.07343,-0.12 -4.52824,-0.12 h -4.46332 l -0.10304,0.6 c -0.81268,4.73202 -3.33832,7.89822 -6.98641,8.75832 -1.48045,0.34904 -4.27343,0.31341 -5.78752,-0.0738 -4.19275,-1.07232 -7.05165,-4.44282 -8.07882,-9.52448 -1.13246,-5.6026 -0.0949,-11.67047 2.60472,-15.23226 1.34125,-1.76963 3.57906,-3.17937 5.79059,-3.64788 1.42135,-0.30111 3.86772,-0.30074 5.14656,8e-4 3.23768,0.76337 6.06317,3.39771 6.82092,6.35946 l 0.21488,0.8399 4.50182,0.0425 4.50181,0.0425 v -0.46197 c 0,-0.65034 -0.69507,-3.31471 -1.17413,-4.50076 -1.04058,-2.57618 -3.51816,-5.64091 -5.78587,-7.15701 -3.34837,-2.23858 -7.06458,-3.3019 -11.52,-3.29624 -4.57184,0.006 -8.15624,1.02687 -11.71827,3.33809 -1.67896,1.08939 -4.11522,3.50059 -5.22304,5.16929 -5.51306,8.30433 -5.33642,20.72643 0.40374,28.39128 2.92067,3.90002 7.53069,6.69946 12.29757,7.46776 0.66,0.10638 1.308,0.21867 1.44,0.24954 0.132,0.0309 1.644,0.0339 3.36,0.007 2.74163,-0.0434 3.30862,-0.0992 4.67531,-0.46013 z M 47.199999,156.41521 v -8.32 h 5.432125 c 5.906456,0 6.589751,0.0712 8.044527,0.8379 0.992893,0.5233 1.445027,1.02216 2.10179,2.31903 0.712231,1.4064 0.945816,2.79466 1.541762,9.16307 0.0947,1.012 0.321285,2.398 0.503518,3.08 l 0.331335,1.24 h 4.678006 4.678012 l -0.38245,-0.77278 c -0.58827,-1.18868 -0.98278,-3.48674 -1.17189,-6.82639 -0.3437,-6.06941 -1.0587,-8.52702 -3.086497,-10.60896 -0.628389,-0.64517 -2.606933,-1.79187 -3.091735,-1.79187 -0.404189,0 -0.223035,-0.25408 0.321562,-0.451 0.710939,-0.25708 2.305454,-1.29413 3.116752,-2.02709 1.945398,-1.75755 3.086058,-4.86607 3.082288,-8.39982 -0.004,-3.42315 -1.02749,-5.98506 -3.293858,-8.24209 -1.509981,-1.50376 -2.795885,-2.29445 -4.885246,-3.00389 l -1.52,-0.51611 -12.920001,-0.0454 -12.92,-0.0454 v 21.3654 21.3654 h 4.72 4.72 z m 0,-21.12 v -6.08 h 5.164197 c 2.840309,0 5.774309,0.0758 6.52,0.16844 3.128084,0.38863 4.587248,1.751 4.976964,4.64681 0.433659,3.22233 -0.645847,5.7723 -2.842205,6.71377 -1.234205,0.52904 -2.538872,0.62853 -8.258956,0.62977 l -5.56,0.001 z m 66.240001,25.52 v -3.92 H 101.92 90.400004 v -5.28 -5.28 H 100.72 111.04 v -3.6 -3.6 H 100.72 90.400004 v -4.64 -4.64 H 101.68 112.96 v -3.92 -3.92 H 96.960009 80.960004 v 21.36 21.36 H 97.200009 113.44 Z m 77.6,0 v -3.92 H 179.52 168 v -5.28 -5.28 h 10.32 10.32 v -3.6 -3.6 H 178.32 168 v -4.64 -4.64 h 11.28 11.28 v -3.92 -3.92 h -16 -16 v 21.36 21.36 h 16.24 16.24 z m 12.865,-0.8 1.62976,-4.64 8.07262,-0.0403 8.07263,-0.0403 1.58614,4.72028 1.58614,4.72029 h 4.86719 c 3.0524,0 4.84731,-0.0575 4.81385,-0.15418 -0.0293,-0.0848 -3.61732,-9.69591 -7.97332,-21.35804 l -7.92,-21.20387 -4.85181,0.038 -4.85183,0.038 -7.83091,20.72 c -4.30701,11.396 -7.93754,20.99107 -8.06784,21.32238 l -0.23693,0.60239 4.73727,-0.0424 4.73726,-0.0424 z m 4.50833,-12.84 c 0.21668,-0.594 1.46024,-4.09029 2.76348,-7.76953 1.30323,-3.67924 2.43558,-6.69275 2.51635,-6.69669 0.0808,-0.004 0.62616,1.38635 1.21198,3.08953 0.58583,1.70318 1.78845,5.20269 2.67248,7.77669 l 1.60735,4.68 h -5.5828 -5.5828 z m 39.26668,9.24 v -8.32 h 5.44841 c 6.0404,0 7.03155,0.11384 8.36741,0.96101 0.85646,0.54315 1.72267,1.7738 2.17456,3.08948 0.39533,1.15096 0.72235,3.34136 1.04355,6.98951 0.2325,2.64086 0.48752,4.15176 0.87101,5.1604 l 0.16714,0.4396 h 4.64665 4.64666 l -0.38275,-0.76 c -0.53919,-1.07061 -0.88076,-2.73758 -1.06548,-5.1999 -0.0875,-1.16605 -0.23123,-3.0561 -0.31947,-4.2001 -0.0882,-1.144 -0.30238,-2.67259 -0.47589,-3.39687 -0.73968,-3.08768 -2.47307,-5.30735 -4.8418,-6.20015 -0.418,-0.15755 -0.7597,-0.33067 -0.75932,-0.38472 0,-0.054 0.55837,-0.38458 1.24,-0.73452 3.46309,-1.77793 5.33408,-5.20986 5.36652,-9.84374 0.0167,-2.3832 -0.24842,-3.60645 -1.21362,-5.6 -0.53664,-1.10838 -0.92722,-1.63002 -2.11112,-2.81945 -1.2417,-1.24752 -1.67262,-1.56555 -2.96755,-2.19006 -2.85711,-1.3779 -1.79715,-1.29046 -16.35491,-1.34918 l -12.92,-0.0521 v 21.36539 21.3654 h 4.72 4.72 z m 0,-21.12 v -6.08 l 5.16,10e-4 c 2.838,6.4e-4 5.75664,0.0698 6.48587,0.15366 2.48773,0.28604 4.14437,1.41424 4.78379,3.25784 0.38898,1.12153 0.39448,3.98495 0.0101,5.24123 -0.53792,1.75801 -2.1279,2.99851 -4.27974,3.33905 -0.572,0.0905 -3.542,0.16513 -6.6,0.1658 l -5.56,10e-4 z m 87.52,20.24 v -9.2 h 8.64 8.64 v 9.2 9.2 h 4.72 4.72 v -21.36 -21.36 h -4.72 -4.72 v 8.16 8.16 h -8.64 -8.64 v -8.16 -8.16 h -4.72 -4.72 v 21.36 21.36 h 4.72 4.72 z M 194.35048,92.560936 c -8.74699,-0.72167 -15.37387,-3.41568 -20.21294,-8.21712 -3.97347,-3.94257 -6.12314,-8.65236 -7.20266,-15.7806 -0.25193,-1.6636 -0.28177,-4.16283 -0.33176,-27.78801 l -0.0549,-25.96 h 8.40592 8.4059 v 24.87181 c 0,21.38042 0.0343,25.13686 0.24448,26.76 0.52397,4.04669 1.40664,6.04459 3.66434,8.2941 1.7391,1.73278 3.53749,2.75089 5.93216,3.35835 3.95587,1.00349 9.54762,0.83641 13.39691,-0.40031 4.25108,-1.3658 6.45037,-4.11422 7.68509,-9.60395 0.34026,-1.51282 0.34211,-1.64215 0.39319,-27.4 l 0.0513,-25.88 h 8.40128 8.40128 l -0.051,26.12 c -0.0561,28.69231 0.005,26.82101 -1.02496,31.24 -2.56248,10.99076 -10.82431,18.01733 -23.49403,19.98136 -3.55284,0.55075 -8.79701,0.71892 -12.60953,0.40437 z m 75.40953,0.076 c -11.8644,-1.06418 -20.01189,-5.09803 -24.8296,-12.29322 -2.53652,-3.78825 -3.70916,-7.46693 -3.91717,-12.28853 l -0.10181,-2.36 h 8.08229 8.08229 l 0.11118,1.37031 c 0.62819,7.74215 6.31339,12.32056 15.72088,12.66032 4.45274,0.16082 7.89101,-0.41575 10.73779,-1.80063 1.20592,-0.58665 1.75792,-0.98039 2.75053,-1.96197 0.68303,-0.67542 1.39555,-1.53176 1.58341,-1.90299 0.76912,-1.51984 1.02981,-3.96358 0.59643,-5.59121 -0.36659,-1.37688 -0.91424,-2.27206 -2.03918,-3.33328 -2.44831,-2.30961 -5.57474,-3.59631 -13.64525,-5.61576 -11.30565,-2.82898 -15.87959,-4.36769 -19.62882,-6.60329 -5.57211,-3.32255 -8.75606,-7.82501 -9.576,-13.5415 -0.23357,-1.62851 -0.20062,-5.20428 0.0641,-6.96066 1.33099,-8.82915 8.65907,-15.80695 19.20888,-18.29074 3.44267,-0.81053 5.12968,-0.98667 9.36,-0.97725 9.85729,0.0219 17.20176,2.28709 22.77624,7.0246 1.32373,1.12498 3.12505,3.25709 4.17504,4.94172 1.94997,3.12861 3.12525,7.27029 3.12777,11.02233 l 0.002,1.4 h -8.06428 -8.06429 l -0.11434,-1 c -0.0629,-0.55 -0.29038,-1.612 -0.50557,-2.36 -1.56065,-5.42521 -6.17803,-8.04001 -14.21152,-8.04793 -4.41291,-0.004 -7.19088,0.922 -9.43654,3.14674 -1.77019,1.75371 -2.4928,3.73361 -2.26341,6.20171 0.22824,2.45582 1.20774,3.83479 3.61266,5.08595 2.58475,1.34474 5.51308,2.21857 17.92729,5.34956 7.227,1.82272 9.01544,2.38752 11.41664,3.60543 2.57221,1.30463 4.36528,2.54163 6.13087,4.22954 3.56248,3.40575 5.40117,6.86764 5.98742,11.27309 0.2476,1.86059 0.0973,6.78052 -0.25517,8.35285 -0.6524,2.91031 -1.64139,5.32709 -3.08158,7.53051 -4.03254,6.16954 -11.4016,10.15209 -21.15818,11.43478 -1.9111,0.25125 -8.89096,0.44923 -10.56,0.29952 z M 19.199998,52.886316 v -38.08888 l 19.080001,0.0609 c 20.762296,0.0662 20.222407,0.0439 24.040001,0.99523 11.409404,2.84326 17.928824,12.01042 17.467564,24.56168 -0.31196,8.48865 -3.74965,15.08144 -9.947564,19.07738 -3.127624,2.01645 -6.498512,3.2351 -10.800001,3.90444 -1.389265,0.21617 -3.542081,0.27399 -12.44,0.33409 l -10.76,0.0727 v 13.58571 13.58571 h -8.32 -8.320001 z m 34.1822,-2.47737 c 6.329705,-0.82975 9.555882,-3.83341 10.171314,-9.46977 0.33087,-3.03023 -0.278533,-6.23537 -1.549508,-8.14959 -1.245225,-1.87545 -2.880325,-3.08094 -5.240352,-3.86351 -2.600245,-0.86223 -4.299888,-0.99087 -13.091848,-0.99087 h -7.831805 v 11.36 11.36 h 7.831805 c 6.129741,0 8.240074,-0.0535 9.710394,-0.24626 z m 36.697806,2.4799 v -38.08637 l 22.039996,0.0532 c 24.10852,0.0582 22.92765,0.0132 26.36477,1.00268 1.77146,0.50994 4.5717,1.83647 6.2516,2.9615 1.59663,1.06926 4.09009,3.55288 5.13694,5.11666 0.96445,1.44068 1.94952,3.37688 2.44144,4.79873 1.37608,3.97741 1.4756,9.89884 0.23816,14.169 -1.54083,5.31708 -4.37857,8.76681 -9.19485,11.17785 -0.96981,0.48549 -1.78011,0.93218 -1.80067,0.99266 -0.0206,0.0605 0.34202,0.23892 0.80574,0.39654 3.70284,1.25863 6.47579,3.96806 8.19751,8.0097 1.13309,2.65989 1.79262,6.52143 2.07244,12.13425 0.0943,1.892 0.24732,4.304 0.34,5.36 0.35736,4.07197 1.22042,7.66714 2.2183,9.24064 l 0.48158,0.75936 h -8.38343 -8.38344 l -0.32933,-1 c -0.77066,-2.34002 -1.04761,-4.07575 -1.4583,-9.13958 -0.76274,-9.40443 -1.51899,-12.74225 -3.53858,-15.61804 -1.63556,-2.32895 -3.99234,-3.46466 -7.97316,-3.84216 -0.9277,-0.088 -5.52072,-0.16001 -10.20672,-0.16008 l -8.52,-1.4e-4 v 14.88 14.88 H 98.480009 90.080004 Z M 127.2,49.210356 c 5.01659,-0.52575 7.7189,-2.49717 8.98546,-6.55515 0.33598,-1.07645 0.37454,-1.50474 0.37454,-4.16 0,-2.65507 -0.0386,-3.08362 -0.37448,-4.16 -0.53428,-1.71205 -1.05336,-2.58078 -2.19993,-3.68178 -1.12149,-1.07691 -2.3341,-1.71645 -4.30559,-2.27082 -1.26035,-0.3544 -1.44512,-0.36069 -12.04,-0.41002 l -10.76,-0.0501 v 10.72636 10.72636 l 9.4,-0.003 c 5.17,-0.002 10.084,-0.0745 10.92,-0.16207 z m 179.60598,41.56485 c 0.0418,-0.11 6.51486,-17.228 14.38468,-38.04 l 14.30876,-37.84 8.56392,-0.0414 c 8.03345,-0.0388 8.57315,-0.024 8.71278,0.24 0.18002,0.34027 28.34389,75.64127 28.34389,75.78229 0,0.0545 -3.90602,0.0991 -8.68005,0.0991 h -8.68005 l -2.78339,-8.2 c -1.53086,-4.51 -2.84738,-8.326 -2.92558,-8.48 -0.1338,-0.26348 -0.9765,-0.28 -14.28506,-0.28 H 329.623 l -0.30925,0.84 c -0.17009,0.462 -1.51733,4.278 -2.99384,8.48 l -2.68459,7.64 h -8.45264 c -6.69594,0 -8.43685,-0.0416 -8.3767,-0.2 z m 46.75307,-29.44 c -0.0414,-0.11 -2.18578,-6.356 -4.76536,-13.88 -2.57959,-7.524 -4.71344,-13.71 -4.74192,-13.74667 -0.0285,-0.0367 -0.0931,-0.0253 -0.14365,0.0252 -0.11213,0.11214 -9.82811,27.45353 -9.82811,27.65695 0,0.0844 4.0644,0.14451 9.77712,0.14451 7.75513,0 9.76157,-0.0414 9.70192,-0.2 z"
     id="path28"
     inkscape:connector-curvature="0" />
</svg>
