<?xml version="1.0" encoding="UTF-8" standalone="no"?>
<!-- Creator: CorelDRAW 2017 -->

<svg
   xmlns:dc="http://purl.org/dc/elements/1.1/"
   xmlns:cc="http://creativecommons.org/ns#"
   xmlns:rdf="http://www.w3.org/1999/02/22-rdf-syntax-ns#"
   xmlns:svg="http://www.w3.org/2000/svg"
   xmlns="http://www.w3.org/2000/svg"
   xmlns:sodipodi="http://sodipodi.sourceforge.net/DTD/sodipodi-0.dtd"
   xmlns:inkscape="http://www.inkscape.org/namespaces/inkscape"
   xml:space="preserve"
   width="7.6335mm"
   height="11.6189mm"
   version="1.1"
   style="shape-rendering:geometricPrecision; text-rendering:geometricPrecision; image-rendering:optimizeQuality; fill-rule:evenodd; clip-rule:evenodd"
   viewBox="0 0 63.85 97.19"
   id="svg2"
   inkscape:version="0.91 r13725"
   sodipodi:docname="about_us_color.svg"><metadata
     id="metadata54"><rdf:RDF><cc:Work
         rdf:about=""><dc:format>image/svg+xml</dc:format><dc:type
           rdf:resource="http://purl.org/dc/dcmitype/StillImage" /><dc:title></dc:title></cc:Work></rdf:RDF></metadata><sodipodi:namedview
     pagecolor="#ffffff"
     bordercolor="#666666"
     borderopacity="1"
     objecttolerance="10"
     gridtolerance="10"
     guidetolerance="10"
     inkscape:pageopacity="0"
     inkscape:pageshadow="2"
     inkscape:window-width="1045"
     inkscape:window-height="783"
     id="namedview52"
     showgrid="false"
     inkscape:zoom="5.7324224"
     inkscape:cx="4.9760478"
     inkscape:cy="20.584666"
     inkscape:window-x="648"
     inkscape:window-y="288"
     inkscape:window-maximized="0"
     inkscape:current-layer="svg2" /><defs
     id="defs4"><style
       type="text/css"
       id="style6"><![CDATA[
    .fil1 {fill:#FEFEFE}
    .fil5 {fill:#DEB8A7}
    .fil6 {fill:#BF9381}
    .fil4 {fill:#7B5046}
    .fil3 {fill:#525B62}
    .fil2 {fill:#262727}
    .fil0 {fill:black}
   ]]></style></defs><rect
     class="fil0"
     x="-1260"
     y="-1823.75"
     width="1756.65"
     height="2484.41"
     id="rect8"
     style="opacity:0" /><g
     id="Layer_x0020_1"><metadata
       id="CorelCorpID_0Corel-Layer" /><path
       class="fil1"
       d="M18.47 42.19l-0.02 0.01 -0.02 0.01 -0.02 0.01 -0.02 0.01 -0.02 0.01 -0.02 0.01 -0.02 0.02 -0.02 0.02 -0.03 0.03 -0.03 0.03 -0.03 0.04 -0.03 0.04 -0.06 0.07 -0.17 0.21 -0.06 0.06 -0.03 0.03 -0.03 0.03 -0.03 0.03 -0.03 0.03 -0.03 0.03 -0.03 0.02 -0.03 0.02 -0.03 0.02 -0.03 0.02 -0.03 0.02 -0.03 0.02 -0.03 0.02 -0.03 0.02 -0.03 0.02 -0.04 0.02 -0.04 0.02 -0.04 0.02 -0.04 0.02 -0.04 0.02 -0.04 0.02 -0.04 0.02 -0.04 0.01 -0.05 0.01 -0.05 0.01 -0.05 0.01 -0.05 0.01 -0.05 0.01 -0.05 0.01 -0.05 0.01 -0.05 0.01 -0.05 0.01 -0.05 0 -0.1 0.01 -0.51 0.01 -0.09 0.01 -0.04 0 -0.04 0 -0.08 0.01 -0.08 0.01 -0.39 0.08 -0.06 0.01 -0.05 0.01 -0.05 0.01 -0.03 0 -0.03 0 -0.02 0 -0.02 0 -0.02 0 -0.02 -0 -0.02 -0 -0.02 -0 -0.02 -0 -0.02 -0 -0.02 -0 -0.02 -0c-0.01,-0 -0.02,-0 -0.02,-0 -0.01,-0 -0.02,-0.01 -0.02,-0.01 -0.01,-0 -0.02,-0.01 -0.02,-0.01 -0.01,-0 -0.02,-0.01 -0.02,-0.01l-0.02 -0.01c-0.01,-0 -0.01,-0.01 -0.01,-0.01 -0.01,-0 -0.01,-0.01 -0.01,-0.01 -0.01,-0.01 -0.01,-0.01 -0.01,-0.01 -0.01,-0.01 -0.01,-0.01 -0.01,-0.01 -0.01,-0.01 -0.01,-0.01 -0.01,-0.01 -0.01,-0.01 -0.01,-0.01 -0.01,-0.01 -0.01,-0.01 -0.01,-0.01 -0.01,-0.01l-0 -0.01c-0,-0.01 -0,-0.01 -0,-0.01 -0,-0.01 -0,-0.01 -0,-0.01l-0 -0.01 -0 -0.01 -0 -0.01c0,-0.01 0,-0.01 0,-0.01 0,-0.01 0,-0.01 0,-0.01 0,-0.01 0,-0.01 0,-0.01 0,-0.01 0,-0.02 0,-0.02 0,-0.01 0,-0.02 0,-0.02l0.01 -0.02 0 -0.01 0.01 -0.01 0.01 -0.01 0.01 -0.01 0.01 -0.01 0.01 -0.01 0.01 -0.03 0.02 -0.03 0.02 -0.03 0.02 -0.03 0.02 -0.03 0.02 -0.03 0.05 -0.06 0.05 -0.06 0.06 -0.07 0.07 -0.07 0.08 -0.07 0.09 -0.08 0.09 -0.08 0.1 -0.08 0.11 -0.09 0.12 -0.09 0.13 -0.09 0.14 -0.09 0.15 -0.1 0.16 -0.1 0.17 -0.1 0.18 -0.1 0.19 -0.09 0.2 -0.09 0.21 -0.09 0.21 -0.09 0.44 -0.17 0.45 -0.15 0.45 -0.14 0.23 -0.06 0.23 -0.06 0.23 -0.05 0.23 -0.05 0.23 -0.04 0.24 -0.03 0.24 -0.03 0.24 -0.02 0.24 -0.01 0.24 -0.01 0.23 0 0.23 0.01 0.22 0.01 0.21 0.02 0.2 0.03 0.19 0.03 0.19 0.03 0.9 0.18 0.95 0.15 0.09 0.02 0.09 0.02 0.08 0.02 0.08 0.02 0.04 0.01 0.04 0.01 0.04 0.01 0.03 0.01 0.03 0.01 0.03 0.02 0.03 0.02 0.03 0.02 0.03 0.02 0.03 0.02 0.03 0.02 0.03 0.02 0.03 0.02 0.02 0.02 0.02 0.02 0.02 0.02 0.02 0.02 0.02 0.02 0.02 0.02 0.02 0.02 0.02 0.02 0.02 0.02 0.02 0.02 0.02 0.02 0.02 0.02 0.02 0.02 0.01 0.02 0.01 0.02 0.01 0.02 0.01 0.02 0.02 0.05 0.02 0.05 0.02 0.05 0.02 0.05 0.02 0.05 0.02 0.05 0.02 0.05 0.02 0.05 0.01 0.05 0.01 0.05 0.01 0.05 0.01 0.05 0.01 0.05 0.01 0.05 0.01 0.05 0 0.05 0 0.05 0 0.05 0 0.05 -0 0.05 -0 0.04 -0 0.04 -0.01 0.04 -0.01 0.04 -0.01 0.04 -0.01 0.04 -0.01 0.04 -0.01 0.04 -0.01 0.04 -0.02 0.04 -0.02 0.04 -0.02 0.04 -0.02 0.04 -0.02 0.04 -0.02 0.04 -0.02 0.04 -0.02 0.04 -0.05 0.08 -0.05 0.08 -0.33 0.47 -0.07 0.1 -0.05 0.09 -0.12 0.21 -0.01 0.02 -0.01 0.02 -0.01 0.02 -0.01 0.01c-0.01,0.01 -0.01,0.01 -0.01,0.01 -0.01,0.01 -0.01,0.01 -0.01,0.01 -0.01,0.01 -0.01,0.01 -0.01,0.01 -0,0 -0.01,0.01 -0.01,0.01 -0.01,0.01 -0.01,0.01 -0.01,0.01 -0.01,0 -0.01,0 -0.01,0 -0.01,0 -0.01,0 -0.01,0 -0.01,-0 -0.01,-0 -0.01,-0 -0.01,-0.01 -0.01,-0.01 -0.01,-0.01 -0.01,-0.01 -0.01,-0.01 -0.01,-0.01 -0.01,-0.01 -0.01,-0.01 -0.01,-0.01 -0.01,-0.01 -0.01,-0.01 -0.01,-0.01l-0.01 -0.01c-0,-0.01 -0.01,-0.02 -0.01,-0.02 -0,-0.01 -0.01,-0.02 -0.01,-0.02l-0 -0.01 -0 -0.01 -0 -0.01 -0 -0.01 -0.01 -0.02 -0.01 -0.02 -0.01 -0.03 -0.01 -0.03 -0.01 -0.03 -0.01 -0.03 -0.01 -0.06 -0.01 -0.07 -0.01 -0.07 -0.01 -0.07 -0.01 -0.08 -0 -0.08 -0 -0.08 0 -0.08 0 -0.08 0.02 -0.37 0.01 -0.14 0 -0.07 0 -0.07 -0 -0.07 -0 -0.04 -0 -0.04 -0 -0.03 -0.01 -0.03 -0.01 -0.03 -0.01 -0.03 -0.01 -0.03 -0 -0.02 -0 -0.02 -0 -0.02 -0.01 -0.02 -0.01 -0.02 -0.01 -0.02 -0.01 -0.02 -0.01 -0.01 -0.01 -0.01 -0.01 -0.01 -0.01 -0.01 -0.01 -0.01 -0.01 -0.01 -0.01 -0.01 -0.01 -0.01 -0.01 -0.01 -0.01 -0.01 -0.01 -0.01 -0.01 -0.01 -0.01 -0.01 -0.01 -0.01 -0.01 -0.01 -0.01 -0.01 -0.01 -0.01 -0.01 -0.01 -0.01 -0.01 -0.02 -0.02 -0.02 -0.02 -0.02 -0.02 -0.02 -0.02 -0.02 -0.02 -0.03 -0.02 -0.03 -0.02 -0.03 -0.02 -0.03 -0.02 -0.03 -0.02 -0.03 -0.02 -0.03 -0.02 -0.03 -0.02 -0.03 -0.01 -0.03 -0.02 -0.03 -0.01 -0.03 -0.01 -0.03 -0.01 -0.03 -0.01 -0.03 -0.01 -0.03 -0.01 -0.03 -0.01 -0.03 -0.01 -0.03 -0.01 -0.03 -0.01 -0.03 -0 -0.03 -0 -0.03 -0 -0.03 -0 -0.03 -0 -0.03 -0 -0.03 0 -0.03 0 -0.02 0 -0.02 0 -0.02 0 -0.02 0 -0.02 0 -0.02 0.01 -0.02 0 -0.02 0.01 -0.02 0.01 -0.02 0.01 -0.02 0.01 -0.02 0.01 -0.02 0.01 -0.02 0.01 -0.02 0.01 -0.02 0.01 -0.02 0.01 -0.02 0.01 -0.02 0.01 -0.04 0.02 -0.04 0.03 -0.04 0.03 -0.04 0.03 -0.04 0.03 -0.02 0.02 -0.02 0.02 -0.02 0.02 -0.02 0.02 -0.02 0.02 -0.02 0.02 -0.02 0.02 -0.01 0.01 -0.01 0.01 -0.01 0.01 -0.01 0.01 -0.01 0.01c-0.01,0.01 -0.01,0.02 -0.01,0.02 -0.01,0.01 -0.01,0.02 -0.01,0.02l-0.01 0.02c-0,0.01 -0.01,0.02 -0.01,0.02 -0,0.01 -0.01,0.02 -0.01,0.02 -0,0.01 -0.01,0.02 -0.01,0.02 -0,0.01 -0.01,0.02 -0.01,0.02 -0,0.01 -0,0.02 -0,0.02 -0,0.01 -0.01,0.02 -0.01,0.02l-0 0.02c-0,0.01 -0,0.02 -0,0.02 -0,0.01 -0,0.02 -0,0.02 0,0.01 0,0.02 0,0.02 -0,0.01 0,0.02 0,0.02 0,0.01 0,0.02 0,0.02 0,0.01 0,0.03 0,0.03l0 0.02 0 0.02 0.02 0.14 0.01 0.06 0.01 0.07 0.01 0.07 0 0.04 0 0.04 0 0.04 0 0.05 -0 0.05 -0 0.05 -0 0.05 -0.01 0.05 -0.01 0.05 -0.01 0.05 -0.01 0.05 -0.01 0.03 -0.01 0.03 -0.01 0.03 -0.01 0.03 -0.01 0.03 -0.01 0.03 -0.01 0.03 -0.01 0.03 -0.01 0.03 -0.01 0.03 -0.01 0.03 -0.01 0.03 -0.01 0.03 -0.01 0.03 -0.01 0.03 -0.01 0.03 -0.02 0.03 -0.02 0.03 -0.02 0.03 -0.02 0.02 -0.02 0.02 -0.02 0.02 -0.02 0.02 -0.02 0.02 -0.02 0.02 -0.02 0.02 -0.02 0.02 -0.02 0.02 -0.02 0.02 -0.02 0.02 -0.02 0.02 -0.02 0.02 -0.03 0.02 -0.03 0.02 -0.03 0.02 -0.03 0.02 -0.03 0.02 -0.03 0.02 -0.03 0.02 -0.03 0.02 -0.03 0.02 -0.03 0.02 -0.03 0.01 -0.03 0.01 -0.03 0.01 -0.03 0.01 -0.03 0.01 -0.03 0.01 -0.03 0.01 -0.03 0.01 -0.04 0.01 -0.03 0.01 -0.07 0.01 -0.07 0.01 -0.07 0.01 -0.07 0.01 -0.07 0.01 -0.08 0.01 -0.08 0 -0.08 0 -0.08 0 -0.16 -0 -0.16 -0.01 -0.16 -0.01 -0.15 -0.02 -0.15 -0.02 -0.14 -0.02 -0.13 -0.02 -0.12 -0.03 -0.11 -0.03 -0.1 -0.03 -0.05 -0.01 -0.04 -0.01 -0.04 -0.01 -0.04 -0.01 -0.04 -0.01 -0.03 -0.01 -0.02 -0.01 -0.02 -0.01 -0.02 -0.01 -0.01 -0.01 -0.02 -0.01 -0.01 -0.01 -0.01 -0.01 -0.01 -0.01 -0.01 -0.01 -0.01 -0.01 -0.01 -0.01 -0.01 -0.01 -0.01 -0.01 -0.01 -0.01 -0.01 -0.01 -0.01 -0.01 -0.01 -0.01 -0.01 -0.01 -0.01 -0.01 -0.01 -0.01 -0.01 -0.01 -0.01 -0.01 -0.01 -0.01 -0.01 -0.01 -0.01 -0.01 -0.01 -0.01 -0.01 -0.01 -0.01 -0.01 -0.01 -0.01 -0.01 -0.01 -0.01 -0.01 -0.01 -0.01 -0.01 -0.01 -0.01 -0.01 -0.01 -0.01 -0.01 -0.02 -0.01 -0.01 -0.01 -0.02 -0.01 -0.02 -0 -0.02 -0.01 -0.02 -0.01 -0.02 -0 -0.02 -0 -0.02 -0.01 -0.03 -0.01 -0.04 -0.01 -0.03 -0 -0.04 -0 -0.04 -0 -0.04 -0 -0.04 -0 -0.04 0 -0.04 0 -0.04 0 -0.08 0.01 -0.08 0.01 -0.08 0.01 -0.08 0.01 -0.08 0.01 -0.07 0.09 -0.42 0.01 -0.04 0.01 -0.04 0.01 -0.04 0.01 -0.07 0.01 -0.06 0 -0.03 0 -0.01c0,-0.01 0,-0.01 0,-0.01 0,-0.01 -0,-0.01 -0,-0.01 -0,-0.01 -0,-0.01 -0,-0.01 -0,-0.01 -0,-0.01 -0,-0.01l-0 -0.01c-0,-0.01 -0.01,-0.01 -0.01,-0.01 -0,-0.01 -0.01,-0.01 -0.01,-0.01 -0.01,-0.01 -0.01,-0.01 -0.01,-0.01 -0.01,-0.01 -0.01,-0.01 -0.01,-0.01 -0.01,-0 -0.01,-0.01 -0.01,-0.01 -0.01,-0 -0.01,-0.01 -0.01,-0.01 -0.01,-0 -0.01,-0.01 -0.01,-0.01 -0.01,-0 -0.01,-0 -0.01,-0 -0.01,-0 -0.01,-0 -0.01,-0 -0.01,-0 -0.02,-0.01 -0.02,-0.01 -0.01,-0 -0.02,-0 -0.02,-0l-0.01 -0 -0.01 -0 -0.01 -0 -0.01 -0 -0.01 0 -0.02 0 -0.01 0 -0.02 0 -0.02 0 -0.02 0 -0.02 0 -0.02 0 -0.02 0 -0.02 0 -0.02 0 -0.02 0 -0.02 0.01 -0.02 0.01 -0.02 0.01 -0.02 0.01 -0.02 0.01 -0.02 0.01 -0.02 0.01 -0.02 0.01 -0.02 0.01 -0.02 0.01 -0.02 0.01 -0.02 0.01 -0.02 0.01zm-6.36 -4.38l-0.1 0.14 -0.05 0.08 -0.05 0.08 -0.05 0.08 -0.05 0.08 -0.05 0.09 -0.05 0.09 -0.05 0.1 -0.05 0.1 -0.05 0.1 -0.05 0.11 -0.05 0.11 -0.05 0.12 -0.05 0.12 -0.05 0.13 -0.04 0.13 -0.04 0.14 -0.08 0.28 -0.07 0.29 -0.07 0.3 -0.06 0.3 -0.06 0.3 -0.05 0.29 -0.04 0.28 -0.03 0.27 -0.02 0.26 -0.02 0.25 -0.01 0.24 0 0.12 0 0.12 0.01 0.24 0.02 0.25 0.03 0.26 0.04 0.27 0.04 0.28 0.05 0.28 0.06 0.29 0.07 0.28 0.07 0.28 0.08 0.27 0.08 0.26 0.09 0.25 0.04 0.12 0.05 0.12 0.05 0.11 0.05 0.11 0.05 0.11 0.05 0.11 0.05 0.1 0.05 0.1 0.06 0.1 0.06 0.1 0.06 0.1 0.06 0.09 0.06 0.09 0.07 0.09 0.07 0.09 0.07 0.09 0.07 0.09 0.07 0.09 0.08 0.09 0.08 0.09 0.08 0.08 0.09 0.08 0.09 0.08 0.09 0.08 0.1 0.08 0.1 0.08 0.11 0.08 0.11 0.07 0.12 0.07 0.13 0.07 0.13 0.07 0.14 0.07 0.14 0.07 0.15 0.06 0.15 0.06 0.16 0.06 0.32 0.11 0.33 0.11 0.34 0.1 0.34 0.09 0.35 0.08 0.34 0.07 0.34 0.06 0.34 0.05 0.33 0.04 0.33 0.03 0.32 0.03 0.61 0.04 0.29 0.01 0.29 0.01 0.28 -0 0.14 -0 0.14 -0.01 0.14 -0.01 0.14 -0.01 0.14 -0.02 0.14 -0.02 0.14 -0.02 0.14 -0.03 0.14 -0.03 0.14 -0.04 0.14 -0.04 0.14 -0.05 0.15 -0.05 0.15 -0.05 0.15 -0.06 0.15 -0.06 0.15 -0.07 0.15 -0.07 0.15 -0.08 0.15 -0.08 0.15 -0.08 0.15 -0.09 0.15 -0.09 0.15 -0.1 0.15 -0.1 0.15 -0.11 0.15 -0.11 0.15 -0.11 0.15 -0.12 0.15 -0.12 0.15 -0.13 0.15 -0.13 0.15 -0.14 0.14 -0.14 0.14 -0.14 0.14 -0.15 0.14 -0.15 0.14 -0.16 0.14 -0.16 0.14 -0.17 0.13 -0.17 0.13 -0.18 0.13 -0.18 0.13 -0.19 0.25 -0.39 0.24 -0.4 0.23 -0.41 0.22 -0.41 0.1 -0.21 0.1 -0.21 0.09 -0.21 0.09 -0.21 0.08 -0.21 0.08 -0.2 0.07 -0.2 0.07 -0.2 0.06 -0.2 0.05 -0.19 0.05 -0.19 0.04 -0.19 0.04 -0.18 0.03 -0.18 0.03 -0.18 0.02 -0.17 0.02 -0.17 0.01 -0.16 0.01 -0.16 0 -0.15 -0 -0.07 -0 -0.07 -0.01 -0.07 -0.01 -0.07 -0.01 -0.07 -0.01 -0.07 -0.01 -0.07 -0.01 -0.06 -0.01 -0.06 -0.01 -0.06 -0.01 -0.06 -0.02 -0.06 -0.02 -0.06 -0.02 -0.06 -0.02 -0.06 -0.02 -0.05 -0.02 -0.05 -0.02 -0.05 -0.03 -0.05 -0.03 -0.05 -0.03 -0.05 -0.03 -0.05 -0.03 -0.05 -0.03 -0.05 -0.03 -0.05 -0.04 -0.05 -0.04 -0.05 -0.04 -0.04 -0.04 -0.05 -0.04 -0.04 -0.04 -0.04 -0.04 -0.04 -0.05 -0.04 -0.05 -0.04 -0.05 -0.04 -0.05 -0.04 -0.1 -0.08 -0.11 -0.08 -0.12 -0.08 -0.12 -0.08 -0.13 -0.08 -0.13 -0.08 -0.14 -0.07 -0.14 -0.07 -0.14 -0.07 -0.15 -0.07 -0.15 -0.07 -0.16 -0.07 -0.32 -0.13 -0.34 -0.12 -0.35 -0.11 -0.36 -0.1 -0.38 -0.1 -0.4 -0.09 -0.42 -0.08 -0.44 -0.07 -0.46 -0.07 -0.48 -0.06 -0.51 -0.05 -0.53 -0.04 -1.1 -0.07 -1.13 -0.04 -1.11 -0.01 -1.06 0.03 -0.5 0.03 -0.47 0.03 -0.44 0.04 -0.4 0.05 -0.19 0.03 -0.18 0.03 -0.17 0.03 -0.15 0.03 -0.14 0.04 -0.07 0.02 -0.07 0.02 -0.06 0.02 -0.06 0.02 -0.06 0.02 -0.05 0.02 -0.05 0.02 -0.05 0.02 -0.05 0.02 -0.05 0.02 -0.05 0.02 -0.04 0.02 -0.04 0.03 -0.04 0.03 -0.04 0.03 -0.04 0.03 -0.03 0.03 -0.03 0.03 -0.03 0.03 -0.03 0.03 -0.03 0.03 -0.03 0.03 -0.03 0.03 -0.03 0.03 -0.05 0.06 -0.05 0.07 -0.05 0.07z"
       id="path12" /><path
       class="fil1"
       d="M38 42.51c-0.01,-0.01 -0.01,-0.01 -0.01,-0.01l-0.01 -0.01c-0.01,-0 -0.02,-0.01 -0.02,-0.01 -0.01,-0 -0.02,-0.01 -0.02,-0.01l-0.02 -0.01c-0.01,-0 -0.02,-0.01 -0.02,-0.01 -0.01,-0 -0.02,-0.01 -0.02,-0.01 -0.01,-0 -0.02,-0 -0.02,-0 -0.01,-0 -0.02,-0 -0.02,-0l-0.02 -0 -0.02 -0c-0.01,-0 -0.02,0 -0.02,0 -0.01,-0 -0.02,0 -0.02,0 -0.01,0 -0.02,0 -0.02,0 -0.01,0 -0.02,0 -0.02,0 -0.01,0 -0.02,0 -0.02,0l-0.01 0 -0.01 0 -0.01 0 -0.01 0 -0.01 0 -0.01 0 -0.01 0 -0.01 0 -0.01 0 -0.01 0 -0.01 0 -0.01 0.01 -0.01 0 -0.01 0.01 -0.01 0.01 -0.01 0.01 -0.01 0.01c-0.01,0.01 -0.01,0.01 -0.01,0.01l-0.01 0.01c-0.01,0.01 -0.01,0.01 -0.01,0.01 -0.01,0.01 -0.01,0.01 -0.01,0.01 -0.01,0.01 -0.01,0.01 -0.01,0.01 -0.01,0.01 -0.01,0.01 -0.01,0.01 -0.01,0.01 -0.01,0.01 -0.01,0.01 -0,0.01 -0.01,0.01 -0.01,0.01 -0,0.01 -0.01,0.01 -0.01,0.01 -0,0.01 -0.01,0.02 -0.01,0.02 -0,0.01 -0.01,0.02 -0.01,0.02l-0.01 0.02 -0.01 0.02c-0,0.01 -0.01,0.02 -0.01,0.02l-0 0.02c-0,0.01 -0,0.02 -0,0.02 -0,0.01 -0,0.02 -0,0.02 -0,0.01 -0,0.02 -0,0.02 -0,0.01 -0,0.02 -0,0.02 0,0.01 0,0.02 0,0.02 0,0.01 0,0.02 0,0.02 0,0.01 0,0.02 0,0.02 0,0.01 0,0.02 0,0.02 0,0.01 0.01,0.02 0.01,0.02l0 0.01 0 0.01 0 0.01 0 0.01 0 0.01 0 0.01 0 0.01 0 0.01 0.01 0.01 0 0.01 0.01 0.01 0.01 0.01 0.01 0.01 0.01 0.01 0.01 0.01 0.01 0.01c0.01,0.01 0.01,0.01 0.01,0.01 0.01,0.01 0.01,0.01 0.01,0.01 0.01,0.01 0.01,0.01 0.01,0.01 0.01,0.01 0.01,0.01 0.01,0.01 0.01,0.01 0.01,0.01 0.01,0.01 0.01,0.01 0.01,0.01 0.01,0.01l0.01 0.01c0.01,0 0.7,0.44 0.7,0.44l0.63 0.38 0.57 0.32 0.26 0.14 0.26 0.13 0.24 0.12 0.24 0.11 0.22 0.09 0.22 0.09 0.25 0.09 0.25 0.08 0.19 0.06 0.19 0.05 0.18 0.04 0.18 0.04 0.17 0.03 0.17 0.02 0.16 0.02 0.16 0.01 0.16 0.01 0.31 0.01 0.28 0 0.16 -0 0.16 -0.01 0.17 -0.01 0.17 -0.02 0.17 -0.02 0.17 -0.03 0.09 -0.02 0.09 -0.02 0.09 -0.02 0.09 -0.02 0.09 -0.02 0.09 -0.03 0.09 -0.03 0.09 -0.03 0.1 -0.03 0.1 -0.04 0.1 -0.04 0.1 -0.04 0.1 -0.04 0.1 -0.05 0.2 -0.1 0.21 -0.11 0.21 -0.12 0.22 -0.13 0.22 -0.14 0.23 -0.16 0.23 -0.17 0.25 -0.19 0.24 -0.19 0.26 -0.22 0.26 -0.22c0.01,-0.01 0.01,-0.01 0.01,-0.01l0.01 -0.01c0.01,-0.01 0.01,-0.01 0.01,-0.01 0.01,-0.01 0.01,-0.01 0.01,-0.01 0.01,-0.01 0.01,-0.01 0.01,-0.01 0.01,-0.01 0.01,-0.02 0.01,-0.02 0.01,-0.01 0.01,-0.02 0.01,-0.02 0,-0.01 0.01,-0.02 0.01,-0.02 0,-0.01 0.01,-0.02 0.01,-0.02 0,-0.01 0.01,-0.02 0.01,-0.02 0,-0.01 0.01,-0.02 0.01,-0.02l0.01 -0.02c0,-0.01 0.01,-0.02 0.01,-0.02l0 -0.02 0 -0.02 0 -0.02 0 -0.02c0,-0.01 -0,-0.02 -0,-0.02l-0 -0.02 -0 -0.02c-0,-0.01 -0,-0.02 -0,-0.02 -0,-0.01 -0,-0.02 -0,-0.02 -0,-0.01 -0.01,-0.02 -0.01,-0.02 -0,-0.01 -0.01,-0.02 -0.01,-0.02 -0,-0.01 -0.01,-0.02 -0.01,-0.02 -0,-0.01 -0.01,-0.02 -0.01,-0.02 -0,-0.01 -0.01,-0.02 -0.01,-0.02 -0,-0.01 -0.01,-0.02 -0.01,-0.02 -0.01,-0.01 -0.01,-0.01 -0.01,-0.01l-0.01 -0.01c-0.01,-0.01 -0.01,-0.01 -0.01,-0.01 -0.01,-0.01 -0.01,-0.01 -0.01,-0.01l-0.01 -0.01c-0.01,-0.01 -0.01,-0.01 -0.01,-0.01 -0.01,-0.01 -0.01,-0.01 -0.01,-0.01l-0.01 -0.01c-0.01,-0.01 -0.01,-0.01 -0.01,-0.01 -0.01,-0.01 -0.02,-0.01 -0.02,-0.01 -0.01,-0.01 -0.02,-0.01 -0.02,-0.01 -0.01,-0.01 -0.02,-0.01 -0.02,-0.01 -0.01,-0 -0.02,-0.01 -0.02,-0.01 -0.01,-0 -0.02,-0.01 -0.02,-0.01 -0.01,-0 -0.02,-0.01 -0.02,-0.01 -0.01,-0 -0.02,-0.01 -0.02,-0.01 -0.01,-0 -0.02,-0.01 -0.02,-0.01 -0.01,-0 -0.02,-0 -0.02,-0 -0.01,-0 -0.02,-0 -0.02,-0 -0.01,-0 -0.02,-0 -0.02,-0 -0.01,-0 -0.02,0 -0.02,0 -0.01,0 -0.02,0 -0.02,0 -0.01,0 -0.02,0 -0.02,0 -0.01,0 -0.02,0 -0.02,0 -0.01,0 -0.02,0 -0.02,0l-0.02 0c-0.01,0 -0.02,0.01 -0.02,0.01 -0.01,0 -0.02,0.01 -0.02,0.01 -0.01,0 -0.02,0.01 -0.02,0.01 -0.01,0 -0.02,0.01 -0.02,0.01 -0.01,0 -0.02,0.01 -0.02,0.01l-0.02 0.01 -0.02 0.01c-0.01,0.01 -0.01,0.01 -0.01,0.01 -0.01,0.01 -0.01,0.01 -0.01,0.01 -0.01,0.01 -0.01,0.01 -0.01,0.01l-0.24 0.21 -0.25 0.21 -0.23 0.18 -0.23 0.18 -0.21 0.15 -0.22 0.15 -0.2 0.13 -0.2 0.12 -0.19 0.11 -0.19 0.1 -0.18 0.09 -0.09 0.04 -0.09 0.04 -0.08 0.03 -0.08 0.03 -0.09 0.03 -0.08 0.03 -0.08 0.03 -0.08 0.02 -0.08 0.02 -0.08 0.02 -0.08 0.02 -0.08 0.02 -0.08 0.02 -0.08 0.01 -0.15 0.02 -0.15 0.02 -0.15 0.01 -0.15 0.01 -0.14 0.01 -0.14 0 -0.26 -0 -0.29 -0.01 -0.14 -0.01 -0.14 -0.01 -0.14 -0.02 -0.15 -0.02 -0.15 -0.03 -0.16 -0.03 -0.16 -0.04 -0.17 -0.05 -0.17 -0.05 -0.22 -0.08 -0.22 -0.08 -0.21 -0.08 -0.2 -0.09 -0.23 -0.1 -0.23 -0.11 -0.25 -0.13 -0.25 -0.13 -0.56 -0.31 -0.61 -0.37 -0.68 -0.42zm-3.81 -1.78l0.03 -0.2 0.03 -0.2 0.03 -0.19 0.04 -0.18 0.04 -0.17 0.04 -0.16 0.02 -0.08 0.02 -0.07 0.02 -0.07 0.02 -0.07 0.02 -0.06 0.02 -0.06 0.03 -0.06 0.03 -0.05 0.03 -0.05 0.01 -0.02 0.01 -0.02 0.01 -0.02 0.01 -0.02 0.01 -0.02 0.01 -0.02 0.01 -0.02 0.02 -0.02 0.01 -0.02 0.02 -0.02 0.01 -0.02 0.02 -0.02 0.02 -0.02 0.02 -0.02 0.03 -0.03 0.03 -0.03 0.04 -0.03 0.04 -0.03 0.04 -0.03 0.04 -0.03 0.04 -0.03 0.04 -0.03 0.04 -0.03 0.04 -0.03 0.05 -0.03 0.05 -0.03 0.05 -0.03 0.05 -0.03 0.05 -0.03 0.05 -0.03 0.06 -0.03 0.06 -0.03 0.06 -0.02 0.06 -0.02 0.06 -0.02 0.07 -0.02 0.07 -0.02 0.08 -0.02 0.08 -0.02 0.09 -0.02 0.21 -0.05 0.26 -0.05 0.32 -0.05 0.84 -0.12 5.12 -0.59 1.85 -0.17 0.69 -0.04 0.61 -0.02 0.6 -0.01 0.29 0 0.28 0.01 0.28 0.02 0.26 0.02 0.13 0.01 0.12 0.02 0.12 0.02 0.12 0.02 0.11 0.02 0.11 0.02 0.11 0.03 0.1 0.03 0.1 0.03 0.1 0.03 0.09 0.04 0.09 0.04 0.09 0.04 0.09 0.04 0.09 0.04 0.08 0.05 0.08 0.05 0.08 0.05 0.08 0.06 0.08 0.06 0.08 0.06 0.08 0.06 0.08 0.07 0.08 0.07 0.08 0.07 0.07 0.07 0.07 0.08 0.07 0.08 0.07 0.08 0.07 0.09 0.07 0.09 0.06 0.09 0.06 0.1 0.06 0.1 0.03 0.05 0.03 0.05 0.03 0.05 0.03 0.05 0.03 0.05 0.02 0.06 0.02 0.06 0.02 0.06 0.02 0.06 0.02 0.06 0.02 0.06 0.02 0.06 0.04 0.12 0.03 0.13 0.03 0.13 0.03 0.14 0.02 0.14 0.02 0.15 0.01 0.16 0.01 0.16 0.01 0.17 0 0.18 -0 0.18 -0.01 0.19 -0.01 0.2 -0.01 0.2 -0.02 0.21 -0.02 0.21 -0.06 0.44 -0.07 0.45 -0.04 0.23 -0.05 0.23 -0.05 0.23 -0.06 0.23 -0.06 0.22 -0.06 0.22 -0.07 0.22 -0.07 0.21 -0.08 0.21 -0.08 0.2 -0.09 0.19 -0.09 0.19 -0.09 0.18 -0.1 0.18 -0.1 0.17 -0.1 0.17 -0.11 0.16 -0.11 0.16 -0.11 0.15 -0.11 0.15 -0.11 0.15 -0.11 0.14 -0.12 0.14 -0.12 0.13 -0.12 0.13 -0.12 0.12 -0.12 0.12 -0.12 0.12 -0.13 0.11 -0.13 0.11 -0.13 0.1 -0.13 0.1 -0.14 0.1 -0.14 0.09 -0.14 0.09 -0.14 0.09 -0.15 0.08 -0.15 0.08 -0.16 0.07 -0.16 0.07 -0.17 0.07 -0.17 0.06 -0.17 0.06 -0.18 0.06 -0.18 0.05 -0.19 0.05 -0.2 0.05 -0.2 0.04 -0.21 0.04 -0.21 0.03 -0.22 0.03 -0.23 0.02 -0.23 0.02 -0.24 0.01 -0.25 0.01 -0.25 0 -0.26 -0 -0.27 -0.01 -0.27 -0.02 -0.28 -0.02 -0.28 -0.03 -0.28 -0.03 -0.28 -0.04 -0.29 -0.05 -0.29 -0.05 -0.28 -0.06 -0.28 -0.06 -0.28 -0.07 -0.28 -0.08 -0.27 -0.08 -0.27 -0.09 -0.26 -0.09 -0.25 -0.1 -0.24 -0.11 -0.12 -0.06 -0.12 -0.06 -0.11 -0.06 -0.11 -0.06 -0.11 -0.06 -0.11 -0.07 -0.11 -0.07 -0.11 -0.07 -0.11 -0.07 -0.1 -0.07 -0.1 -0.07 -0.1 -0.08 -0.1 -0.08 -0.1 -0.08 -0.09 -0.08 -0.09 -0.08 -0.09 -0.08 -0.09 -0.09 -0.09 -0.09 -0.09 -0.09 -0.08 -0.09 -0.08 -0.09 -0.08 -0.1 -0.08 -0.1 -0.08 -0.1 -0.08 -0.1 -0.07 -0.1 -0.07 -0.11 -0.07 -0.11 -0.07 -0.11 -0.13 -0.22 -0.13 -0.23 -0.12 -0.23 -0.11 -0.24 -0.11 -0.24 -0.1 -0.24 -0.1 -0.24 -0.09 -0.24 -0.08 -0.24 -0.08 -0.23 -0.07 -0.23 -0.13 -0.43 -0.1 -0.4 -0.04 -0.19 -0.04 -0.17 -0.03 -0.17 -0.03 -0.16 -0.02 -0.15 -0.02 -0.14 -0.01 -0.14 -0.01 -0.13 -0.01 -0.12 -0 -0.12 0 -0.11 0 -0.11 0.01 -0.11 0.01 -0.1 0.02 -0.2z"
       id="path14" /><path
       class="fil2"
       d="M8.57 36.18l-3.94 -0.45c-1.4,-2.95 -5.7,-10.77 -4.39,-14.74 0.68,-2.07 1.75,-2.61 3.7,-3.41 6.14,-2.51 12.15,-4.76 18.67,-5.94 6.01,-1.09 11.82,-1.82 17.84,-0.75 7.5,1.34 15.73,4.38 20.23,10.92 2.42,3.52 1.4,6.33 0.03,10.09l-0.67 1.76c-4.68,-8.36 -7.32,-13.01 -16.55,-16.25 -6.52,-2.29 -17.02,-2.05 -23.6,-0.44 -1.48,0.36 -7.24,1.82 -8.13,3.59 -0.37,0.74 -1.13,4.21 -1.23,5.51 -0.32,4.27 1.85,4.26 0.61,6.15l-2.58 3.96z"
       id="path16" /><path
       class="fil2"
       d="M34.19 40.73c0.29,-2.32 0.91,-2.56 3.6,-2.9 1.64,-0.21 8.41,-1.19 10.69,-0.66 4.28,0.99 2.91,7.79 0.31,10.51 -2.73,2.87 -7.97,2.34 -10.74,0.81 -2.38,-1.31 -3.78,-4.5 -3.9,-6.88l0.04 -0.88zm-22.08 -2.92c-2.04,2.77 -2.08,9.48 1.86,11.24 2.24,1 5.89,1.47 8.16,0.37 3.88,-1.88 7.46,-8.59 4.81,-10.72 -2.79,-2.24 -10.54,-2.33 -13.33,-1.75 -0.7,0.14 -1.08,0.32 -1.5,0.87zm-7.57 1.53c1.6,-0.16 3.39,-0.56 4.14,0.41 0.87,1.13 0.08,5.39 3.22,8.95 2.19,2.48 7.92,3.41 10.73,1.8 2.91,-1.67 4.12,-2.65 5.46,-5.76 0.42,-0.98 1.17,-3.69 2.27,-3.96 1.09,-0.27 2.19,0.32 2.51,1.63 0.76,3.09 2.77,7.58 6.17,8.43 3.04,0.76 7.62,0.68 10.25,-1.57 2.18,-1.85 2.55,-4.92 3.12,-7.46 0.93,-4.09 3.82,-3.52 6.88,-5.38 0.91,-0.55 1.08,-1.31 0.88,-2.36l-0.13 -0.42c-2.25,0.13 -2.52,2.52 -6.31,2.18 -4.06,-0.36 -4.43,-0.32 -9.32,-0.25 -2.28,0.03 -5.88,0.21 -8.1,1.01 -3.45,1.25 -2.74,1.21 -6.26,1.08 -3.42,-0.12 -2.93,-2.19 -13.44,-2.27 -4.5,-0.03 -4.92,1.11 -8.45,0.73 -0.92,-0.1 -3.67,-0.62 -4.34,-0.28 -0.64,0.32 -0.17,2.2 0.53,3.22l0.18 0.25z"
       id="path18" /><path
       class="fil2"
       d="M56.66 54.39c0.73,4.97 -0.12,10.07 -2.06,14.69 -2.12,5.05 -8.28,11.39 -12.45,14.68 -1.19,0.94 -4.95,4.01 -6.58,4.7 -2.13,0.9 -4.41,0.68 -6.67,0.62 -2.58,-0.06 -5.6,-0.98 -7.56,-2.7 -3.71,-3.25 -4.38,-3.59 -7.57,-8.03 -3.08,-4.29 -2.2,-4.03 -3.89,-8.45 -2.28,-5.98 -3.72,-8.83 -4.51,-15.29l-0.17 -1.74 -0.67 -10.29 0.01 -3.25 -0.03 -0.28 2.92 -0.14 -0.06 0.24c-0.78,5.27 -0.69,16.72 1,22 1.32,4.12 3.98,8.54 7.06,11.6 1.94,1.93 5.57,5.51 8.5,6.16 2.78,0.61 4.94,-0.33 7.47,-0.04 3.27,0.37 3.96,0.61 7.38,-0.83 2.43,-1.02 5.79,-2.6 7.62,-4.64 2.09,-2.34 5,-4.99 6.51,-7.18 1.35,-1.95 1.54,-3.61 1.82,-5.93 0.48,-4.08 0.34,-3.7 0.97,-7.24 0.46,-2.6 0.82,-6.18 0.72,-8.86 -0.1,-2.68 -0.26,-3.72 -0.2,-6.37l0.01 -0.1 2.24 -0.94 -0.03 0.1c-0.61,2.84 -0.53,5.58 -0.44,8.43 0.06,1.94 -0.37,4.15 -0.8,6.02 -0.4,1.75 -0.45,1.31 -0.53,3.06z"
       id="path20" /><path
       class="fil2"
       d="M23.51 40.81c-2.55,-0.52 -4.39,-0.36 -6.86,0.88 -0.41,0.21 -3.51,2.17 -0.92,1.7 1.45,-0.26 1.28,0.34 2.49,-0.99 0.18,-0.19 0.97,-0.73 0.81,0.09 -0.28,1.44 -0.29,1.99 1.93,2.01 1.54,0.02 1.86,-0.79 1.73,-2.05 -0.08,-0.74 2.03,-1.25 1.93,0.66 -0.1,1.77 0.08,1.55 0.9,0.15 0.44,-0.75 0.32,-2.05 -1.06,-2.3l-0.96 -0.15z"
       id="path22" /><path
       class="fil2"
       d="M38 42.51c3.64,2.29 6.17,3.34 9.7,0.31 0.86,-0.74 0.98,0.11 0.74,0.34 -3.56,3.34 -7.06,2.63 -10.85,-0.04 -0.38,-0.27 0.01,-0.87 0.41,-0.61z"
       id="path24" /><path
       class="fil3"
       d="M60.05 33.66c1.25,-3.31 3.11,-7.14 1.37,-10.63 -2.03,-4.07 -7.26,-7.69 -11.32,-9.38 -5.49,-2.29 -12.01,-3.63 -18.02,-3.24 -5.82,0.38 -12.74,1.6 -18.36,3.49 -1.78,0.6 -10.54,3.64 -12.06,4.86 -0.81,0.64 -1.18,1.47 -1.48,2.43 0.9,-4.26 4.1,-9.06 7.46,-11.78 4.81,-3.9 11.78,-7.35 17.95,-8.66 9.8,-2.08 15.67,0.31 23.89,5.85 6.16,4.15 13.8,10.18 14.36,18.32 0.25,3.61 -1.56,6.07 -3.78,8.74z"
       id="path26" /><path
       class="fil4"
       d="M53.17 23.24c2.95,3.1 4.79,6.67 6.89,10.42 -2.07,0.12 -2.66,2.33 -5.79,2.22 0.16,-4.76 0.14,-8.09 -1.1,-12.63z"
       id="path28" /><path
       class="fil4"
       d="M28.59 57.58l0.01 0 -0.63 -0.55c-0.46,-0.6 -1.49,-2.4 -3.15,-1.35 -0.68,0.43 -0.67,1.43 1.1,1.56 1.18,0.09 1.56,0.04 2.66,0.33z"
       id="path30" /><path
       class="fil4"
       d="M21.01 60.79c-3.29,0.61 -6.66,5.33 -1.84,5.16 1.42,-0.05 2.53,-0.53 4.32,-0.48l2.91 0.08 3.32 -0.06c4.32,-0 4.28,0.13 8.68,-0.31 0.6,-0.06 4.34,-0.33 4.95,-0.67 0.99,-0.56 2.03,-2.91 -1.18,-3.18 -2.41,-0.21 -1.64,2.32 -8.74,2.43 -1.32,0.02 -8.74,0.1 -10,-0.78 -1.12,-0.78 -1.15,-2.4 -2.4,-2.21z"
       id="path32" /><path
       class="fil5"
       d="M52.21 73.24c-4.53,6.1 -8.69,9.67 -14.83,14.16 -2.78,2.03 -5.1,1.77 -8.48,1.69 -2.57,-0.06 -5.6,-0.98 -7.56,-2.7 -3.45,-3.03 -3.85,-3.06 -6.9,-7.13 -3.07,-4.09 -2.83,-4.25 -4.29,-8.63 1.28,4.18 0.08,12.9 -0.71,17.09 4.49,4.21 8.95,8.34 15.14,9.1 5,0.61 13.28,0.67 18.13,-1.56 2.85,-1.31 5.07,-3.14 7.39,-5.21 -0,-4.31 -0.47,-12.7 2.1,-16.82z"
       id="path34" /><path
       class="fil5"
       d="M25.33 48.75c-1.05,0.85 -2.85,2.03 -4.25,2.34 -2.99,0.67 -7.5,-0.21 -9.46,-2.73l-1.04 -1.67c-0.89,3.79 -1.29,6.18 0.76,9.4 2.08,3.27 0.76,1.2 2.7,5.05 0.94,1.87 2.01,1.43 3.63,-0.21l1.22 -1.41 5.19 -7.01c0.83,-1.17 1.39,-2.32 1.25,-3.77z"
       id="path36" /><path
       class="fil5"
       d="M23.65 67.58c-0.76,-2.47 -6.76,-2.01 -5.31,0.46 0.82,1.4 1.56,1.5 1.86,3.51 0.31,2.11 0.6,4.44 3.83,4.29 1.67,-0.08 5.67,-1 2.81,-3.43 -2.63,-2.23 -2.59,-1.79 -3.12,-4.55l-0.07 -0.28z"
       id="path38" /><path
       class="fil5"
       d="M28.53 43.67c0.9,3.89 0.29,4.91 0.14,9.03 -0.11,3.13 1.03,2.65 3.51,3.99 1.55,0.84 2.74,-1.04 4.23,-1.12 1.2,-0.06 2.07,-0.25 1.05,-2.06 -0,-0 -2.31,-3.25 0.64,-1.09 1.43,1.04 7.2,6.09 7.81,8.25 0.49,1.73 -1.08,5.12 -3.03,5.28 -1.22,0.1 -2.58,-0.45 -5.1,-0.2 -0.35,0.03 -4.85,0.36 -5.6,0.85 -0.75,0.49 -0.17,1.59 0.84,2.25 2.52,1.65 2.61,1.66 0.5,3.87 -2.31,2.43 2.94,3.93 7.27,-0.36 2.42,-2.4 4.47,-5.47 7.13,-7.66 0.19,-0.16 6.54,-5.01 6.97,-6.16l0.44 -3.6c0.64,-3.65 1.21,-6.97 1.07,-10.73 -0.1,-2.68 -0.26,-3.73 -0.2,-6.37 -3.41,1.34 -3.41,2.35 -4.17,5.94 -0.46,2.18 -1.27,4.4 -3.09,5.79 -2.59,1.98 -7.29,2.02 -10.1,1.24 -3.25,-0.9 -5.25,-5.39 -5.98,-8.38 -0.43,-1.73 -2.43,-2.31 -3.33,-0.96l-1.01 2.21z"
       id="path40" /><path
       class="fil5"
       d="M15.52 35.42c-1.15,-3.36 -1.41,-4.84 0.62,-7.93 2.22,-3.38 6.27,-4.87 10.01,-5.86 4.66,-1.24 11.1,-1.1 15.73,-0.52 5.77,0.72 8.23,3.11 11.07,8.32l1.39 2.74 -0.08 3.71 -4.18 -0.3c-3.19,-0.04 -10.37,-0.21 -13.77,1.03 -3.45,1.25 -2.74,1.21 -6.26,1.08 -3.51,-0.12 -3.31,-2.42 -14.54,-2.26z"
       id="path42" /><path
       class="fil5"
       d="M4.54 39.34l-0.01 3.25 0.67 10.29 0.62 4.59c-1.82,-2.24 -2.9,-4.82 -4.02,-7.49 -1.19,-2.83 -1.49,-8.88 -0.27,-10.97 0.48,-0.81 1.61,-0.6 2.47,-0.5l0.53 0.83z"
       id="path44" /><path
       class="fil5"
       d="M58.43 36.88c-0.61,2.81 -0.52,5.61 -0.44,8.43 0.08,2.58 -0.68,5.53 -1.28,7.98 1.55,-1.12 3,-3.26 3.7,-5.14 0.81,-2.16 2.29,-8.71 1.44,-10.9 -0.4,-1.03 -2.07,-1.14 -2.4,-0.91l-1.02 0.53z"
       id="path46" /><path
       class="fil6"
       d="M54.35 32.16c-2.8,-5.64 -5.07,-9.93 -11.5,-10.92 -4.31,-0.67 -11.45,-0.87 -15.9,0.19 -3.84,0.91 -8.33,2.48 -10.66,5.85 -1.5,2.17 -2.03,3.86 -1.37,6.27l0.6 1.87c-3.32,0.12 -3.84,0.97 -6.95,0.76l2.91 -4.57c0.56,-1.51 -2.34,-1.9 -0.07,-9.87 0.35,-1.21 0.38,-1.5 1.55,-2.27 3.29,-2.17 11.06,-3.45 14.87,-3.64 4.99,-0.25 11.34,-0.04 16.13,1.76 3.23,1.21 6.36,2.9 8.85,5.32 0.49,0.47 0.44,0.61 0.66,1.53 0.64,2.65 0.82,5 0.87,7.73z"
       id="path48" /><path
       class="fil6"
       d="M28.59 57.58c-1.65,-0.44 -4.37,-0.03 -4.17,-1.36 0.1,-0.66 1.85,-1.53 3.07,0.13 0.36,0.5 0.58,0.93 1.11,1.23 -0,0 -0.02,-0 -0.02,-0zm-7.58 3.21c1.56,-0.25 1.01,2.16 3.55,2.6 2.23,0.39 10.12,0.68 12.87,-0.06 2.79,-0.75 3.6,-2.99 6.2,-1.56 1.47,0.81 0.35,2.71 -0.85,2.93 -1.69,0.31 -7.8,0.85 -10.05,0.84l-3.02 -0.05 -4.3 0.06c-4.29,-0.09 -1.4,-0.21 -5.58,0.34 -5.3,0.7 -2.88,-4.05 0.98,-5.06l0.2 -0.05zm2.64 6.79c0.44,1.62 0,2.18 1.82,3.71 1.28,1.08 4.71,3.25 -0.09,4.36 -2.78,0.64 -4.63,-0.17 -5.06,-3.14 -0.42,-2.91 -0.35,-2.06 -1.85,-4.26 -1.83,-2.68 4.41,-3.17 5.18,-0.67zm1.68 -18.83c0.18,1.73 -0.67,2.99 -1.65,4.33l-5.4 7.21c-1.05,1.23 -2.86,3.15 -3.99,1.31 -0.69,-1.12 -1.19,-2.77 -2.12,-4.23 -2.05,-3.22 -2.77,-4.31 -2.04,-8.53l0.45 -2.13 -0.89 -2.2c-0.94,-3.09 0.06,-5.18 -2.32,-5.34 -0.79,5.28 -0.69,16.7 1,22 1.32,4.11 3.98,8.54 7.06,11.6 1.95,1.94 5.57,5.5 8.5,6.16 2.76,0.62 4.94,-0.33 7.47,-0.04 3.27,0.37 3.96,0.61 7.38,-0.83 2.44,-1.02 5.79,-2.6 7.62,-4.64 2.09,-2.34 4.99,-4.99 6.51,-7.17 1.63,-2.36 1.71,-4.9 2,-7.7 -1.98,2.77 -6.42,5.21 -9.23,8.32 -1.61,1.78 -4.5,5.63 -6.8,7.06 -3.43,2.13 -7.45,1.01 -5.35,-1.2 2.26,-2.37 1.89,-2.22 -0.66,-3.97 -0.9,-0.62 -1.97,-2.07 0.36,-2.47 1.19,-0.2 5.08,-0.7 6.72,-0.57 2.66,0.2 4.15,1.12 5.69,-2.57 1.15,-2.76 -0.65,-4.29 -2.88,-6.51 -0.04,-0.04 -6.12,-6 -6.19,-4.77 -0.03,0.51 2.71,3.55 0.38,3.71 -2.37,0.16 -1.72,0.83 -3.57,1.3 -0.92,0.23 -1.15,-0.23 -2.08,-0.61 -2.2,-0.91 -2.8,-0.95 -2.61,-4.01 0.23,-3.74 0.65,-5.05 -0.17,-8.55 -0.82,2.03 -1.54,3.65 -3.21,5.08z"
       id="path50" /></g></svg>