<?xml version="1.0" encoding="UTF-8" standalone="no"?>
<!-- Creator: CorelDRAW 2017 -->

<svg
   xmlns:dc="http://purl.org/dc/elements/1.1/"
   xmlns:cc="http://creativecommons.org/ns#"
   xmlns:rdf="http://www.w3.org/1999/02/22-rdf-syntax-ns#"
   xmlns:svg="http://www.w3.org/2000/svg"
   xmlns="http://www.w3.org/2000/svg"
   xmlns:sodipodi="http://sodipodi.sourceforge.net/DTD/sodipodi-0.dtd"
   xmlns:inkscape="http://www.inkscape.org/namespaces/inkscape"
   xml:space="preserve"
   width="8.7228mm"
   height="9.3428mm"
   version="1.1"
   style="shape-rendering:geometricPrecision; text-rendering:geometricPrecision; image-rendering:optimizeQuality; fill-rule:evenodd; clip-rule:evenodd"
   viewBox="0 0 1093.3 1171.01"
   id="svg2"
   inkscape:version="0.91 r13725"
   sodipodi:docname="calibration_color.svg"><metadata
     id="metadata16"><rdf:RDF><cc:Work
         rdf:about=""><dc:format>image/svg+xml</dc:format><dc:type
           rdf:resource="http://purl.org/dc/dcmitype/StillImage" /></cc:Work></rdf:RDF></metadata><sodipodi:namedview
     pagecolor="#ffffff"
     bordercolor="#666666"
     borderopacity="1"
     objecttolerance="10"
     gridtolerance="10"
     guidetolerance="10"
     inkscape:pageopacity="0"
     inkscape:pageshadow="2"
     inkscape:window-width="1187"
     inkscape:window-height="872"
     id="namedview14"
     showgrid="false"
     inkscape:zoom="7.1289596"
     inkscape:cx="8.8609526"
     inkscape:cy="16.552205"
     inkscape:window-x="0"
     inkscape:window-y="0"
     inkscape:window-maximized="0"
     inkscape:current-layer="svg2" /><defs
     id="defs4"><style
       type="text/css"
       id="style6"><![CDATA[
    .fil1 {fill:#EC691F}
    .fil0 {fill:black}
    .fil2 {fill:white}
   ]]></style></defs><rect
     class="fil0"
     x="-13596.67"
     y="-4038.55"
     width="26321.06"
     height="37225.5"
     id="rect8"
     style="opacity:0" /><g
     id="Layer_x0020_1"><metadata
       id="CorelCorpID_0Corel-Layer" /><polygon
       id="iconmonstr-ruler-22.svg"
       class="fil1"
       points="273.61,780.87 273.61,351.31 429.84,351.31 214.91,64.94 -0,351.59 156.5,351.59 156.5,819.7 -0,819.7 214.91,1106.36 430.11,819.7 273.61,819.7 " /><path
       id="iconmonstr-ruler-22.svg_0"
       class="fil2"
       d="M1093.3 0l-390.43 0 0 1171.01 390.43 0 0 -1171.01zm-292.88 1073.47l0 -97.54 97.54 0 0 -48.77 -97.54 0 0 -97.54 146.29 0 0 -48.76 -146.29 0 0 -97.55 97.54 0 0 -48.76 -97.54 0 0 -97.54 97.54 0 0 -48.77 -97.54 0 0 -97.54 146.29 0 0 -48.76 -146.29 0 0 -97.55 97.54 0 0 -48.76 -97.54 0 0 -97.54 195.06 0 0 975.93 -195.06 0 0 -0.58z" /></g></svg>