<?xml version="1.0" encoding="UTF-8" standalone="no"?>
<!-- Creator: CorelDRAW 2017 -->

<svg
   xmlns:dc="http://purl.org/dc/elements/1.1/"
   xmlns:cc="http://creativecommons.org/ns#"
   xmlns:rdf="http://www.w3.org/1999/02/22-rdf-syntax-ns#"
   xmlns:svg="http://www.w3.org/2000/svg"
   xmlns="http://www.w3.org/2000/svg"
   xmlns:sodipodi="http://sodipodi.sourceforge.net/DTD/sodipodi-0.dtd"
   xmlns:inkscape="http://www.inkscape.org/namespaces/inkscape"
   xml:space="preserve"
   width="11.9488mm"
   height="9.9548mm"
   version="1.1"
   style="shape-rendering:geometricPrecision; text-rendering:geometricPrecision; image-rendering:optimizeQuality; fill-rule:evenodd; clip-rule:evenodd"
   viewBox="0 0 103.46 86.2"
   id="svg2"
   inkscape:version="0.91 r13725"
   sodipodi:docname="control_color.svg"><metadata
     id="metadata21"><rdf:RDF><cc:Work
         rdf:about=""><dc:format>image/svg+xml</dc:format><dc:type
           rdf:resource="http://purl.org/dc/dcmitype/StillImage" /></cc:Work></rdf:RDF></metadata><sodipodi:namedview
     pagecolor="#ffffff"
     bordercolor="#666666"
     borderopacity="1"
     objecttolerance="10"
     gridtolerance="10"
     guidetolerance="10"
     inkscape:pageopacity="0"
     inkscape:pageshadow="2"
     inkscape:window-width="1384"
     inkscape:window-height="1013"
     id="namedview19"
     showgrid="false"
     inkscape:zoom="6.6906866"
     inkscape:cx="14.144444"
     inkscape:cy="17.636456"
     inkscape:window-x="0"
     inkscape:window-y="0"
     inkscape:window-maximized="0"
     inkscape:current-layer="svg2" /><defs
     id="defs4"><style
       type="text/css"
       id="style6"><![CDATA[
    .fil2 {fill:#EC691F}
    .fil0 {fill:black}
    .fil1 {fill:white}
   ]]></style></defs><rect
     class="fil0"
     x="-311.74"
     y="-268.83"
     width="1818.36"
     height="2571.68"
     id="rect8"
     style="opacity:0" /><g
     id="Layer_x0020_1"><metadata
       id="CorelCorpID_0Corel-Layer" /><path
       id="iconmonstr-gamepad-4.svg"
       class="fil1"
       d="M90.58 60.34c0,-2.39 -1.95,-4.3 -4.3,-4.3 -2.39,0 -4.29,1.95 -4.29,4.3 0,2.39 1.95,4.29 4.29,4.29 2.39,0 4.3,-1.95 4.3,-4.29z" /><path
       id="iconmonstr-gamepad-4.svg_0"
       class="fil1"
       d="M81.95 68.98c0,-2.39 -1.95,-4.29 -4.29,-4.29 -2.39,0 -4.29,1.95 -4.29,4.29 0,2.39 1.95,4.29 4.29,4.29 2.39,0 4.29,-1.95 4.29,-4.29z" /><path
       id="iconmonstr-gamepad-4.svg_1"
       class="fil1"
       d="M73.32 60.34c0,-2.39 -1.95,-4.3 -4.3,-4.3 -2.39,0 -4.29,1.95 -4.29,4.3 0,2.39 1.95,4.29 4.29,4.29 2.39,0 4.3,-1.95 4.3,-4.29z" /><path
       id="iconmonstr-gamepad-4.svg_2"
       class="fil2"
       d="M73.32 51.71c0,2.39 1.95,4.29 4.29,4.29 2.39,0 4.29,-1.95 4.29,-4.29 0,-2.39 -1.95,-4.29 -4.29,-4.29 -2.39,0 -4.29,1.95 -4.29,4.29z" /><polygon
       id="iconmonstr-gamepad-4.svg_4"
       class="fil2"
       points="38.83,56.05 30.24,56.05 30.24,47.42 21.6,47.42 21.6,56.05 12.97,56.05 12.97,64.68 21.6,64.64 21.6,73.27 30.24,73.27 30.24,64.64 38.83,64.64 " /><path
       id="iconmonstr-gamepad-4.svg_5"
       class="fil1"
       d="M25.15 34.49l54.14 0.04c13.46,0.49 24.17,11.87 24.17,25.81 0,14.26 -11.24,25.86 -25.1,25.86 -6.51,0 -12.44,-2.57 -16.91,-6.73 -2.75,-2.57 -6.15,-3.81 -9.56,-3.81 -3.63,0 -7.22,1.37 -10.05,3.94 -4.43,4.07 -10.32,6.6 -16.73,6.6 -13.86,0 -25.1,-11.6 -25.1,-25.86 0,-14.26 11.24,-25.86 25.1,-25.86l0 0 0.05 0zm0 8.63c-9.08,0 -16.47,7.75 -16.47,17.22 0,9.52 7.39,17.22 16.47,17.22 3.98,0 7.88,-1.51 10.89,-4.3 4.38,-4.03 10.01,-6.24 15.89,-6.24 5.75,0 11.24,2.17 15.45,6.15 3.06,2.83 6.95,4.43 11.02,4.43 9.08,0 16.47,-7.75 16.47,-17.22 0,-9.25 -6.91,-16.82 -15.76,-17.22l-53.97 0 0 -0.04z" /><path
       id="iconmonstr-gamepad-4.svg_6"
       class="fil1"
       d="M25.9 -0l5.05 0.88c-1.55,9.7 3.41,10.85 11.64,12.4 6.33,1.2 13.5,2.7 13.5,14.17l0 2.74 -5.09 0 0 -2.74c0,-6.73 -2.08,-7.79 -9.34,-9.16 -11.16,-2.08 -17.66,-5.98 -15.76,-18.29l0 0z" /></g></svg>