<?xml version="1.0" encoding="UTF-8" standalone="no"?>
<!-- Creator: CorelDRAW 2017 -->

<svg
   xmlns:dc="http://purl.org/dc/elements/1.1/"
   xmlns:cc="http://creativecommons.org/ns#"
   xmlns:rdf="http://www.w3.org/1999/02/22-rdf-syntax-ns#"
   xmlns:svg="http://www.w3.org/2000/svg"
   xmlns="http://www.w3.org/2000/svg"
   xmlns:sodipodi="http://sodipodi.sourceforge.net/DTD/sodipodi-0.dtd"
   xmlns:inkscape="http://www.inkscape.org/namespaces/inkscape"
   xml:space="preserve"
   width="9.161mm"
   height="9.161mm"
   version="1.1"
   style="shape-rendering:geometricPrecision; text-rendering:geometricPrecision; image-rendering:optimizeQuality; fill-rule:evenodd; clip-rule:evenodd"
   viewBox="0 0 62.09 62.09"
   id="svg2"
   inkscape:version="0.91 r13725"
   sodipodi:docname="lan_color.svg"><metadata
     id="metadata19"><rdf:RDF><cc:Work
         rdf:about=""><dc:format>image/svg+xml</dc:format><dc:type
           rdf:resource="http://purl.org/dc/dcmitype/StillImage" /></cc:Work></rdf:RDF></metadata><sodipodi:namedview
     pagecolor="#ffffff"
     bordercolor="#666666"
     borderopacity="1"
     objecttolerance="10"
     gridtolerance="10"
     guidetolerance="10"
     inkscape:pageopacity="0"
     inkscape:pageshadow="2"
     inkscape:window-width="1149"
     inkscape:window-height="1090"
     id="namedview17"
     showgrid="false"
     inkscape:zoom="7.2704336"
     inkscape:cx="16.505205"
     inkscape:cy="16.230119"
     inkscape:window-x="0"
     inkscape:window-y="0"
     inkscape:window-maximized="0"
     inkscape:current-layer="svg2" /><defs
     id="defs4"><style
       type="text/css"
       id="style6"><![CDATA[
    .fil2 {fill:#EC691F}
    .fil0 {fill:black}
    .fil1 {fill:white}
   ]]></style></defs><rect
     class="fil0"
     x="-253.62"
     y="-1172.57"
     width="1423.35"
     height="2013.02"
     id="rect8"
     style="opacity:0" /><g
     id="Layer_x0020_1"><metadata
       id="CorelCorpID_0Corel-Layer" /><path
       id="iconmonstr-sitemap-6.svg"
       class="fil1"
       d="M38.79 46.56l-15.53 0 0 15.53 15.53 0 0 -15.53zm-5.19 5.19l0 5.19 -5.19 0 0 -5.19 5.19 0z" /><polygon
       id="iconmonstr-sitemap-6.svg_0"
       class="fil1"
       points="33.64,28.45 33.64,20.68 28.45,20.68 28.45,28.45 5.19,28.45 5.19,41.37 10.34,41.37 10.34,33.64 28.45,33.64 28.45,41.37 33.64,41.37 33.64,33.64 51.75,33.64 51.75,41.37 56.9,41.37 56.9,28.45 " /><path
       id="iconmonstr-sitemap-6.svg_1"
       class="fil1"
       d="M62.09 46.56l-15.53 0 0 15.53 15.53 0 0 -15.53zm-5.19 5.19l0 5.19 -5.19 0 0 -5.19 5.19 0z" /><path
       id="iconmonstr-sitemap-6.svg_2"
       class="fil1"
       d="M15.53 46.56l-15.53 0 0 15.53 15.53 0 0 -15.53zm-5.19 5.19l0 5.19 -5.19 0 0 -5.19 5.19 0z" /><path
       id="iconmonstr-sitemap-6.svg_3"
       class="fil2"
       d="M41.37 0l-20.69 0 0 15.53 20.69 0 0 -15.53zm-5.19 5.19l0 5.19 -10.34 0 0 -5.19 10.34 0z" /></g></svg>