<?xml version="1.0" encoding="UTF-8" standalone="no"?>
<!-- Creator: CorelDRAW 2017 -->

<svg
   xmlns:dc="http://purl.org/dc/elements/1.1/"
   xmlns:cc="http://creativecommons.org/ns#"
   xmlns:rdf="http://www.w3.org/1999/02/22-rdf-syntax-ns#"
   xmlns:svg="http://www.w3.org/2000/svg"
   xmlns="http://www.w3.org/2000/svg"
   xmlns:sodipodi="http://sodipodi.sourceforge.net/DTD/sodipodi-0.dtd"
   xmlns:inkscape="http://www.inkscape.org/namespaces/inkscape"
   xml:space="preserve"
   width="10.0035mm"
   height="10.0035mm"
   version="1.1"
   style="shape-rendering:geometricPrecision; text-rendering:geometricPrecision; image-rendering:optimizeQuality; fill-rule:evenodd; clip-rule:evenodd"
   viewBox="0 0 212.93 212.93"
   id="svg2"
   inkscape:version="0.91 r13725"
   sodipodi:docname="no_color.svg"><metadata
     id="metadata17"><rdf:RDF><cc:Work
         rdf:about=""><dc:format>image/svg+xml</dc:format><dc:type
           rdf:resource="http://purl.org/dc/dcmitype/StillImage" /></cc:Work></rdf:RDF></metadata><sodipodi:namedview
     pagecolor="#ffffff"
     bordercolor="#666666"
     borderopacity="1"
     objecttolerance="10"
     gridtolerance="10"
     guidetolerance="10"
     inkscape:pageopacity="0"
     inkscape:pageshadow="2"
     inkscape:window-width="1212"
     inkscape:window-height="872"
     id="namedview15"
     showgrid="false"
     inkscape:zoom="6.6581141"
     inkscape:cx="10.66368"
     inkscape:cy="17.722736"
     inkscape:window-x="0"
     inkscape:window-y="0"
     inkscape:window-maximized="0"
     inkscape:current-layer="svg2" /><defs
     id="defs4"><style
       type="text/css"
       id="style6"><![CDATA[
    .fil0 {fill:black}
    .fil2 {fill:white}
    .fil1 {fill:white;fill-rule:nonzero}
   ]]></style></defs><rect
     class="fil0"
     x="-2735.16"
     y="-5186.28"
     width="4469.97"
     height="6321.82"
     id="rect8"
     style="opacity:0" /><g
     id="Layer_x0020_1"><metadata
       id="CorelCorpID_0Corel-Layer" /><path
       class="fil1"
       d="M106.43 0c94.5,0 142.14,114.8 75.26,181.68 -66.88,66.88 -181.68,19.25 -181.68,-75.26 0,-58.78 47.65,-106.43 106.43,-106.43zm60.21 46.22c-53.5,-53.5 -145.35,-15.41 -145.35,60.21 0,75.62 91.85,113.7 145.35,60.21 33.25,-33.25 33.25,-87.17 0,-120.41z"
       id="path12" /><polygon
       id="iconmonstr-x-mark-11.svg"
       class="fil2"
       points="150.81,137.85 118.95,106.38 150.4,74.57 137.84,62.12 106.4,93.95 74.58,62.53 62.12,74.99 93.98,106.49 62.52,138.35 74.98,150.81 106.52,118.92 138.36,150.41 150.8,137.85 " /></g></svg>