<?xml version="1.0" encoding="UTF-8" standalone="no"?>
<!-- Creator: CorelDRAW 2017 -->

<svg
   xmlns:dc="http://purl.org/dc/elements/1.1/"
   xmlns:cc="http://creativecommons.org/ns#"
   xmlns:rdf="http://www.w3.org/1999/02/22-rdf-syntax-ns#"
   xmlns:svg="http://www.w3.org/2000/svg"
   xmlns="http://www.w3.org/2000/svg"
   xmlns:sodipodi="http://sodipodi.sourceforge.net/DTD/sodipodi-0.dtd"
   xmlns:inkscape="http://www.inkscape.org/namespaces/inkscape"
   xml:space="preserve"
   width="10.4114mm"
   height="10.4114mm"
   version="1.1"
   style="shape-rendering:geometricPrecision; text-rendering:geometricPrecision; image-rendering:optimizeQuality; fill-rule:evenodd; clip-rule:evenodd"
   viewBox="0 0 114.81 114.81"
   id="svg2"
   inkscape:version="0.91 r13725"
   sodipodi:docname="settings_color.svg"><metadata
     id="metadata16"><rdf:RDF><cc:Work
         rdf:about=""><dc:format>image/svg+xml</dc:format><dc:type
           rdf:resource="http://purl.org/dc/dcmitype/StillImage" /></cc:Work></rdf:RDF></metadata><sodipodi:namedview
     pagecolor="#ffffff"
     bordercolor="#666666"
     borderopacity="1"
     objecttolerance="10"
     gridtolerance="10"
     guidetolerance="10"
     inkscape:pageopacity="0"
     inkscape:pageshadow="2"
     inkscape:window-width="1345"
     inkscape:window-height="975"
     id="namedview14"
     showgrid="false"
     inkscape:zoom="6.3972612"
     inkscape:cx="18.758027"
     inkscape:cy="18.445393"
     inkscape:window-x="0"
     inkscape:window-y="0"
     inkscape:window-maximized="0"
     inkscape:current-layer="svg2" /><defs
     id="defs4"><style
       type="text/css"
       id="style6"><![CDATA[
    .fil1 {fill:#EC691F}
    .fil0 {fill:black}
    .fil2 {fill:white}
   ]]></style></defs><rect
     class="fil0"
     x="-637.34"
     y="-346.51"
     width="2315.81"
     height="3275.22"
     id="rect8"
     style="opacity:0" /><g
     id="Layer_x0020_1"><metadata
       id="CorelCorpID_0Corel-Layer" /><path
       id="iconmonstr-gear-2.svg"
       class="fil1"
       d="M57.41 34.47c-12.66,0 -22.94,10.28 -22.94,22.94 0,12.67 10.28,22.94 22.94,22.94 12.66,0 22.94,-10.28 22.94,-22.94 0,-12.66 -10.28,-22.94 -22.94,-22.94zm0 9.19c7.58,0 13.75,6.18 13.75,13.75 0,7.58 -6.18,13.75 -13.75,13.75 -7.58,0 -13.75,-6.18 -13.75,-13.75 0,-7.58 6.18,-13.75 13.75,-13.75z" /><path
       id="iconmonstr-gear-2.svg_0"
       class="fil2"
       d="M114.81 67.87l0 -20.92c-10.3,-3.69 -13.06,-3.85 -14.47,-7.32 -1.46,-3.47 0.38,-5.58 5.1,-15.45l-14.8 -14.8c-9.7,4.61 -11.93,6.51 -15.45,5.1 -3.47,-1.46 -3.69,-4.23 -7.32,-14.47l-20.92 0c-3.63,10.25 -3.85,13.06 -7.32,14.47 -3.58,1.52 -5.75,-0.49 -15.45,-5.1l-14.8 14.8c4.66,9.81 6.51,11.93 5.1,15.45 -1.46,3.47 -4.23,3.63 -14.47,7.32l0 20.92c10.25,3.63 13.06,3.85 14.47,7.32 1.46,3.52 -0.38,5.58 -5.1,15.45l14.8 14.8c9.6,-4.55 11.82,-6.56 15.45,-5.1 3.47,1.46 3.63,4.23 7.32,14.47l20.92 0c3.63,-10.19 3.85,-13.01 7.37,-14.53 3.58,-1.46 5.69,0.49 15.4,5.1l14.8 -14.8c-4.66,-9.81 -6.51,-11.93 -5.1,-15.45 1.46,-3.47 4.23,-3.63 14.47,-7.32l0 0 0 0.05zm-23.36 3.68c-2.76,6.67 -0.33,11.76 2.33,17.13l-5.2 5.21c-5.26,-2.6 -10.35,-5.15 -17.13,-2.33 -6.67,2.76 -8.57,8.08 -10.46,13.77l-7.32 0c-1.9,-5.69 -3.79,-11 -10.46,-13.77 -6.78,-2.82 -11.98,-0.22 -17.13,2.33l-5.21 -5.21c2.66,-5.37 5.1,-10.46 2.33,-17.13 -2.76,-6.67 -8.08,-8.57 -13.77,-10.46l0 -7.32c5.69,-1.9 11,-3.79 13.77,-10.46 2.76,-6.67 0.33,-11.76 -2.33,-17.13l5.21 -5.2c5.2,2.55 10.35,5.15 17.13,2.33 6.67,-2.76 8.56,-8.08 10.46,-13.77l7.32 0c1.9,5.69 3.79,11 10.46,13.77 6.78,2.82 11.98,0.22 17.13,-2.33l5.2 5.2c-2.66,5.37 -5.1,10.46 -2.33,17.13 2.76,6.67 8.08,8.57 13.77,10.46l0 7.32c-5.69,1.9 -11,3.79 -13.77,10.46l0 0z" /></g></svg>