<?xml version="1.0" encoding="UTF-8" standalone="no"?>
<!-- Creator: CorelDRAW 2017 -->

<svg
   xmlns:dc="http://purl.org/dc/elements/1.1/"
   xmlns:cc="http://creativecommons.org/ns#"
   xmlns:rdf="http://www.w3.org/1999/02/22-rdf-syntax-ns#"
   xmlns:svg="http://www.w3.org/2000/svg"
   xmlns="http://www.w3.org/2000/svg"
   xmlns:sodipodi="http://sodipodi.sourceforge.net/DTD/sodipodi-0.dtd"
   xmlns:inkscape="http://www.inkscape.org/namespaces/inkscape"
   xml:space="preserve"
   width="10.0035mm"
   height="10.0035mm"
   version="1.1"
   style="shape-rendering:geometricPrecision; text-rendering:geometricPrecision; image-rendering:optimizeQuality; fill-rule:evenodd; clip-rule:evenodd"
   viewBox="0 0 76.39 76.39"
   id="svg2"
   inkscape:version="0.91 r13725"
   sodipodi:docname="system_info_color.svg"><metadata
     id="metadata20"><rdf:RDF><cc:Work
         rdf:about=""><dc:format>image/svg+xml</dc:format><dc:type
           rdf:resource="http://purl.org/dc/dcmitype/StillImage" /></cc:Work></rdf:RDF></metadata><sodipodi:namedview
     pagecolor="#ffffff"
     bordercolor="#666666"
     borderopacity="1"
     objecttolerance="10"
     gridtolerance="10"
     guidetolerance="10"
     inkscape:pageopacity="0"
     inkscape:pageshadow="2"
     inkscape:window-width="1340"
     inkscape:window-height="970"
     id="namedview18"
     showgrid="false"
     inkscape:zoom="6.6581141"
     inkscape:cx="25.382563"
     inkscape:cy="17.722736"
     inkscape:window-x="0"
     inkscape:window-y="0"
     inkscape:window-maximized="0"
     inkscape:current-layer="svg2" /><defs
     id="defs4"><style
       type="text/css"
       id="style6"><![CDATA[
    .fil2 {fill:#EC691F}
    .fil0 {fill:black}
    .fil1 {fill:white;fill-rule:nonzero}
   ]]></style></defs><g
     id="Layer_x0020_1"><metadata
       id="CorelCorpID_0Corel-Layer" /><path
       class="fil1"
       d="M38.18 0c33.9,0 50.99,41.19 27,65.18 -24,24 -65.18,6.91 -65.18,-27 0,-21.09 17.1,-38.18 38.18,-38.18zm21.6 16.58c-19.2,-19.19 -52.15,-5.53 -52.15,21.6 0,27.13 32.95,40.79 52.15,21.6 11.93,-11.93 11.93,-31.27 0,-43.2z"
       id="path12" /></g><g
     id="Layer_x0020_1_0"><metadata
       id="CorelCorpID_1Corel-Layer" /><polygon
       id="iconmonstr-info-4.svg"
       class="fil2"
       points="29.92,30.67 29.92,36.99 36.23,36.99 36.23,55.94 42.55,55.94 42.55,30.67 " /><path
       id="iconmonstr-info-4.svg_1"
       class="fil2"
       d="M43.34 21.2c0,2.18 -1.77,3.95 -3.95,3.95 -2.18,0 -3.95,-1.77 -3.95,-3.95 0,-2.18 1.77,-3.95 3.95,-3.95 2.18,0 3.95,1.77 3.95,3.95z" /></g></svg>