<?xml version="1.0" encoding="UTF-8" standalone="no"?>
<!-- Creator: CorelDRAW 2017 -->

<svg
   xmlns:dc="http://purl.org/dc/elements/1.1/"
   xmlns:cc="http://creativecommons.org/ns#"
   xmlns:rdf="http://www.w3.org/1999/02/22-rdf-syntax-ns#"
   xmlns:svg="http://www.w3.org/2000/svg"
   xmlns="http://www.w3.org/2000/svg"
   xmlns:sodipodi="http://sodipodi.sourceforge.net/DTD/sodipodi-0.dtd"
   xmlns:inkscape="http://www.inkscape.org/namespaces/inkscape"
   xml:space="preserve"
   width="10mm"
   height="11.0698mm"
   version="1.1"
   style="shape-rendering:geometricPrecision; text-rendering:geometricPrecision; image-rendering:optimizeQuality; fill-rule:evenodd; clip-rule:evenodd"
   viewBox="0 0 192.31 212.88"
   id="svg2"
   inkscape:version="0.91 r13725"
   sodipodi:docname="turn_off_color.svg"><metadata
     id="metadata18"><rdf:RDF><cc:Work
         rdf:about=""><dc:format>image/svg+xml</dc:format><dc:type
           rdf:resource="http://purl.org/dc/dcmitype/StillImage" /></cc:Work></rdf:RDF></metadata><sodipodi:namedview
     pagecolor="#ffffff"
     bordercolor="#666666"
     borderopacity="1"
     objecttolerance="10"
     gridtolerance="10"
     guidetolerance="10"
     inkscape:pageopacity="0"
     inkscape:pageshadow="2"
     inkscape:window-width="1518"
     inkscape:window-height="1128"
     id="namedview16"
     showgrid="false"
     inkscape:zoom="6.0167701"
     inkscape:cx="18.04894"
     inkscape:cy="19.611851"
     inkscape:window-x="0"
     inkscape:window-y="0"
     inkscape:window-maximized="0"
     inkscape:current-layer="svg2" /><defs
     id="defs4"><style
       type="text/css"
       id="style6"><![CDATA[
    .fil0 {fill:black}
    .fil2 {fill:#EC691F;fill-rule:nonzero}
    .fil1 {fill:white;fill-rule:nonzero}
   ]]></style></defs><g
     id="Layer_x0020_1"><metadata
       id="CorelCorpID_0Corel-Layer" /><path
       class="fil1"
       d="M132.79 27.83c11.77,4.84 22.44,11.99 31.35,20.9 17.38,17.38 28.16,41.48 28.16,67.99 0,26.52 -10.78,50.61 -28.16,67.99 -17.38,17.38 -41.48,28.16 -67.99,28.16 -26.51,0 -50.61,-10.78 -67.99,-28.16 -17.38,-17.38 -28.16,-41.47 -28.16,-67.99 0,-26.51 10.78,-50.61 28.16,-67.99 8.91,-8.91 19.58,-16.06 31.35,-20.9l0 24.2c-5.83,3.3 -11.22,7.37 -15.95,12.1 -13.42,13.42 -21.78,32.01 -21.78,52.59 0,20.57 8.36,39.17 21.78,52.59 13.42,13.42 32.01,21.78 52.59,21.78 20.57,0 39.17,-8.36 52.59,-21.78 13.42,-13.42 21.78,-32.01 21.78,-52.59 0,-20.57 -8.36,-39.17 -21.78,-52.59 -4.73,-4.73 -10.12,-8.8 -15.95,-12.1l0 -24.2 0.01 0z"
       id="path12" /><polygon
       class="fil2"
       points="80.64,84.16 80.64,0 113.42,0 113.42,84.16 "
       id="polygon14" /></g></svg>