<?xml version="1.0" encoding="UTF-8" standalone="no"?>
<!-- Creator: CorelDRAW 2017 -->

<svg
   xmlns:dc="http://purl.org/dc/elements/1.1/"
   xmlns:cc="http://creativecommons.org/ns#"
   xmlns:rdf="http://www.w3.org/1999/02/22-rdf-syntax-ns#"
   xmlns:svg="http://www.w3.org/2000/svg"
   xmlns="http://www.w3.org/2000/svg"
   xmlns:sodipodi="http://sodipodi.sourceforge.net/DTD/sodipodi-0.dtd"
   xmlns:inkscape="http://www.inkscape.org/namespaces/inkscape"
   xml:space="preserve"
   width="9.1522mm"
   height="6.8667mm"
   version="1.1"
   style="shape-rendering:geometricPrecision; text-rendering:geometricPrecision; image-rendering:optimizeQuality; fill-rule:evenodd; clip-rule:evenodd"
   viewBox="0 0 1432.38 1074.68"
   id="svg2"
   inkscape:version="0.91 r13725"
   sodipodi:docname="wifi_on_color.svg"><metadata
     id="metadata17"><rdf:RDF><cc:Work
         rdf:about=""><dc:format>image/svg+xml</dc:format><dc:type
           rdf:resource="http://purl.org/dc/dcmitype/StillImage" /></cc:Work></rdf:RDF></metadata><sodipodi:namedview
     pagecolor="#ffffff"
     bordercolor="#666666"
     borderopacity="1"
     objecttolerance="10"
     gridtolerance="10"
     guidetolerance="10"
     inkscape:pageopacity="0"
     inkscape:pageshadow="2"
     inkscape:window-width="1384"
     inkscape:window-height="992"
     id="namedview15"
     showgrid="false"
     inkscape:zoom="9.699629"
     inkscape:cx="11.368981"
     inkscape:cy="12.165414"
     inkscape:window-x="0"
     inkscape:window-y="0"
     inkscape:window-maximized="0"
     inkscape:current-layer="svg2" /><defs
     id="defs4"><style
       type="text/css"
       id="style6"><![CDATA[
    .fil2 {fill:#EC691F}
    .fil0 {fill:black}
    .fil1 {fill:white}
   ]]></style></defs><rect
     class="fil0"
     x="-16890.82"
     y="-27244.22"
     width="32866.41"
     height="46482.5"
     id="rect8"
     style="opacity:0" /><g
     id="Layer_x0020_1"><metadata
       id="CorelCorpID_0Corel-Layer" /><path
       id="iconmonstr-wireless-1.svg"
       class="fil1"
       d="M142.45 465.73c146.44,-156.05 349.7,-252.07 573.74,-252.07 224.06,0 426.51,96.02 573.74,252.07l142.45 -151.25c-183.25,-194.43 -436.12,-314.48 -716.19,-314.48 -280.07,0 -532.94,120.03 -716.19,314.48l142.45 151.25z" /><path
       id="iconmonstr-wireless-1.svg_0"
       class="fil1"
       d="M385.71 724.2c84.81,-89.63 201.66,-144.85 330.48,-144.85 128.82,0 245.67,55.22 330.48,144.85l139.24 -147.24c-120.03,-127.24 -285.69,-206.46 -468.91,-206.46 -183.25,0 -348.9,78.44 -468.93,206.46l139.24 147.24 0 0 -1.61 0z" /><path
       id="iconmonstr-wireless-1.svg_1"
       class="fil2"
       d="M489.74 834.63c57.61,-61.62 137.65,-99.23 225.67,-99.23 88,0 168.04,37.61 225.65,99.23l-225.65 240.05 -225.67 -240.05z" /></g></svg>