<?xml version="1.0" encoding="UTF-8" standalone="no"?>
<!-- Creator: CorelDRAW 2017 -->

<svg
   xmlns:dc="http://purl.org/dc/elements/1.1/"
   xmlns:cc="http://creativecommons.org/ns#"
   xmlns:rdf="http://www.w3.org/1999/02/22-rdf-syntax-ns#"
   xmlns:svg="http://www.w3.org/2000/svg"
   xmlns="http://www.w3.org/2000/svg"
   xmlns:sodipodi="http://sodipodi.sourceforge.net/DTD/sodipodi-0.dtd"
   xmlns:inkscape="http://www.inkscape.org/namespaces/inkscape"
   xml:space="preserve"
   width="5.9744mm"
   height="5.8372mm"
   version="1.1"
   style="shape-rendering:geometricPrecision; text-rendering:geometricPrecision; image-rendering:optimizeQuality; fill-rule:evenodd; clip-rule:evenodd"
   viewBox="0 0 20.51 20.04"
   id="svg2"
   inkscape:version="0.91 r13725"
   sodipodi:docname="control_small_white.svg"><metadata
     id="metadata23"><rdf:RDF><cc:Work
         rdf:about=""><dc:format>image/svg+xml</dc:format><dc:type
           rdf:resource="http://purl.org/dc/dcmitype/StillImage" /></cc:Work></rdf:RDF></metadata><sodipodi:namedview
     pagecolor="#ffffff"
     bordercolor="#666666"
     borderopacity="1"
     objecttolerance="10"
     gridtolerance="10"
     guidetolerance="10"
     inkscape:pageopacity="0"
     inkscape:pageshadow="2"
     inkscape:window-width="1235"
     inkscape:window-height="866"
     id="namedview21"
     showgrid="false"
     inkscape:zoom="11.410341"
     inkscape:cx="6.2902168"
     inkscape:cy="10.341496"
     inkscape:window-x="0"
     inkscape:window-y="0"
     inkscape:window-maximized="0"
     inkscape:current-layer="svg2" /><defs
     id="defs4"><style
       type="text/css"
       id="style6"><![CDATA[
    .str0 {stroke:black;stroke-width:0.69;stroke-miterlimit:22.9256}
    .fil1 {fill:none}
    .fil0 {fill:black}
    .fil2 {fill:white}
   ]]></style></defs><rect
     class="fil0"
     x="-61.76"
     y="-174.99"
     width="720.96"
     height="1019.65"
     id="rect8"
     style="opacity:0" /><g
     id="Layer_x0020_1"><metadata
       id="CorelCorpID_0Corel-Layer" /><rect
       class="fil1 str0"
       x="10.6"
       y="17.88"
       width="0.91"
       height="1.81"
       id="rect12" /><path
       id="iconmonstr-gamepad-4.svg"
       class="fil2"
       d="M17.96 11.96c0,-0.47 -0.39,-0.85 -0.85,-0.85 -0.47,0 -0.85,0.39 -0.85,0.85 0,0.47 0.39,0.85 0.85,0.85 0.47,0 0.85,-0.39 0.85,-0.85z" /><path
       id="iconmonstr-gamepad-4.svg_0"
       class="fil2"
       d="M16.25 13.67c0,-0.47 -0.39,-0.85 -0.85,-0.85 -0.47,0 -0.85,0.39 -0.85,0.85 0,0.47 0.39,0.85 0.85,0.85 0.47,0 0.85,-0.39 0.85,-0.85z" /><path
       id="iconmonstr-gamepad-4.svg_1"
       class="fil2"
       d="M14.53 11.96c0,-0.47 -0.39,-0.85 -0.85,-0.85 -0.47,0 -0.85,0.39 -0.85,0.85 0,0.47 0.39,0.85 0.85,0.85 0.47,0 0.85,-0.39 0.85,-0.85z" /><path
       id="iconmonstr-gamepad-4.svg_2"
       class="fil2"
       d="M14.53 10.25c0,0.47 0.39,0.85 0.85,0.85 0.47,0 0.85,-0.39 0.85,-0.85 0,-0.47 -0.39,-0.85 -0.85,-0.85 -0.47,0 -0.85,0.39 -0.85,0.85z" /><polygon
       id="iconmonstr-gamepad-4.svg_4"
       class="fil2"
       points="7.7,11.11 5.99,11.11 5.99,9.4 4.28,9.4 4.28,11.11 2.57,11.11 2.57,12.82 4.28,12.81 4.28,14.53 5.99,14.53 5.99,12.81 7.7,12.81 " /><path
       id="iconmonstr-gamepad-4.svg_5"
       class="fil2"
       d="M4.99 6.84l10.73 0.01c2.67,0.1 4.79,2.35 4.79,5.12 0,2.83 -2.23,5.13 -4.98,5.13 -1.29,0 -2.47,-0.51 -3.35,-1.33 -0.54,-0.51 -1.22,-0.75 -1.9,-0.75 -0.72,0 -1.43,0.27 -1.99,0.78 -0.88,0.81 -2.05,1.31 -3.32,1.31 -2.75,0 -4.98,-2.3 -4.98,-5.13 0,-2.83 2.23,-5.13 4.98,-5.13l0 0 0.01 0zm0 1.71c-1.8,0 -3.26,1.54 -3.26,3.41 0,1.89 1.47,3.41 3.26,3.41 0.79,0 1.56,-0.3 2.16,-0.85 0.87,-0.8 1.98,-1.24 3.15,-1.24 1.14,0 2.23,0.43 3.06,1.22 0.61,0.56 1.38,0.88 2.19,0.88 1.8,0 3.26,-1.54 3.26,-3.41 0,-1.83 -1.37,-3.34 -3.12,-3.41l-10.7 0 0 -0.01z" /><path
       id="iconmonstr-gamepad-4.svg_6"
       class="fil2"
       d="M5.13 0l1 0.18c-0.31,1.92 0.68,2.15 2.31,2.46 1.26,0.24 2.68,0.54 2.68,2.81l0 0.54 -1.01 0 0 -0.54c0,-1.33 -0.41,-1.54 -1.85,-1.82 -2.21,-0.41 -3.5,-1.18 -3.12,-3.62l0 0z" /></g></svg>