<?xml version="1.0" encoding="UTF-8" standalone="no"?>
<!-- Creator: CorelDRAW 2017 -->

<svg
   xmlns:dc="http://purl.org/dc/elements/1.1/"
   xmlns:cc="http://creativecommons.org/ns#"
   xmlns:rdf="http://www.w3.org/1999/02/22-rdf-syntax-ns#"
   xmlns:svg="http://www.w3.org/2000/svg"
   xmlns="http://www.w3.org/2000/svg"
   xmlns:sodipodi="http://sodipodi.sourceforge.net/DTD/sodipodi-0.dtd"
   xmlns:inkscape="http://www.inkscape.org/namespaces/inkscape"
   xml:space="preserve"
   width="4.299mm"
   height="4.299mm"
   version="1.1"
   style="shape-rendering:geometricPrecision; text-rendering:geometricPrecision; image-rendering:optimizeQuality; fill-rule:evenodd; clip-rule:evenodd"
   viewBox="0 0 10.73 10.73"
   id="svg2"
   inkscape:version="0.91 r13725"
   sodipodi:docname="lan_small_white.svg"><metadata
     id="metadata19"><rdf:RDF><cc:Work
         rdf:about=""><dc:format>image/svg+xml</dc:format><dc:type
           rdf:resource="http://purl.org/dc/dcmitype/StillImage" /></cc:Work></rdf:RDF></metadata><sodipodi:namedview
     pagecolor="#ffffff"
     bordercolor="#666666"
     borderopacity="1"
     objecttolerance="10"
     gridtolerance="10"
     guidetolerance="10"
     inkscape:pageopacity="0"
     inkscape:pageshadow="2"
     inkscape:window-width="1256"
     inkscape:window-height="820"
     id="namedview17"
     showgrid="false"
     inkscape:zoom="15.493009"
     inkscape:cx="4.4536215"
     inkscape:cy="7.6163382"
     inkscape:window-x="0"
     inkscape:window-y="0"
     inkscape:window-maximized="0"
     inkscape:current-layer="svg2" /><defs
     id="defs4"><style
       type="text/css"
       id="style6"><![CDATA[
    .fil0 {fill:black}
    .fil1 {fill:white}
   ]]></style></defs><rect
     class="fil0"
     x="-47.03"
     y="-420.83"
     width="523.97"
     height="741.04"
     id="rect8"
     style="opacity:0" /><g
     id="Layer_x0020_1"><metadata
       id="CorelCorpID_0Corel-Layer" /><path
       id="iconmonstr-sitemap-6.svg"
       class="fil1"
       d="M6.7 8.04l-2.68 0 0 2.68 2.68 0 0 -2.68zm-0.9 0.9l0 0.9 -0.9 0 0 -0.9 0.9 0z" /><polygon
       id="iconmonstr-sitemap-6.svg_0"
       class="fil1"
       points="5.81,4.91 5.81,3.57 4.91,3.57 4.91,4.91 0.9,4.91 0.9,7.15 1.79,7.15 1.79,5.81 4.91,5.81 4.91,7.15 5.81,7.15 5.81,5.81 8.94,5.81 8.94,7.15 9.83,7.15 9.83,4.91 " /><path
       id="iconmonstr-sitemap-6.svg_1"
       class="fil1"
       d="M10.73 8.04l-2.68 0 0 2.68 2.68 0 0 -2.68zm-0.9 0.9l0 0.9 -0.9 0 0 -0.9 0.9 0z" /><path
       id="iconmonstr-sitemap-6.svg_2"
       class="fil1"
       d="M2.68 8.04l-2.68 0 0 2.68 2.68 0 0 -2.68zm-0.9 0.9l0 0.9 -0.9 0 0 -0.9 0.9 0z" /><path
       id="iconmonstr-sitemap-6.svg_3"
       class="fil1"
       d="M7.15 0l-3.57 0 0 2.68 3.57 0 0 -2.68zm-0.9 0.9l0 0.9 -1.79 0 0 -0.9 1.79 0z" /></g></svg>