<?xml version="1.0" encoding="UTF-8" standalone="no"?>
<!-- Creator: CorelDRAW 2017 -->

<svg
   xmlns:dc="http://purl.org/dc/elements/1.1/"
   xmlns:cc="http://creativecommons.org/ns#"
   xmlns:rdf="http://www.w3.org/1999/02/22-rdf-syntax-ns#"
   xmlns:svg="http://www.w3.org/2000/svg"
   xmlns="http://www.w3.org/2000/svg"
   xmlns:sodipodi="http://sodipodi.sourceforge.net/DTD/sodipodi-0.dtd"
   xmlns:inkscape="http://www.inkscape.org/namespaces/inkscape"
   xml:space="preserve"
   width="5.2057mm"
   height="5.2057mm"
   version="1.1"
   style="shape-rendering:geometricPrecision; text-rendering:geometricPrecision; image-rendering:optimizeQuality; fill-rule:evenodd; clip-rule:evenodd"
   viewBox="0 0 15.57 15.57"
   id="svg2"
   inkscape:version="0.91 r13725"
   sodipodi:docname="settings_small_white.svg"><metadata
     id="metadata18"><rdf:RDF><cc:Work
         rdf:about=""><dc:format>image/svg+xml</dc:format><dc:type
           rdf:resource="http://purl.org/dc/dcmitype/StillImage" /></cc:Work></rdf:RDF></metadata><sodipodi:namedview
     pagecolor="#ffffff"
     bordercolor="#666666"
     borderopacity="1"
     objecttolerance="10"
     gridtolerance="10"
     guidetolerance="10"
     inkscape:pageopacity="0"
     inkscape:pageshadow="2"
     inkscape:window-width="1012"
     inkscape:window-height="808"
     id="namedview16"
     showgrid="false"
     inkscape:zoom="12.794522"
     inkscape:cx="5.3929328"
     inkscape:cy="9.2226967"
     inkscape:window-x="0"
     inkscape:window-y="0"
     inkscape:window-maximized="0"
     inkscape:current-layer="svg2" /><defs
     id="defs4"><style
       type="text/css"
       id="style6"><![CDATA[
    .str0 {stroke:black;stroke-width:0.6;stroke-miterlimit:22.9256}
    .fil2 {fill:none}
    .fil0 {fill:black}
    .fil1 {fill:white}
   ]]></style></defs><rect
     class="fil0"
     x="-53.85"
     y="-192.17"
     width="628.27"
     height="888.56"
     id="rect8"
     style="opacity:0" /><g
     id="Layer_x0020_1"><metadata
       id="CorelCorpID_0Corel-Layer" /><path
       id="iconmonstr-gear-2.svg"
       class="fil1"
       d="M7.79 4.68c-1.72,0 -3.11,1.39 -3.11,3.11 0,1.72 1.39,3.11 3.11,3.11 1.72,0 3.11,-1.39 3.11,-3.11 0,-1.72 -1.39,-3.11 -3.11,-3.11zm0 1.25c1.03,0 1.87,0.84 1.87,1.87 0,1.03 -0.84,1.87 -1.87,1.87 -1.03,0 -1.87,-0.84 -1.87,-1.87 0,-1.03 0.84,-1.87 1.87,-1.87z" /><path
       id="iconmonstr-gear-2.svg_0"
       class="fil1"
       d="M15.57 9.21l0 -2.84c-1.4,-0.5 -1.77,-0.52 -1.96,-0.99 -0.2,-0.47 0.05,-0.76 0.69,-2.1l-2.01 -2.01c-1.32,0.62 -1.62,0.88 -2.1,0.69 -0.47,-0.2 -0.5,-0.57 -0.99,-1.96l-2.84 0c-0.49,1.39 -0.52,1.77 -0.99,1.96 -0.49,0.21 -0.78,-0.07 -2.1,-0.69l-2.01 2.01c0.63,1.33 0.88,1.62 0.69,2.1 -0.2,0.47 -0.57,0.49 -1.96,0.99l0 2.84c1.39,0.49 1.77,0.52 1.96,0.99 0.2,0.48 -0.05,0.76 -0.69,2.1l2.01 2.01c1.3,-0.62 1.6,-0.89 2.1,-0.69 0.47,0.2 0.49,0.57 0.99,1.96l2.84 0c0.49,-1.38 0.52,-1.76 1,-1.97 0.49,-0.2 0.77,0.07 2.09,0.69l2.01 -2.01c-0.63,-1.33 -0.88,-1.62 -0.69,-2.1 0.2,-0.47 0.57,-0.49 1.96,-0.99l0 0 0 0.01zm-3.17 0.5c-0.37,0.9 -0.04,1.6 0.32,2.32l-0.71 0.71c-0.71,-0.35 -1.4,-0.7 -2.32,-0.32 -0.9,0.37 -1.16,1.1 -1.42,1.87l-0.99 0c-0.26,-0.77 -0.51,-1.49 -1.42,-1.87 -0.92,-0.38 -1.63,-0.03 -2.32,0.32l-0.71 -0.71c0.36,-0.73 0.69,-1.42 0.32,-2.32 -0.37,-0.9 -1.1,-1.16 -1.87,-1.42l0 -0.99c0.77,-0.26 1.49,-0.51 1.87,-1.42 0.38,-0.9 0.04,-1.6 -0.32,-2.32l0.71 -0.71c0.71,0.35 1.4,0.7 2.32,0.32 0.9,-0.37 1.16,-1.1 1.42,-1.87l0.99 0c0.26,0.77 0.51,1.49 1.42,1.87 0.92,0.38 1.63,0.03 2.32,-0.32l0.71 0.71c-0.36,0.73 -0.69,1.42 -0.32,2.32 0.37,0.9 1.1,1.16 1.87,1.42l0 0.99c-0.77,0.26 -1.49,0.51 -1.87,1.42l0 0z" /><rect
       class="fil2 str0"
       x="7.2"
       y="13.25"
       width="0.79"
       height="1.58"
       id="rect14" /></g></svg>