<svg enable-background="new" viewBox="0 0 188 188" xmlns="http://www.w3.org/2000/svg"><g transform="matrix(.60812 0 0 .60812 4 4)" fill="#fffffc"><path d="m148 0c-81.606 0-148 66.392-148 148s66.392 148 148 148 148-66.392 148-148-66.392-148-148-148zm0 280c-36.257 0-69.143-14.696-93.022-38.44-9.536-9.482-17.631-20.41-23.934-32.42-9.6-18.289-15.042-39.088-15.042-61.138 0-72.784 59.214-132 132-132 34.523 0 65.987 13.328 89.533 35.102 12.208 11.288 22.289 24.844 29.558 39.996 8.27 17.239 12.907 36.538 12.907 56.9 0 72.784-59.214 132-132 132z"/><polygon points="79.916 89.445 68.604 100.76 86.544 118.7 68.603 136.64 79.917 147.95 97.988 129.88 116.06 147.95 127.37 136.64 109.43 118.7 127.37 100.76 116.06 89.445 97.988 107.52"/><polygon points="179.92 89.445 168.6 100.76 186.54 118.7 168.6 136.64 179.92 147.95 197.99 129.88 216.06 147.95 227.37 136.64 209.43 118.7 227.37 100.76 216.06 89.445 197.99 107.52"/><path d="m227.66 190h-160v16h94v12c0 16.708 12.651 30.546 28.779 32.699 1.436 0.192 2.983 0.301 4.471 0.301 15.493 0 28.395-10.734 31.925-25.155 0.616-2.517 0.825-5.142 0.825-7.845zm-50 16h34v12c0 9.374-7.626 17-17 17s-17-7.626-17-17z"/></g></svg>
