<svg enable-background="new" viewBox="0 0 240 118" xmlns="http://www.w3.org/2000/svg"><g fill="#fff" transform="translate(0 86.78)"><path d="m454.027 38.25h138.848c10.557 0 19.125-8.568 19.125-19.125s-8.568-19.125-19.125-19.125h-191.25c-2.314 0-19.125 0-19.125 19.125v191.25c0 10.557 8.568 19.125 19.125 19.125s19.125-8.568 19.125-19.125v-146.134c90.423 42.955 153 134.984 153 241.759 0 147.875-119.875 267.75-267.75 267.75s-267.75-119.875-267.75-267.75c0-134.851 99.794-246.101 229.5-264.709v-38.652c-150.896 18.858-267.75 147.34-267.75 303.361 0 169.008 136.992 306 306 306s306-136.992 306-306c0-115.286-63.801-215.577-157.973-267.75z" transform="matrix(.0654 0 0 .0654 100 -60.85)"/><path d="m97.9896-2.076v4.6042h2.0417q1.4688 0 2.0521-.5.5938-.5.5938-1.7396 0-1.2604-.6146-1.8125-.6146-.5521-2.0313-.5521zm0-6.0625v3.6146h2.0417q1.1667 0 1.6563-.4167.5-.4167.5-1.375 0-.9583-.5104-1.3854-.5-.4375-1.6458-.4375zm-2.9688-2.4479h5.0104q2.5938 0 3.8958.9896 1.3125.9792 1.3125 2.9375 0 1.5-.7708 2.3438-.7708.8438-2.2604.9792 1.7813.1771 2.6771 1.1979.9063 1.0208.9063 2.8542 0 2.25-1.3542 3.2604-1.3542 1.0104-4.4063 1.0104h-5.0104z"/><path d="m112.9688-7.7531-1.4479 6.3646h2.9063zm-1.875-2.8125h3.7604l4.1979 15.5521h-3.0729l-.9583-3.8438h-4.1146l-.9375 3.8438h-3.0729z"/><path d="m130.6458 4.5386q-.7292.375-1.5313.5625-.8021.1875-1.6875.1875-3.1458 0-4.8021-2.0729-1.6563-2.0729-1.6563-5.9896 0-3.9271 1.6563-6 1.6563-2.0729 4.8021-2.0729.8854 0 1.6979.1875.8125.1875 1.5208.5625v3.4167q-.7917-.7292-1.5417-1.0625-.7396-.3438-1.5313-.3438-1.6875 0-2.5521 1.3438-.8542 1.3333-.8542 3.9688 0 2.625.8542 3.9688.8646 1.3333 2.5521 1.3333.7917 0 1.5313-.3333.75-.3438 1.5417-1.0729z"/><path d="m133.4375-10.5656h3.0729v6.1458l4.8125-6.1458h3.4792l-4.9063 6.125 5.0833 9.4271h-3.4167l-3.6875-7-1.3646 1.7292v5.2708h-3.0729z"/></g></svg>
