<svg enable-background="new" viewBox="0 0 240 118" xmlns="http://www.w3.org/2000/svg"><g fill="#fff" transform="translate(0 86.78)"><path d="m34.8542 4.5386q-.7292.375-1.5313.5625-.8021.1875-1.6875.1875-3.1458 0-4.8021-2.0729-1.6563-2.0729-1.6563-5.9896 0-3.9271 1.6563-6 1.6563-2.0729 4.8021-2.0729.8854 0 1.6979.1875.8125.1875 1.5208.5625v3.4167q-.7917-.7292-1.5417-1.0625-.7396-.3438-1.5313-.3438-1.6875 0-2.5521 1.3438-.8542 1.3333-.8542 3.9688 0 2.625.8542 3.9688.8646 1.3333 2.5521 1.3333.7917 0 1.5313-.3333.75-.3438 1.5417-1.0729z"/><path d="m37.8542-10.5656h3.0729v5.9271h3.8438v-5.9271h3.0729v15.5521h-3.0729v-6.9167h-3.8438v6.9167h-3.0729z"/><path d="m55.6771-7.7531-1.4479 6.3646h2.9063zm-1.875-2.8125h3.7604l4.1979 15.5521h-3.0729l-.9583-3.8438h-4.1146l-.9375 3.8438h-3.0729z"/><path d="m63.3333-10.5656h3.3021l4.3334 11.3021v-11.3021h2.7083v15.5521h-3.2813l-4.3541-11.3021v11.3021h-2.7083z"/><path d="m84.0104 2.174v-2.9688h-2.1041v-2.5833h4.7917v7.125q-.8854.7604-1.9583 1.1563-1.0625.3854-2.2813.3854-3.0208 0-4.6667-2.0938-1.6458-2.1042-1.6458-5.9688 0-3.9271 1.6563-6 1.6667-2.0729 4.8021-2.0729.9375 0 1.8438.2708.9063.2604 1.6979.7604v3.4063q-.6458-.8333-1.4896-1.25-.8333-.4271-1.8333-.4271-1.75 0-2.6146 1.3229-.8646 1.3125-.8646 3.9896 0 2.5938.8333 3.9479.8333 1.3542 2.4271 1.3542.4792 0 .8333-.0833.3542-.0938.5729-.2708z"/><path d="m99.1979 4.9865h-9.6875v-15.5521h9.6875v2.7083h-6.6146v3.3542h5.9896v2.7083h-5.9896v4.0729h6.6146z"/><path d="m118.7396-1.8364q-2.3229-.8854-3.1458-1.8542-.8229-.9792-.8229-2.625 0-2.1146 1.3542-3.3229 1.3542-1.2083 3.7188-1.2083 1.0729 0 2.1458.25 1.0729.2396 2.125.7187v3q-.9896-.6979-2.0104-1.0625-1.0208-.3646-2.0208-.3646-1.1146 0-1.7083.4479-.5938.4479-.5938 1.2813 0 .6458.4271 1.0729.4375.4167 1.8125.9271l1.3229.5q1.875.6875 2.7604 1.8229.8854 1.1354.8854 2.8646 0 2.3542-1.3958 3.5208-1.3854 1.1563-4.1979 1.1563-1.1563 0-2.3229-.2813-1.1563-.2708-2.2396-.8125v-3.1771q1.2292.875 2.375 1.3021 1.1563.4271 2.2813.4271 1.1354 0 1.7604-.5104.625-.5208.625-1.4479 0-.6979-.4167-1.2188-.4167-.5313-1.2083-.8333z"/><path d="m137.6979 4.9865h-9.6875v-15.5521h9.6875v2.7083h-6.6146v3.3542h5.9896v2.7083h-5.9896v4.0729h6.6146z"/><path d="m147.0521 4.9865h-3.0729v-12.8646h-3.9479v-2.6875h10.9688v2.6875h-3.9479z"/><path d="m159.8854 4.9865h-3.0729v-12.8646h-3.9479v-2.6875h10.9688v2.6875h-3.9479z"/><path d="m166.5521-7.8573v-2.7083h9.2604v2.7083h-3.0938v10.1354h3.0938v2.7083h-9.2604v-2.7082h3.0938v-10.1354z"/><path d="m178.8333-10.5656h3.3021l4.3333 11.3021v-11.3021h2.7083v15.5521h-3.2813l-4.354-11.3021v11.3021h-2.7083z"/><path d="m199.5104 2.174v-2.9688h-2.1042v-2.5833h4.7917v7.125q-.8854.7604-1.9583 1.1563-1.0625.3854-2.2813.3854-3.0208 0-4.6667-2.0938-1.6458-2.1042-1.6458-5.9688 0-3.9271 1.6563-6 1.6667-2.0729 4.8021-2.0729.9375 0 1.8438.2708.9063.2604 1.6979.7604v3.4063q-.6458-.8333-1.4896-1.25-.8333-.4271-1.8333-.4271-1.75 0-2.6146 1.3229-.8646 1.3125-.8646 3.9896 0 2.5938.8333 3.9479.8333 1.3542 2.4271 1.3542.4792 0 .8333-.0833.3542-.0938.5729-.2708z"/><path d="m208.5729-1.8364q-2.3229-.8854-3.1458-1.8542-.8229-.9792-.8229-2.625 0-2.1146 1.3542-3.3229 1.3542-1.2083 3.7188-1.2083 1.0729 0 2.1458.25 1.0729.2396 2.125.7187v3q-.9896-.6979-2.0104-1.0625-1.0208-.3646-2.0208-.3646-1.1146 0-1.7083.4479-.5938.4479-.5938 1.2813 0 .6458.4271 1.0729.4375.4167 1.8125.9271l1.3229.5q1.875.6875 2.7604 1.8229.8854 1.1354.8854 2.8646 0 2.3542-1.3958 3.5208-1.3854 1.1563-4.1979 1.1563-1.1563 0-2.3229-.2813-1.1563-.2708-2.2396-.8125v-3.1771q1.2292.875 2.375 1.3021 1.1563.4271 2.2813.4271 1.1354 0 1.7604-.5104.625-.5208.625-1.4479 0-.6979-.4167-1.2188-.4167-.5313-1.2083-.8333z"/><path d="m22.672 159.188h90.687l79.532 108.892 28.521-36.978s-79.623-109.913-85.382-117.235h-113.358c-12.515 0-22.672 12.107-22.672 24.485 0 12.379 10.157 20.836 22.672 20.836zm488.076 230.48c-6.756-6.688-27.886-4.92-34.643 1.769v62.483h-90.687l-80.145-109.709-28.521 36.978 85.995 116.011h113.358v65.112c6.757 6.688 27.887 3.719 34.643-2.97l96.174-72.708c6.756-6.688 6.756-17.548 0-24.236zm-34.643-230.48v60.941c6.757 6.688 27.887 9.477 34.643 2.789l96.174-72.708c6.756-6.688 6.756-17.548 0-24.236l-96.174-72.708c-6.756-6.711-27.886-10.565-34.643-3.877v64.479h-113.358l-249.389 340.074h-90.686c-12.515 0-22.672 8.456-22.672 20.858 0 12.379 10.157 24.486 22.672 24.486h113.358l249.389-340.076h90.687v-.022z" transform="matrix(.0769 0 0 .0769 96.47 -64.38)"/></g></svg>
