<svg enable-background="new" viewBox="0 0 240 118" xmlns="http://www.w3.org/2000/svg"><g fill="#fff" transform="translate(0 86.78)"><path d="m85.974 4.539q-.7292.375-1.5313.5625-.8021.1875-1.6875.1875-3.1458 0-4.8021-2.0729-1.6563-2.0729-1.6563-5.9896 0-3.9271 1.6563-6 1.6563-2.0729 4.8021-2.0729.8854 0 1.6979.1875.8125.1875 1.5208.5625v3.4167q-.7917-.7292-1.5417-1.0625-.7396-.3438-1.5313-.3438-1.6875 0-2.5521 1.3438-.8542 1.3333-.8542 3.9688 0 2.625.8542 3.9688.8646 1.3333 2.5521 1.3333.7917 0 1.5313-.3333.75-.3438 1.5417-1.0729z"/><path d="m93.9635-8.086q-1.1771 0-1.7188 1.2604-.5417 1.25-.5417 4.0521 0 2.7917.5417 4.0521.5417 1.25 1.7188 1.25 1.1875 0 1.7292-1.25.5417-1.2604.5417-4.0521 0-2.8021-.5417-4.0521-.5417-1.2604-1.7292-1.2604zm-5.4583 5.3125q0-3.9896 1.375-6.0313 1.3854-2.0417 4.0833-2.0417 2.7083 0 4.0833 2.0417 1.3854 2.0417 1.3854 6.0313 0 3.9792-1.3854 6.0208-1.375 2.0417-4.0833 2.0417-2.6979 0-4.0833-2.0417-1.375-2.0417-1.375-6.0208z"/><path d="m101.6198-10.5652h3.3021l4.3333 11.3021v-11.3021h2.7083v15.5521h-3.2813l-4.3541-11.3021v11.3021h-2.7083z"/><path d="m121.1719 4.9869h-3.0729v-12.8646h-3.9479v-2.6875h10.9688v2.6875h-3.9479z"/><path d="m134.4531-2.3568q.4583.0938.7917.4375.3438.3333.8333 1.3125l2.8125 5.5938h-3.375l-1.875-3.9271q-.0833-.1667-.2188-.4583-.8229-1.7604-1.9375-1.7604h-.9792v6.1458h-3.0729v-15.5521h4.4375q3 0 4.3021 1.0625 1.3125 1.0625 1.3125 3.4583 0 1.6042-.7813 2.5521-.7813.9479-2.25 1.1354zm-3.9479-5.625v4.2396h1.4479q1.2604 0 1.8021-.4896.5521-.5.5521-1.6354 0-1.1354-.5417-1.625-.5417-.4896-1.8125-.4896z"/><path d="m145.2969-8.086q-1.1771 0-1.7188 1.2604-.5417 1.25-.5417 4.0521 0 2.7917.5417 4.0521.5417 1.25 1.7188 1.25 1.1875 0 1.7292-1.25.5417-1.2604.5417-4.0521 0-2.8021-.5417-4.0521-.5417-1.2604-1.7292-1.2604zm-5.4583 5.3125q0-3.9896 1.375-6.0313 1.3854-2.0417 4.0833-2.0417 2.7083 0 4.0833 2.0417 1.3854 2.0417 1.3854 6.0313 0 3.9792-1.3854 6.0208-1.375 2.0417-4.0833 2.0417-2.6979 0-4.0833-2.0417-1.375-2.0417-1.375-6.0208z"/><path d="m154.0573 4.9869v-15.5521h3.0729v12.8438h6.5729v2.7083z"/><path d="m591.772 378.146-47.37-27.582c2.651-14.484 4.406-29.273 4.406-44.555 0-15.259-1.734-30.07-4.406-44.555l47.37-27.582c19.36-11.261 25.99-36.211 14.811-55.735l-40.454-70.668c-11.18-19.523-35.926-26.194-55.286-14.933l-47.86 27.867c-22.358-19.197-47.778-34.885-76.033-44.963v-34.639c-.001-22.542-18.116-40.801-40.455-40.801h-80.93c-22.339 0-40.455 18.279-40.455 40.801v34.62c-28.275 10.098-53.694 25.787-76.074 44.983l-47.86-27.867c-19.36-11.261-44.106-4.59-55.266 14.933l-40.473 70.669c-11.18 19.503-4.549 44.474 14.811 55.735l47.371 27.582c-2.652 14.485-4.407 29.295-4.407 44.555s1.734 30.07 4.407 44.555l-47.371 27.582c-19.36 11.262-25.99 36.232-14.811 55.734l40.475 70.668c11.18 19.504 35.926 26.195 55.266 14.934l47.86-27.867c22.359 19.197 47.778 34.885 76.034 44.963v34.641c0 22.523 18.116 40.801 40.454 40.801h80.93c22.339 0 40.454-18.277 40.454-40.801v-34.621c28.256-10.078 53.675-25.766 76.034-44.963l47.859 27.867c19.36 11.26 44.106 4.568 55.286-14.934l40.454-70.668c11.22-19.545 4.59-44.494-14.771-55.756zm-30.335 53.002-20.237 35.334c-5.59 9.752-17.953 13.098-27.644 7.467l-56.203-32.723c-28.541 32.457-67.099 55.734-110.878 64.689v44.902c0 11.262-9.058 20.4-20.237 20.4h-40.475c-11.18 0-20.238-9.139-20.238-20.4v-44.902c-43.78-8.955-82.337-32.232-110.877-64.689l-56.204 32.723c-9.67 5.631-22.053 2.285-27.643-7.467l-20.197-35.334c-5.59-9.752-2.265-22.236 7.405-27.867l56.428-32.865c-6.711-20.279-10.751-41.822-10.751-64.406 0-22.583 4.019-44.126 10.751-64.425l-56.449-32.866c-9.67-5.61-12.975-18.095-7.385-27.847l20.237-35.334c5.59-9.751 17.953-13.097 27.643-7.467l56.204 32.723c28.521-32.458 67.078-55.734 110.857-64.69v-44.902c0-11.261 9.058-20.401 20.238-20.401h40.475c11.18 0 20.237 9.14 20.237 20.401v44.902c43.779 8.956 82.337 32.253 110.878 64.69l56.203-32.723c9.67-5.63 22.054-2.285 27.644 7.467l20.237 35.334c5.59 9.751 2.265 22.237-7.405 27.867l-56.449 32.866c6.732 20.298 10.751 41.842 10.751 64.404 0 22.584-4.019 44.107-10.751 64.406l56.449 32.865c9.65 5.632 12.975 18.116 7.386 27.868zm-255.417-227.141c-55.877 0-101.167 45.677-101.167 102.003s45.29 102.004 101.167 102.004 101.167-45.678 101.167-102.004c-.02-56.326-45.31-102.003-101.167-102.003zm0 163.206c-33.519 0-60.692-27.398-60.692-61.203 0-33.803 27.173-61.202 60.692-61.202 33.518 0 60.692 27.398 60.692 61.202s-27.174 61.203-60.692 61.203z" transform="matrix(.0654 0 0 .0654 100 -60.85)"/></g></svg>
