<svg enable-background="new" viewBox="0 0 240 118" xmlns="http://www.w3.org/2000/svg"><g fill="#fff" transform="translate(0 86.78)"><path d="m431.001 289.189-108.19-108.19c-7.478-7.478-19.583-7.478-27.042 0-7.478 7.478-7.478 19.584 0 27.043l78.814 78.833h-202.458c-10.557 0-19.125 8.568-19.125 19.125s8.568 19.125 19.125 19.125h202.457l-78.814 78.814c-7.478 7.478-7.478 19.584 0 27.042 7.478 7.479 19.584 7.479 27.042 0l108.19-108.189c4.59-4.59 6.005-10.863 4.973-16.811 1.033-5.91-.401-12.202-4.972-16.792zm-125.001-289.189c-169.008 0-306 136.992-306 306s136.992 306 306 306 306-137.012 306-306-136.992-306-306-306zm0 573.75c-147.875 0-267.75-119.875-267.75-267.75s119.875-267.75 267.75-267.75 267.75 119.875 267.75 267.75-119.875 267.75-267.75 267.75z" transform="matrix(.0654 0 0 .0654 100 -60.85)"/><path d="m79.8333 4.5386q-.7292.375-1.5313.5625-.8021.1875-1.6875.1875-3.1458 0-4.8021-2.0729-1.6563-2.0729-1.6563-5.9896 0-3.9271 1.6563-6 1.6563-2.0729 4.8021-2.0729.8854 0 1.6979.1875.8125.1875 1.5208.5625v3.4167q-.7917-.7292-1.5417-1.0625-.7396-.3438-1.5313-.3438-1.6875 0-2.5521 1.3438-.8542 1.3333-.8542 3.9688 0 2.625.8542 3.9688.8646 1.3333 2.5521 1.3333.7917 0 1.5313-.3333.75-.3438 1.5417-1.0729z"/><path d="m87.8229-8.0864q-1.1771 0-1.7188 1.2604-.5417 1.25-.5417 4.0521 0 2.7917.5417 4.0521.5417 1.25 1.7188 1.25 1.1875 0 1.7292-1.25.5417-1.2604.5417-4.0521 0-2.8021-.5417-4.0521-.5417-1.2604-1.7292-1.2604zm-5.4583 5.3125q0-3.9896 1.375-6.0313 1.3854-2.0417 4.0833-2.0417 2.7083 0 4.0833 2.0417 1.3854 2.0417 1.3854 6.0313 0 3.9792-1.3854 6.0208-1.375 2.0417-4.0833 2.0417-2.6979 0-4.0833-2.0417-1.375-2.0417-1.375-6.0208z"/><path d="m95.4792-10.5656h3.3021l4.3333 11.3021v-11.3021h2.7083v15.5521h-3.2813l-4.3541-11.3021v11.3021h-2.7083z"/><path d="m115.0313 4.9865h-3.0729v-12.8646h-3.9479v-2.6875h10.9688v2.6875h-3.9479z"/><path d="m121.6979-7.8572v-2.7083h9.2604v2.7083h-3.0938v10.1354h3.0938v2.7083h-9.2604v-2.7083h3.0938v-10.1354z"/><path d="m133.9792-10.5656h3.3021l4.3333 11.3021v-11.3021h2.7083v15.5521h-3.2813l-4.3541-11.3021v11.3021h-2.7083z"/><path d="m146.6771-.7531v-9.8125h3.0729v10.5834q0 1.1667.5938 1.8333.5938.6563 1.6458.6563 1.0521 0 1.6458-.6563.5938-.6667.5938-1.8333v-10.5834h3.0729v9.8125q0 3.1667-1.2604 4.6042-1.2604 1.4375-4.0521 1.4375-2.7813 0-4.0521-1.4375-1.2604-1.4375-1.2604-4.6042z"/><path d="m169.8438 4.9865h-9.6875v-15.5521h9.6875v2.7083h-6.6146v3.3542h5.9896v2.7083h-5.9896v4.0729h6.6146z"/></g></svg>
