<svg enable-background="new" viewBox="0 0 240 118" xmlns="http://www.w3.org/2000/svg"><g fill="#fff" transform="translate(0 86.78)"><path d="m47.8437 4.9865h-9.6875v-15.5521h9.6875v2.7083h-6.6146v3.3542h5.9896v2.7083h-5.9896v4.0729h6.6146z"/><path d="m61.8021 4.9865h-3.1771l-2.9688-5.1458-2.9583 5.1458h-3.1771l4.5625-7.8958-4.4375-7.6563h3.1771l2.8333 4.9479 2.8438-4.9479h3.1771l-4.4167 7.6563z"/><path d="m66.8333-7.9822v4.5625h1.2604q1.5104 0 2.1146-.5104.6146-.5104.6146-1.7708 0-1.2604-.6146-1.7708-.6042-.5104-2.1146-.5104zm-3.0729-2.5833h4.2188q3.2188 0 4.625 1.1458 1.4167 1.1458 1.4167 3.7188 0 2.5729-1.4167 3.7188-1.4063 1.1458-4.625 1.1458h-1.1459v5.8228h-3.0729z"/><path d="m81.3229-8.0864q-1.1771 0-1.7188 1.2604-.5417 1.25-.5417 4.0521 0 2.7917.5417 4.0521.5417 1.25 1.7188 1.25 1.1875 0 1.7292-1.25.5417-1.2604.5417-4.0521 0-2.8021-.5417-4.0521-.5417-1.2604-1.7292-1.2604zm-5.4583 5.3125q0-3.9896 1.375-6.0313 1.3854-2.0417 4.0833-2.0417 2.7083 0 4.0833 2.0417 1.3854 2.0417 1.3854 6.0313 0 3.9792-1.3854 6.0208-1.375 2.0417-4.0833 2.0417-2.6979 0-4.0833-2.0417-1.375-2.0417-1.375-6.0208z"/><path d="m93.0521-1.8364q-2.3229-.8854-3.1458-1.8542-.8229-.9792-.8229-2.625 0-2.1146 1.3542-3.3229 1.3542-1.2083 3.7188-1.2083 1.0729 0 2.1458.25 1.0729.2396 2.125.7187v3q-.9896-.6979-2.0104-1.0625-1.0208-.3646-2.0208-.3646-1.1146 0-1.7083.4479-.5938.4479-.5938 1.2813 0 .6458.4271 1.0729.4375.4167 1.8125.9271l1.3229.5q1.875.6875 2.7604 1.8229.8854 1.1354.8854 2.8646 0 2.3542-1.3958 3.5208-1.3854 1.1563-4.1979 1.1563-1.1563 0-2.3229-.2813-1.1563-.2708-2.2396-.8125v-3.177q1.2292.875 2.375 1.3021 1.1563.4271 2.2813.4271 1.1354 0 1.7604-.5104.625-.5208.625-1.4479 0-.6979-.4167-1.2188-.4167-.5313-1.2083-.8333z"/><path d="m101.6771-.7531v-9.8125h3.0729v10.5834q0 1.1667.5938 1.8333.5938.6563 1.6458.6563 1.0521 0 1.6458-.6563.5938-.6667.5938-1.8333v-10.5834h3.0729v9.8125q0 3.1667-1.2604 4.6042-1.2604 1.4375-4.0521 1.4375-2.7813 0-4.0521-1.4375-1.2604-1.4375-1.2604-4.6042z"/><path d="m121.8125-2.3572q.4583.0938.7917.4375.3438.3333.8333 1.3125l2.8125 5.5937h-3.375l-1.875-3.9271q-.0833-.1667-.2188-.4583-.8229-1.7604-1.9375-1.7604h-.9792v6.1458h-3.0729v-15.5521h4.4375q3 0 4.3021 1.0625 1.3125 1.0625 1.3125 3.4583 0 1.6042-.7813 2.5521-.7813.9479-2.25 1.1354zm-3.9479-5.625v4.2396h1.4479q1.2604 0 1.8021-.4896.5521-.5.5521-1.6354 0-1.1354-.5417-1.625-.5417-.4896-1.8125-.4896z"/><path d="m137.6771 4.9865h-9.6875v-15.5521h9.6875v2.7083h-6.6146v3.3542h5.9896v2.7083h-5.9896v4.0729h6.6146z"/><path d="m159.8646 4.9865h-3.0729v-12.8646h-3.9479v-2.6875h10.9688v2.6875h-3.9479z"/><path d="m166.5313-7.8572v-2.7083h9.2604v2.7083h-3.0938v10.1354h3.0938v2.7083h-9.2604v-2.7083h3.0938v-10.1354z"/><path d="m178.4688-10.5656h3.6667l1.8542 6.8229 1.8438-6.8229h3.6875v15.5521h-2.646v-12.4583l-1.6458 6.8021h-2.4479l-1.6667-6.8021v12.4583h-2.6458z"/><path d="m201.8438 4.9865h-9.6875v-15.5521h9.6875v2.7083h-6.6146v3.3542h5.9896v2.7083h-5.9896v4.0729h6.6146z"/></g></svg>
