<svg enable-background="new" viewBox="0 0 240 118" xmlns="http://www.w3.org/2000/svg"><g fill="#fff" transform="translate(0 86.78)"><path d="m133.3413-29.2219v7.7354c0 .5141.417.9311.9306.9311h7.7369c.5137 0 .9305-.417.9305-.9311v-7.7354c0-.5146-.4169-.9312-.9305-.9312h-2.3328v-10.5578c0-.8488-.6876-1.5358-1.5356-1.5358h-16.6047v-5.4408h3.6502c.6891 0 1.2477-.558 1.2477-1.2478v-10.3719c0-.6901-.5586-1.2481-1.2477-1.2481h-10.3727c-.6891 0-1.2477.5579-1.2477 1.2481v10.372c0 .6897.5586 1.2478 1.2477 1.2478h3.6511v5.4408h-16.6047c-.8479 0-1.5356.6869-1.5356 1.5358v10.5579h-2.3328c-.5136 0-.9306.4166-.9306.9312v7.7354c0 .5141.4171.9311.9306.9311h7.7369c.5136 0 .9306-.417.9306-.9311v-7.7354c0-.5146-.4171-.9312-.9306-.9312h-2.3329v-9.0222h15.0689v9.0222h-2.3329c-.5136 0-.9304.4166-.9304.9312v7.7354c0 .5141.4168.9311.9304.9311h7.7369c.5136 0 .9306-.417.9306-.9311v-7.7354c0-.5146-.417-.9312-.9306-.9312h-2.3328v-9.0222h15.069v9.0222h-2.3327c-.5136-.0002-.9306.4164-.9306.9311z"/><path d="m102.5469 4.9969v-15.5521h3.0729v12.8438h6.5729v2.7083z"/><path d="m119.4531-7.7427-1.4479 6.3646h2.9063zm-1.875-2.8125h3.7604l4.1979 15.5521h-3.0729l-.9583-3.8437h-4.1146l-.9375 3.8438h-3.0729z"/><path d="m127.1094-10.5552h3.3021l4.3333 11.3021v-11.3021h2.7083v15.5521h-3.2813l-4.3541-11.3021v11.3021h-2.7083z"/></g></svg>
