<svg enable-background="new" viewBox="0 0 240 118" xmlns="http://www.w3.org/2000/svg"><g fill="#fff" transform="translate(0 86.78)"><path d="m92.2969-7.9718v4.5625h1.2604q1.5104 0 2.1146-.5104.6146-.5104.6146-1.7708 0-1.2604-.6146-1.7708-.6042-.5104-2.1146-.5104zm-3.0729-2.5833h4.2188q3.2188 0 4.625 1.1458 1.4167 1.1458 1.4167 3.7188 0 2.5729-1.4167 3.7188-1.4063 1.1458-4.625 1.1458h-1.1458v5.8229h-3.0729z"/><path d="m108.776-2.3468q.4583.0938.7917.4375.3438.3333.8333 1.3125l2.8125 5.5938h-3.375l-1.875-3.9271q-.0833-.1667-.2188-.4583-.8229-1.7604-1.9375-1.7604h-.9792v6.1458h-3.0729v-15.5521h4.4375q3 0 4.3021 1.0625 1.3125 1.0625 1.3125 3.4583 0 1.6042-.7813 2.5521-.7813.9479-2.25 1.1354zm-3.9479-5.625v4.2396h1.4479q1.2604 0 1.8021-.4896.5521-.5.5521-1.6354 0-1.1354-.5417-1.625-.5417-.4896-1.8125-.4896z"/><path d="m114.9948-7.8468v-2.7083h9.2604v2.7083h-3.0938v10.1354h3.0938v2.7083h-9.2604v-2.7083h3.0938v-10.1354z"/><path d="m127.276-10.5552h3.3021l4.3333 11.3021v-11.3021h2.7083v15.5521h-3.2813l-4.354-11.3021v11.3021h-2.7083z"/><path d="m146.8281 4.9969h-3.0729v-12.8646h-3.9479v-2.6875h10.9688v2.6875h-3.9479z"/><path d="m673.195 348.856-523.118-340.875c-31.009-16.88-66.578-9.344-66.578 45.554v671.209c0 54.509 38.156 64.215 66.579 45.525l523.118-340.874c30.145-21.331 29.283-60.933-.001-80.539zm-534.548 353.5v-626.461l496.363 313.231z" transform="matrix(.0513 0 0 .0513 100 -60.56)"/></g></svg>
