<svg enable-background="new" viewBox="0 0 240 118" xmlns="http://www.w3.org/2000/svg"><g fill="#fff" transform="translate(0 86.78)"><path d="m497.25 153h-213.072c-8.53-32.933-38.192-57.375-73.803-57.375s-65.254 24.442-73.803 57.375h-21.822c-10.557 0-19.125 8.568-19.125 19.125s8.568 19.125 19.125 19.125h21.822c8.53 32.933 38.192 57.375 73.803 57.375s65.254-24.442 73.803-57.375h213.072c10.557 0 19.125-8.568 19.125-19.125s-8.568-19.125-19.125-19.125zm-286.875 65.025c-25.341 0-45.9-20.54-45.9-45.9 0-25.341 20.559-45.9 45.9-45.9 25.36 0 45.9 20.559 45.9 45.9s-20.54 45.9-45.9 45.9zm286.875 240.975h-213.072c-8.53-32.934-38.192-57.375-73.803-57.375s-65.254 24.441-73.784 57.375h-21.841c-10.557 0-19.125 8.568-19.125 19.125s8.568 19.125 19.125 19.125h21.822c8.53 32.934 38.192 57.375 73.784 57.375 35.611 0 65.254-24.441 73.803-57.375h213.091c10.557 0 19.125-8.568 19.125-19.125s-8.568-19.125-19.125-19.125zm-286.875 65.025c-25.341 0-45.9-20.56-45.9-45.9 0-25.359 20.559-45.9 45.9-45.9 25.36 0 45.9 20.541 45.9 45.9 0 25.341-20.54 45.9-45.9 45.9zm286.875-218.025h-40.946c-8.53-32.933-38.193-57.375-73.804-57.375s-65.255 24.442-73.804 57.375h-193.946c-10.557 0-19.125 8.568-19.125 19.125s8.568 19.125 19.125 19.125h193.946c8.53 32.934 38.193 57.375 73.804 57.375s65.255-24.441 73.804-57.375h40.946c10.557 0 19.125-8.568 19.125-19.125s-8.568-19.125-19.125-19.125zm-114.75 65.025c-25.359 0-45.9-20.56-45.9-45.9 0-25.36 20.541-45.9 45.9-45.9 25.341 0 45.9 20.54 45.9 45.9 0 25.341-20.541 45.9-45.9 45.9zm153-371.025h-459c-42.247 0-76.5 34.253-76.5 76.5v459c0 42.247 34.253 76.5 76.5 76.5h459c42.247 0 76.5-34.253 76.5-76.5v-459c0-42.247-34.253-76.5-76.5-76.5zm38.25 535.5c0 21.114-17.117 38.25-38.25 38.25h-459c-21.133 0-38.25-17.136-38.25-38.25v-459c0-21.133 17.117-38.25 38.25-38.25h459c21.133 0 38.25 17.136 38.25 38.25z" transform="matrix(.0654 0 0 .0654 100 -60.85)"/><path d="m21.8854-7.9822v4.5625h1.2604q1.5104 0 2.1146-.5104.6146-.5104.6146-1.7708 0-1.2604-.6146-1.7708-.6042-.5104-2.1146-.5104zm-3.0729-2.5833h4.2188q3.2188 0 4.625 1.1458 1.4167 1.1458 1.4167 3.7188 0 2.5729-1.4167 3.7187-1.4063 1.1458-4.625 1.1458h-1.1459v5.8229h-3.0729z"/><path d="m38.3646-2.3572q.4583.0938.7917.4375.3437.3333.8333 1.3125l2.8125 5.5937h-3.375l-1.875-3.9271q-.0834-.1667-.2188-.4583-.8229-1.7604-1.9375-1.7604h-.9791v6.1458h-3.0729v-15.5521h4.4375q3 0 4.3021 1.0625 1.3125 1.0625 1.3125 3.4583 0 1.6042-.7813 2.5521-.7813.9479-2.25 1.1354zm-3.9479-5.625v4.2396h1.4479q1.2604 0 1.8021-.4896.5521-.5.5521-1.6354 0-1.1354-.5417-1.625-.5417-.4896-1.8125-.4896z"/><path d="m49.2083-8.0864q-1.1771 0-1.7188 1.2604-.5417 1.25-.5417 4.0521 0 2.7917.5417 4.0521.5417 1.25 1.7188 1.25 1.1875 0 1.7292-1.25.5417-1.2604.5417-4.0521 0-2.8021-.5417-4.0521-.5417-1.2604-1.7292-1.2604zm-5.4583 5.3125q0-3.9896 1.375-6.0312 1.3854-2.0417 4.0833-2.0417 2.7083 0 4.0833 2.0417 1.3854 2.0417 1.3854 6.0312 0 3.9792-1.3854 6.0208-1.375 2.0417-4.0833 2.0417-2.6979 0-4.0833-2.0417-1.375-2.0417-1.375-6.0208z"/><path d="m56.7604 4.2157v-3.5625q.8958.9167 1.9063 1.3958 1.0208.4792 2.0521.4792 1.2083 0 1.7708-.6042.5625-.6042.5625-1.9271v-7.8541h-3.7604v-2.7083h6.8333v10.5625q0 2.8437-1.1979 4.0729-1.1875 1.2188-3.9271 1.2188-.9896 0-2.0729-.2708-1.0729-.2708-2.1667-.8021z"/><path d="m79.8958 4.9865h-9.6875v-15.5521h9.6875v2.7083h-6.6146v3.3542h5.9896v2.7083h-5.9896v4.0729h6.6146z"/><path d="m92.5521 4.5386q-.7292.375-1.5312.5625-.8021.1875-1.6875.1875-3.1458 0-4.8021-2.0729-1.6563-2.0729-1.6563-5.9896 0-3.9271 1.6563-6 1.6562-2.0729 4.8021-2.0729.8854 0 1.6979.1875.8125.1875 1.5208.5625v3.4167q-.7917-.7292-1.5417-1.0625-.7396-.3437-1.5313-.3437-1.6875 0-2.5521 1.3438-.8542 1.3333-.8542 3.9687 0 2.625.8542 3.9687.8646 1.3333 2.5521 1.3333.7917 0 1.5313-.3333.75-.3437 1.5417-1.0729z"/><path d="m102.0833 4.9865h-3.0729v-12.8646h-3.9479v-2.6875h10.9688v2.6875h-3.9479z"/><path d="m125.1042-1.8364q-2.3229-.8854-3.1458-1.8542-.8229-.9792-.8229-2.625 0-2.1146 1.3542-3.3229 1.3542-1.2083 3.7188-1.2083 1.0729 0 2.1458.25 1.0729.2396 2.125.7187v3q-.9896-.6979-2.0104-1.0625-1.0208-.3646-2.0208-.3646-1.1146 0-1.7083.4479-.5938.4479-.5938 1.2812 0 .6458.4271 1.0729.4375.4167 1.8125.9271l1.3229.5q1.875.6875 2.7604 1.8229.8854 1.1354.8854 2.8646 0 2.3542-1.3958 3.5208-1.3854 1.1562-4.1979 1.1562-1.1563 0-2.3229-.2812-1.1563-.2708-2.2396-.8125v-3.1769q1.2292.875 2.375 1.3021 1.1563.4271 2.2813.4271 1.1354 0 1.7604-.5104.625-.5208.625-1.4479 0-.6979-.4167-1.2188-.4167-.5312-1.2083-.8333z"/><path d="m144.0625 4.9865h-9.6875v-15.5521h9.6875v2.7083h-6.6146v3.3542h5.9896v2.7083h-5.9896v4.0729h6.6146z"/><path d="m153.4167 4.9865h-3.0729v-12.8646h-3.9479v-2.6875h10.9688v2.6875h-3.9479z"/><path d="m166.25 4.9865h-3.0729v-12.8646h-3.9479v-2.6875h10.9687v2.6875h-3.9479z"/><path d="m172.9167-7.8572v-2.7083h9.2604v2.7083h-3.0938v10.1354h3.0938v2.7083h-9.2604v-2.7083h3.0938v-10.1354z"/><path d="m185.1979-10.5656h3.3021l4.3333 11.3021v-11.3021h2.7083v15.5521h-3.2813l-4.3541-11.3021v11.3021h-2.7083z"/><path d="m205.875 2.174v-2.9688h-2.1042v-2.5833h4.7917v7.125q-.8854.7604-1.9583 1.1563-1.0625.3854-2.2813.3854-3.0208 0-4.6667-2.0937-1.6458-2.1042-1.6458-5.9688 0-3.9271 1.6563-6 1.6667-2.0729 4.8021-2.0729.9375 0 1.8438.2708.9063.2604 1.6979.7604v3.4063q-.6458-.8333-1.4896-1.25-.8333-.4271-1.8333-.4271-1.75 0-2.6146 1.3229-.8646 1.3125-.8646 3.9896 0 2.5937.8333 3.9479.8333 1.3542 2.4271 1.3542.4792 0 .8333-.0833.3542-.0937.5729-.2708z"/><path d="m214.9375-1.8364q-2.3229-.8854-3.1458-1.8542-.8229-.9792-.8229-2.625 0-2.1146 1.3542-3.3229 1.3542-1.2083 3.7188-1.2083 1.0729 0 2.1458.25 1.0729.2396 2.125.7187v3q-.9896-.6979-2.0104-1.0625-1.0208-.3646-2.0208-.3646-1.1146 0-1.7083.4479-.5938.4479-.5938 1.2812 0 .6458.4271 1.0729.4375.4167 1.8125.9271l1.3229.5q1.875.6875 2.7604 1.8229.8854 1.1354.8854 2.8646 0 2.3542-1.3958 3.5208-1.3854 1.1562-4.1979 1.1562-1.1563 0-2.3229-.2812-1.1563-.2708-2.2396-.8125v-3.1769q1.2292.875 2.375 1.3021 1.1563.4271 2.2813.4271 1.1354 0 1.7604-.5104.625-.5208.625-1.4479 0-.6979-.4167-1.2188-.4167-.5312-1.2083-.8333z"/></g></svg>
