<svg enable-background="new" viewBox="0 0 240 118" xmlns="http://www.w3.org/2000/svg"><g fill="#fff" transform="translate(0 86.78)"><path d="m305.934 516.253c-96.313 0-177.413-64.681-202.395-152.909h62.158c5.906-5.734 9.002-13.494 3.096-19.229l-71.791-72.517c-5.906-5.734-15.482-5.734-21.388 0l-71.312 72.517c-8.468 9.939-2.81 13.494 3.096 19.229h56.978c25.937 109.521 123.99 191.136 241.558 191.136 89.433 0 167.626-47.325 211.454-118.104l-35.991-14.373c-37.692 56.768-102.162 94.25-175.463 94.25zm299.797-248.478h-54.34c-18.444-119.04-121.143-210.25-245.457-210.25-95.874 0-178.923 54.264-220.438 133.624l35.628 14.24c35.686-65.312 105.068-109.636 184.81-109.636 103.137 0 188.804 74.18 206.81 172.022h-65.293c-5.905 5.734-11.563 9.29-3.096 19.229l71.312 72.518c5.906 5.733 15.482 5.733 21.389 0l71.791-72.518c5.887-5.734 2.79-13.494-3.116-19.229z" transform="matrix(.0805 0 0 .0805 95.37 -65.48)"/><path d="m83.5052-2.3572q.4583.0938.7917.4375.3438.3333.8333 1.3125l2.8125 5.5938h-3.375l-1.875-3.9272q-.0833-.1666-.2187-.4583-.823-1.7604-1.9375-1.7604h-.9792v6.1458h-3.0729v-15.5521h4.4375q3 0 4.3021 1.0625 1.3125 1.0625 1.3125 3.4583 0 1.6042-.7813 2.5521-.7813.9479-2.25 1.1354zm-3.9479-5.625v4.2396h1.4479q1.2604 0 1.8021-.4896.5521-.5.5521-1.6354 0-1.1354-.5417-1.625-.5417-.4896-1.8125-.4896z"/><path d="m99.3698 4.9865h-9.6875v-15.5521h9.6875v2.7083h-6.6146v3.3542h5.9896v2.7083h-5.9896v4.0729h6.6146z"/><path d="m112.349-7.8572h-6.6146v3.3542h6.0208v2.7083h-6.0208v6.7813h-3.0729v-15.5522h9.6875z"/><path d="m122.0052-2.3572q.4583.0938.7917.4375.3438.3333.8333 1.3125l2.8125 5.5938h-3.375l-1.875-3.9271q-.0833-.1667-.2188-.4583-.8229-1.7604-1.9375-1.7604h-.9792v6.1458h-3.0729v-15.5522h4.4375q3 0 4.3021 1.0625 1.3125 1.0625 1.3125 3.4583 0 1.6042-.7813 2.5521-.7813.9479-2.25 1.1354zm-3.9479-5.625v4.2396h1.4479q1.2604 0 1.8021-.4896.5521-.5.5521-1.6354 0-1.1354-.5417-1.625-.5417-.4896-1.8125-.4896z"/><path d="m137.8698 4.9865h-9.6875v-15.5521h9.6875v2.7083h-6.6146v3.3542h5.9896v2.7083h-5.9896v4.0729h6.6146z"/><path d="m144.5781-1.8364q-2.3229-.8854-3.1458-1.8542-.8229-.9792-.8229-2.625 0-2.1146 1.3542-3.3229 1.3542-1.2083 3.7188-1.2083 1.0729 0 2.1458.25 1.0729.2396 2.125.7188v3q-.9896-.6979-2.0104-1.0625-1.0208-.3646-2.0208-.3646-1.1146 0-1.7083.4479-.5938.4479-.5938 1.2813 0 .6458.4271 1.0729.4375.4167 1.8125.9271l1.3229.5q1.875.6875 2.7604 1.8229.8854 1.1354.8854 2.8646 0 2.3542-1.3958 3.5208-1.3854 1.1563-4.1979 1.1563-1.1563 0-2.3229-.2813-1.1563-.2708-2.2396-.8125v-3.1771q1.2292.875 2.375 1.3021 1.1563.4271 2.2813.4271 1.1354 0 1.7604-.5104.625-.5208.625-1.4479 0-.6979-.4167-1.2188-.4167-.5313-1.2083-.8333z"/><path d="m153.526-10.5656h3.0729v5.9271h3.8438v-5.9271h3.0729v15.5521h-3.0729v-6.9167h-3.8438v6.9167h-3.0729z"/></g></svg>
