<svg enable-background="new" viewBox="0 0 240 118" xmlns="http://www.w3.org/2000/svg"><g fill="#fff" transform="translate(0 86.78)"><path d="m73.9427-1.8364q-2.3229-.8854-3.1458-1.8542-.8229-.9792-.8229-2.625 0-2.1146 1.3542-3.3229 1.3542-1.2083 3.7188-1.2083 1.0729 0 2.1458.25 1.0729.2396 2.125.7188v3q-.9896-.6979-2.0104-1.0625-1.0208-.3646-2.0208-.3646-1.1146 0-1.7083.4479-.5938.4479-.5938 1.2813 0 .6458.4271 1.0729.4375.4167 1.8125.9271l1.3229.5q1.875.6875 2.7604 1.8229.8854 1.1354.8854 2.8646 0 2.3542-1.3958 3.5208-1.3854 1.1563-4.1979 1.1563-1.1563 0-2.3229-.2813-1.1563-.2708-2.2396-.8125v-3.1771q1.2292.875 2.375 1.3021 1.1563.4271 2.2813.4271 1.1354 0 1.7604-.5104.625-.5208.625-1.4479 0-.6979-.4167-1.2188-.4167-.5313-1.2083-.8333z"/><path d="m92.901 4.9865h-9.6875v-15.5521h9.6875v2.7083h-6.6146v3.3542h5.9896v2.7083h-5.9896v4.0729h6.6146z"/><path d="m102.2552 4.9865h-3.0729v-12.8646h-3.9479v-2.6875h10.9688v2.6875h-3.9479z"/><path d="m115.0886 4.9865h-3.0729v-12.8646h-3.9479v-2.6875h10.9688v2.6875h-3.9479z"/><path d="m121.7552-7.8572v-2.7083h9.2604v2.7083h-3.0938v10.1354h3.0938v2.7083h-9.2604v-2.7083h3.0938v-10.1354z"/><path d="m134.0365-10.5656h3.3021l4.3333 11.3021v-11.3021h2.7083v15.5521h-3.2813l-4.3541-11.3021v11.3021h-2.7083z"/><path d="m154.7136 2.174v-2.9688h-2.1042v-2.5833h4.7917v7.125q-.8854.7604-1.9583 1.1563-1.0625.3854-2.2813.3854-3.0208 0-4.6667-2.0938-1.6458-2.1042-1.6458-5.9688 0-3.9271 1.6563-6 1.6667-2.0729 4.8021-2.0729.9375 0 1.8438.2708.9063.2604 1.6979.7604v3.4063q-.6458-.8333-1.4896-1.25-.8333-.4271-1.8333-.4271-1.75 0-2.6146 1.3229-.8646 1.3125-.8646 3.9896 0 2.5938.8333 3.9479.8333 1.3542 2.4271 1.3542.4792 0 .8333-.0833.3542-.0938.5729-.2708z"/><path d="m163.7761-1.8364q-2.3229-.8854-3.1458-1.8542-.8229-.9792-.8229-2.625 0-2.1146 1.3542-3.3229 1.3542-1.2083 3.7188-1.2083 1.0729 0 2.1458.25 1.0729.2396 2.125.7188v3q-.9896-.6979-2.0104-1.0625-1.0208-.3646-2.0208-.3646-1.1146 0-1.7083.4479-.5938.4479-.5938 1.2813 0 .6458.4271 1.0729.4375.4167 1.8125.9271l1.3229.5q1.875.6875 2.7604 1.8229.8854 1.1354.8854 2.8646 0 2.3542-1.3958 3.5208-1.3854 1.1563-4.1979 1.1563-1.1563 0-2.3229-.2813-1.1563-.2708-2.2396-.8125v-3.1771q1.2292.875 2.375 1.3021 1.1563.4271 2.2813.4271 1.1354 0 1.7604-.5104.625-.5208.625-1.4479 0-.6979-.4167-1.2188-.4167-.5313-1.2083-.8333z"/><path d="m122.4 267.261v-226.461c0-11.261-9.139-20.4-20.4-20.4s-20.4 9.14-20.4 20.4v226.46c-46.553 9.446-81.6 50.594-81.6 99.941s35.047 90.494 81.6 99.939v104.061c0 11.26 9.139 20.398 20.4 20.398s20.4-9.139 20.4-20.398v-104.06c46.553-9.445 81.6-50.592 81.6-99.939s-35.047-90.496-81.6-99.941zm-20.4 161.139c-33.803 0-61.2-27.396-61.2-61.199s27.397-61.201 61.2-61.201 61.2 27.398 61.2 61.201-27.397 61.199-61.2 61.199zm224.4-365.139v-22.461c0-11.261-9.14-20.4-20.4-20.4s-20.4 9.139-20.4 20.4v22.46c-46.553 9.445-81.6 50.592-81.6 99.94s35.047 90.494 81.6 99.939v308.061c0 11.26 9.139 20.398 20.4 20.398s20.4-9.139 20.4-20.398v-308.06c46.553-9.445 81.6-50.592 81.6-99.939s-35.047-90.495-81.6-99.94zm-20.4 161.139c-33.803 0-61.2-27.397-61.2-61.2s27.397-61.2 61.2-61.2 61.2 27.397 61.2 61.2-27.397 61.2-61.2 61.2zm224.4 124.461v-308.061c0-11.261-9.14-20.4-20.4-20.4s-20.4 9.139-20.4 20.4v308.061c-46.553 9.445-81.6 50.592-81.6 99.939s35.047 90.494 81.6 99.939v22.461c0 11.26 9.14 20.398 20.4 20.398s20.4-9.139 20.4-20.398v-22.46c46.553-9.445 81.6-50.592 81.6-99.939s-35.047-90.494-81.6-99.94zm-20.4 161.139c-33.803 0-61.2-27.396-61.2-61.199s27.397-61.201 61.2-61.201 61.2 27.398 61.2 61.201-27.397 61.199-61.2 61.199z" transform="matrix(.07 0 0 .07 98.57 -62.28)"/></g></svg>
