<svg enable-background="new" viewBox="0 0 240 118" xmlns="http://www.w3.org/2000/svg"><g fill="#fff" transform="translate(0 86.78)"><path d="m70.1198 2.1375h3.4375v-10.0937l-3.1979.7917v-2.7708l3.2188-.7708h2.9688v12.8436h3.4375v2.7083h-9.8646z"/><path d="m99.1406-1.977q-2.3229-.8854-3.1458-1.8542-.8229-.9792-.8229-2.625 0-2.1146 1.3542-3.3229 1.3542-1.2083 3.7188-1.2083 1.0729 0 2.1458.25 1.0729.2396 2.125.7188v3q-.9896-.6979-2.0104-1.0625-1.0208-.3646-2.0208-.3646-1.1146 0-1.7083.4479-.5938.4479-.5938 1.2813 0 .6458.4271 1.0729.4375.4167 1.8125.9271l1.3229.5q1.875.6875 2.7604 1.8229.8854 1.1354.8854 2.8646 0 2.3542-1.3958 3.5208-1.3854 1.1563-4.1979 1.1563-1.1563 0-2.3229-.2813-1.1563-.2708-2.2396-.8125v-3.1772q1.2292.875 2.375 1.3021 1.1563.4271 2.2813.4271 1.1354 0 1.7604-.5104.625-.5208.625-1.4479 0-.6979-.4167-1.2188-.4167-.5313-1.2083-.8333z"/><path d="m118.099 4.8459h-9.6875v-15.5521h9.6875v2.7083h-6.6146v3.3542h5.9896v2.7083h-5.9896v4.0729h6.6146z"/><path d="m130.7552 4.398q-.7292.375-1.5313.5625-.8021.1875-1.6875.1875-3.1458 0-4.8021-2.0729-1.6563-2.0729-1.6563-5.9896 0-3.9271 1.6563-6 1.6563-2.0729 4.8021-2.0729.8854 0 1.6979.1875.8125.1875 1.5208.5625v3.4167q-.7917-.7292-1.5417-1.0625-.7396-.3438-1.5313-.3438-1.6875 0-2.5521 1.3438-.8542 1.3333-.8542 3.9688 0 2.625.8542 3.9688.8646 1.3333 2.5521 1.3333.7917 0 1.5313-.3333.75-.3438 1.5417-1.0729z"/><path d="m138.7448-8.227q-1.1771 0-1.7188 1.2604-.5417 1.25-.5417 4.0521 0 2.7917.5417 4.0521.5417 1.25 1.7188 1.25 1.1875 0 1.7292-1.25.5417-1.2604.5417-4.0521 0-2.8021-.5417-4.0521-.5417-1.2604-1.7292-1.2604zm-5.4583 5.3125q0-3.9896 1.375-6.0313 1.3854-2.0417 4.0833-2.0417 2.7083 0 4.0833 2.0417 1.3854 2.0417 1.3854 6.0313 0 3.9792-1.3854 6.0208-1.375 2.0417-4.0833 2.0417-2.6979 0-4.0833-2.0417-1.375-2.0417-1.375-6.0208z"/><path d="m146.401-10.7062h3.3021l4.3333 11.3021v-11.3021h2.7083v15.5521h-3.2813l-4.354-11.3021v11.3021h-2.7083z"/><path d="m162.4948-7.9354v10.0104h.8333q1.8125 0 2.5833-1.1354.7708-1.1458.7708-3.8854 0-2.7188-.7708-3.8542-.7708-1.1354-2.5833-1.1354zm-3.0729-2.7708h3.2917q3.8125 0 5.4896 1.8229 1.6771 1.8125 1.6771 5.9375 0 4.1354-1.6771 5.9688-1.6771 1.8229-5.4896 1.8229h-3.2917z"/><path d="m306 0c-169.008 0-306 136.992-306 306s136.992 306 306 306 306-137.012 306-306-136.992-306-306-306zm0 573.75c-147.875 0-267.75-119.875-267.75-267.75s119.875-267.75 267.75-267.75 267.75 119.875 267.75 267.75-119.875 267.75-267.75 267.75zm114.75-286.875h-95.625v-95.625c0-10.557-8.568-19.125-19.125-19.125s-19.125 8.568-19.125 19.125v95.625h-95.625c-10.557 0-19.125 8.568-19.125 19.125s8.568 19.125 19.125 19.125h95.625v95.625c0 10.557 8.568 19.125 19.125 19.125s19.125-8.568 19.125-19.125v-95.625h95.625c10.557 0 19.125-8.568 19.125-19.125s-8.568-19.125-19.125-19.125z" transform="matrix(.0654 0 0 .0654 100 -60.71)"/></g></svg>
