<svg enable-background="new" viewBox="0 0 240 118" xmlns="http://www.w3.org/2000/svg"><g fill="#fff" transform="translate(0 86.78)"><path d="m594.568 110c-10.316 11.56-27.441 26.321-51.988 48.748-26.016 25.953-62.795 25.953-88.81 0-26.015-25.954-26.015-62.672 0-88.626 23.956-23.895 49.705-52.254 49.298-52.355-69.624-32.05-154.723-19.674-212.115 37.595-52.273 52.172-67.197 127.301-45.199 192.807l-221.228 220.738c-32.702 32.641-32.702 85.526 0 118.167s85.71 32.641 118.412 0l221.228-220.759c65.629 21.958 140.941 7.075 193.215-45.098 57.31-57.208 69.196-141.797 37.187-211.217zm-66.79 181.675c-46.872 46.77-117.332 54.578-172.827 24.73l-241.616 241.127c-16.351 16.311-42.854 16.311-59.206 0-16.351-16.31-16.351-42.773 0-59.083l241.616-241.147c-29.889-55.373-22.06-125.67 24.791-172.419 28.095-28.033 64.752-41.367 101.572-41.815-38.573 40.939-38.064 105.201 2.039 145.202 40.082 40 104.487 40.531 145.507 2.039-.448 36.758-13.801 73.334-41.876 101.366z" transform="matrix(.0655 0 0 .0655 99.97 -60.88)"/><path d="m54.5313-1.8364q-2.323-.8854-3.1459-1.8542-.8229-.9792-.8229-2.625 0-2.1146 1.3542-3.3229 1.3542-1.2083 3.7188-1.2083 1.0729 0 2.1458.25 1.0729.2396 2.125.7188v3q-.9896-.698-2.0105-1.0626-1.0208-.3646-2.0208-.3646-1.1146 0-1.7083.4479-.5938.4479-.5938 1.2813 0 .6458.4271 1.0729.4375.4167 1.8125.9271l1.3229.5q1.875.6875 2.7604 1.8229.8854 1.1354.8854 2.8646 0 2.3542-1.3958 3.5208-1.3854 1.1563-4.1979 1.1563-1.1563 0-2.3229-.2813-1.1563-.2708-2.2396-.8125v-3.1771q1.2292.875 2.375 1.3021 1.1563.4271 2.2813.4271 1.1354 0 1.7604-.5104.625-.5208.625-1.4479 0-.6979-.4167-1.2188-.4167-.5313-1.2083-.8333z"/><path d="m62.1354-10.5656h3.3125l3.0208 6.25 3.0313-6.25h3.3125l-4.8021 9.4271v6.125h-3.0729v-6.125z"/><path d="m80.1979-1.8364q-2.3229-.8854-3.1458-1.8542-.8229-.9792-.8229-2.625 0-2.1146 1.3542-3.3229 1.3542-1.2083 3.7188-1.2083 1.0729 0 2.1458.25 1.0729.2396 2.125.7188v3q-.9896-.6979-2.0104-1.0625-1.0208-.3646-2.0208-.3646-1.1146 0-1.7083.4479-.5938.4479-.5938 1.2813 0 .6458.4271 1.0729.4375.4167 1.8125.9271l1.3229.5q1.875.6875 2.7604 1.8229.8854 1.1354.8854 2.8646 0 2.3542-1.3958 3.5208-1.3854 1.1563-4.1979 1.1563-1.1563 0-2.3229-.2813-1.1563-.2708-2.2396-.8125v-3.1772q1.2292.875 2.375 1.3021 1.1563.4271 2.2813.4271 1.1354 0 1.7604-.5104.625-.5208.625-1.4479 0-.6979-.4167-1.2188-.4167-.5313-1.2083-.8333z"/><path d="m95.6771 4.9865h-3.0729v-12.8646h-3.9479v-2.6875h10.9687v2.6875h-3.9479z"/><path d="m111.9896 4.9865h-9.6875v-15.5521h9.6875v2.7083h-6.6146v3.3542h5.9896v2.7083h-5.9896v4.0729h6.6146z"/><path d="m114.2813-10.5656h3.6667l1.8542 6.8229 1.8438-6.8229h3.6875v15.5521h-2.6458v-12.4583l-1.6458 6.8021h-2.4479l-1.6667-6.8021v12.4583h-2.6458z"/><path d="m140.8438-7.8573v-2.7083h9.2604v2.7083h-3.0938v10.1354h3.0938v2.7083h-9.2604v-2.7082h3.0938v-10.1354z"/><path d="m153.125-10.5656h3.3021l4.3333 11.3021v-11.3021h2.7083v15.5521h-3.2813l-4.3541-11.3021v11.3021h-2.7083z"/><path d="m176.3021-7.8573h-6.6146v3.3542h6.0208v2.7083h-6.0208v6.7813h-3.0729v-15.5521h9.6875z"/><path d="m183.9688-8.0864q-1.1771 0-1.7188 1.2604-.5417 1.25-.5417 4.0521 0 2.7917.5417 4.0521.5417 1.25 1.7188 1.25 1.1875 0 1.7292-1.25.5417-1.2604.5417-4.0521 0-2.8021-.5417-4.0521-.5417-1.2604-1.7292-1.2604zm-5.4583 5.3125q0-3.9896 1.375-6.0313 1.3854-2.0417 4.0833-2.0417 2.7083 0 4.0833 2.0417 1.3854 2.0417 1.3854 6.0313 0 3.9792-1.3854 6.0208-1.375 2.0417-4.0833 2.0417-2.6979 0-4.0833-2.0417-1.375-2.0417-1.375-6.0208z"/></g></svg>
