<svg enable-background="new" viewBox="0 0 240 118" xmlns="http://www.w3.org/2000/svg"><g fill="#fff" transform="translate(0 86.78)"><path d="m63.7865 4.9863h-3.073v-12.8646h-3.9479v-2.6875h10.9688v2.6875h-3.9479z"/><path d="m75.0781-7.7533-1.4479 6.3646h2.9063zm-1.875-2.8125h3.7604l4.198 15.5521h-3.073l-.9583-3.8438h-4.1146l-.9375 3.8438h-3.0729z"/><path d="m82.7344-10.5658h3.3021l4.3333 11.3021v-11.3021h2.7083v15.5521h-3.2813l-4.3541-11.3021v11.3021h-2.7083z"/><path d="m95.5469-10.5658h3.0729v6.1458l4.8125-6.1458h3.4792l-4.9063 6.125 5.0833 9.4271h-3.4167l-3.6875-7-1.3646 1.7292v5.2708h-3.0729z"/><path d="m128.401-2.3575q.4583.0938.7917.4375.3438.3333.8333 1.3125l2.8125 5.5938h-3.375l-1.875-3.9271q-.0833-.1667-.2188-.4583-.8229-1.7604-1.9375-1.7604h-.9792v6.1458h-3.0729v-15.5521h4.4375q3 0 4.3021 1.0625 1.3125 1.0625 1.3125 3.4583 0 1.6042-.7813 2.5521-.7813.9479-2.25 1.1354zm-3.9479-5.625v4.2396h1.4479q1.2604 0 1.8021-.4896.5521-.5.5521-1.6354 0-1.1354-.5417-1.625-.5417-.4896-1.8125-.4896z"/><path d="m144.2656 4.9863h-9.6875v-15.5521h9.6875v2.7083h-6.6146v3.3542h5.9896v2.7083h-5.9896v4.0729h6.6146z"/><path d="m150.974-1.8366q-2.3229-.8854-3.1458-1.8542-.8229-.9792-.8229-2.625 0-2.1146 1.3542-3.3229 1.3542-1.2083 3.7188-1.2083 1.0729 0 2.1458.25 1.0729.2396 2.125.7187v3q-.9896-.6979-2.0104-1.0625-1.0208-.3646-2.0208-.3646-1.1146 0-1.7083.4479-.5938.4479-.5938 1.2813 0 .6458.4271 1.0729.4375.4167 1.8125.9271l1.3229.5q1.875.6875 2.7604 1.8229.8854 1.1354.8854 2.8646 0 2.3542-1.3958 3.5208-1.3854 1.1563-4.1979 1.1563-1.1563 0-2.3229-.2813-1.1563-.2708-2.2396-.8125v-3.1771q1.2292.875 2.375 1.3021 1.1563.4271 2.2813.4271 1.1354 0 1.7604-.5104.625-.5208.625-1.4479 0-.6979-.4167-1.2188-.4167-.5313-1.2083-.8333z"/><path d="m169.9323 4.9863h-9.6875v-15.5521h9.6875v2.7083h-6.6146v3.3542h5.9896v2.7083h-5.9896v4.0729h6.6146z"/><path d="m179.2865 4.9863h-3.0729v-12.8646h-3.9479v-2.6875h10.9688v2.6875h-3.9479z"/><path d="m591.6 367.235c-11.261 0-20.399 9.139-20.399 20.399v142.8h-530.401v-142.8c0-11.261-9.139-20.399-20.4-20.399s-20.4 9.139-20.4 20.4v163.2c0 11.261 9.139 20.4 20.4 20.4h571.2c11.261 0 20.4-9.14 20.4-20.4v-163.2c0-11.281-9.14-20.4-20.4-20.4z" transform="matrix(.0754 0 0 .0754 96.93 -63.92)"/><path d="m673.195 348.856-523.118-340.875c-31.009-16.88-66.578-9.344-66.578 45.554v671.209c0 54.509 38.156 64.215 66.579 45.525l523.118-340.874c30.145-21.331 29.283-60.933-.001-80.539zm-534.548 353.5v-626.461l496.363 313.231z" transform="matrix(0 .0591 -.0591 0 143 -65.78)"/></g></svg>
