<svg enable-background="new" viewBox="0 0 240 118" xmlns="http://www.w3.org/2000/svg"><g fill="#fff" transform="translate(0 86.78)"><path d="m76.7813 4.9874h-3.073v-12.8646h-3.9479v-2.6875h10.9688v2.6875h-3.9479z"/><path d="m82.7604-.7522v-9.8125h3.0729v10.5834q0 1.1667.5938 1.8333.5938.6563 1.6458.6563 1.0521 0 1.6458-.6563.5938-.6667.5938-1.8333v-10.5834h3.0729v9.8125q0 3.1667-1.2604 4.6042-1.2604 1.4375-4.0521 1.4375-2.7813 0-4.0521-1.4375-1.2604-1.4375-1.2604-4.6042z"/><path d="m102.8958-2.3563q.4583.0938.7917.4375.3438.3333.8333 1.3125l2.8125 5.5938h-3.375l-1.875-3.9271q-.0833-.1667-.2187-.4584-.8229-1.7604-1.9375-1.7604h-.9792v6.1458h-3.0729v-15.5521h4.4375q3 0 4.3021 1.0625 1.3125 1.0625 1.3125 3.4583 0 1.6042-.7813 2.5521-.7813.9479-2.25 1.1354zm-3.9479-5.625v4.2396h1.4479q1.2604 0 1.8021-.4896.5521-.5.5521-1.6354 0-1.1354-.5417-1.625-.5417-.4896-1.8125-.4896z"/><path d="m108.5625-10.5647h3.3021l4.3333 11.3021v-11.3021h2.7083v15.5521h-3.2812l-4.3542-11.3021v11.3021h-2.7083z"/><path d="m139.4063-8.0855q-1.1771 0-1.7188 1.2604-.5417 1.25-.5417 4.0521 0 2.7917.5417 4.0521.5417 1.25 1.7188 1.25 1.1875 0 1.7292-1.25.5417-1.2604.5417-4.0521 0-2.8021-.5417-4.0521-.5417-1.2604-1.7292-1.2604zm-5.4583 5.3125q0-3.9896 1.375-6.0313 1.3854-2.0417 4.0833-2.0417 2.7083 0 4.0833 2.0417 1.3854 2.0417 1.3854 6.0313 0 3.9792-1.3854 6.0208-1.375 2.0417-4.0833 2.0417-2.6979 0-4.0833-2.0417-1.375-2.0417-1.375-6.0208z"/><path d="m157.4063-7.8563h-6.6146v3.3542h6.0208v2.7083h-6.0208v6.7813h-3.0729v-15.5522h9.6875z"/><path d="m170.2396-7.8563h-6.6146v3.3542h6.0208v2.7083h-6.0208v6.7813h-3.0729v-15.5522h9.6875z"/><path d="m116.25 28.2441c-9.249 1.7582-16.25 9.8653-16.25 19.627 0 11.0463 8.955 20 20 20 11.0463 0 20-8.955 20-20 0-9.7611-6.9996-17.8691-16.25-19.627v2.5586c7.8585 1.7196 13.75 8.6938 13.75 17.0684 0 9.665-7.835 17.5-17.5 17.5s-17.5-7.835-17.5-17.5c0-8.3746 5.8915-15.3488 13.75-17.0684zm4.9958-1.3943c0-.4941-.5613-1.0308-1.2479-1.0308s-1.2521.5367-1.2521 1.0308c0 6.1829 0 7.2227.004 15.4305 0 .6353.56 1.151 1.25 1.151s1.25-.5156 1.25-1.151c-.004-10.7764.009-10.9674-.004-15.4305z" transform="matrix(1.00062 0 0 1.00062 -.064598 -88.730632)"/></g></svg>
