<svg enable-background="new" viewBox="0 0 240 118" xmlns="http://www.w3.org/2000/svg"><g fill="#fff" transform="translate(0 86.78)"><path d="m37.7604-.7528v-9.8125h3.0729v10.5833q0 1.1667.5938 1.8333.5938.6563 1.6458.6563 1.0521 0 1.6458-.6563.5938-.6667.5938-1.8333v-10.5833h3.0729v9.8125q0 3.1667-1.2604 4.6042-1.2604 1.4375-4.0521 1.4375-2.7813 0-4.0521-1.4375-1.2604-1.4375-1.2604-4.6042z"/><path d="m54.25-7.982v4.5625h1.2604q1.5104 0 2.1146-.5104.6146-.5104.6146-1.7708 0-1.2604-.6146-1.7708-.6042-.5104-2.1146-.5104zm-3.0729-2.5833h4.2188q3.2188 0 4.625 1.1458 1.4167 1.1458 1.4167 3.7188 0 2.5729-1.4167 3.7188-1.4063 1.1458-4.625 1.1458h-1.1459v5.8228h-3.0729z"/><path d="m84.2187 4.2367q-.7813.5208-1.6667.7813-.875.2708-1.7813.2708-2.3333 0-3.7813-1.3646-1.4479-1.3646-1.4479-3.5417 0-1.5104.7292-2.75.7396-1.2396 2.1875-2.1563-.5208-.8125-.7708-1.5-.25-.6979-.25-1.3229 0-1.6875 1.1354-2.5938 1.1354-.9063 3.2813-.9063.7604 0 1.4896.1146.7292.1146 1.4375.3333v2.6667q-.6667-.375-1.3542-.5625-.6771-.1979-1.3542-.1979-.8333 0-1.2604.2917-.4271.2917-.4271.8542 0 .375.3125 1.0313.3229.6563 1.0313 1.7188l3.2604 5q.2188-.3958.3333-.9063.1146-.5104.1146-1.1042 0-.3125-.0208-.6042-.0208-.3021-.0625-.5625h2.4479v.5313q0 1.5104-.3542 2.6458-.3541 1.1251-1.1145 2.0209l1.6875 2.5625h-3.3021zm-4.4791-6.8645q-.6875.4479-1.0417 1.0729-.3438.6146-.3438 1.375 0 1.2708.8125 2.1458.8229.8646 2.0104.8646.2917 0 .5938-.0625.3125-.0729.6042-.1979.0208-.0104.0833-.0417.3021-.1458.4896-.2708z"/><path d="m108.7813 4.9867h-3.0729v-12.8645h-3.9479v-2.6875h10.9688v2.6875h-3.9479z"/><path d="m114.7604-.7528v-9.8125h3.0729v10.5833q0 1.1667.5938 1.8333.5938.6563 1.6458.6563 1.0521 0 1.6458-.6563.5938-.6667.5938-1.8333v-10.5833h3.0729v9.8125q0 3.1667-1.2604 4.6042-1.2604 1.4375-4.0521 1.4375-2.7813 0-4.0521-1.4375-1.2604-1.4375-1.2604-4.6042z"/><path d="m134.8958-2.357q.4583.0938.7917.4375.3438.3333.8333 1.3125l2.8125 5.5938h-3.375l-1.875-3.9271q-.0833-.1667-.2187-.4584-.8229-1.7604-1.9375-1.7604h-.9792v6.1458h-3.0729v-15.552h4.4375q3 0 4.3021 1.0625 1.3125 1.0625 1.3125 3.4583 0 1.6042-.7813 2.5521-.7813.9479-2.25 1.1354zm-3.9479-5.625v4.2396h1.4479q1.2604 0 1.8021-.4896.5521-.5.5521-1.6354 0-1.1354-.5417-1.625-.5417-.4896-1.8125-.4896z"/><path d="m140.5625-10.5653h3.3021l4.3333 11.3021v-11.3021h2.7083v15.552h-3.2812l-4.3542-11.302v11.302h-2.7083z"/><path d="m171.4063-8.0862q-1.1771 0-1.7188 1.2604-.5417 1.25-.5417 4.0521 0 2.7917.5417 4.0521.5417 1.25 1.7188 1.25 1.1875 0 1.7292-1.25.5417-1.2604.5417-4.0521 0-2.8021-.5417-4.0521-.5417-1.2604-1.7292-1.2604zm-5.4583 5.3125q0-3.9896 1.375-6.0313 1.3854-2.0417 4.0833-2.0417 2.7083 0 4.0833 2.0417 1.3854 2.0417 1.3854 6.0313 0 3.9792-1.3854 6.0208-1.375 2.0417-4.0833 2.0417-2.6979 0-4.0833-2.0417-1.375-2.0417-1.375-6.0208z"/><path d="m189.4063-7.857h-6.6146v3.3542h6.0208v2.7083h-6.0208v6.7813h-3.0729v-15.5521h9.6875z"/><path d="m202.2396-7.857h-6.6146v3.3542h6.0208v2.7083h-6.0208v6.7813h-3.0729v-15.5521h9.6875z"/><path d="m94.2514-59.3899-22.28 34.1916c-1.1033 2.0268-.6107 4.3516 2.9775 4.3516h43.871c3.5628 0 4.1972-2.4939 2.9756-4.3517l-22.28-34.1916c-1.3942-1.9703-3.9827-1.914-5.2641.0001zm23.1052 34.9387h-40.9462l20.4732-32.4429z"/><path d="m144.8002-60.4736c-9.249 1.7582-16.25 9.8653-16.25 19.6269 0 11.0463 8.955 20 20 20 11.0463 0 20-8.955 20-20 0-9.7611-6.9996-17.8691-16.25-19.6269v2.5586c7.8586 1.7196 13.75 8.6938 13.75 17.0684 0 9.665-7.835 17.5-17.5 17.5s-17.5-7.835-17.5-17.5c0-8.3746 5.8915-15.3488 13.75-17.0684zm4.9958-1.3943c0-.4941-.5613-1.0308-1.2479-1.0308s-1.2521.5367-1.2521 1.0308c0 6.1829 0 7.2227.004 15.4305 0 .6353.56 1.151 1.25 1.151s1.25-.5156 1.25-1.151c-.004-10.7764.009-10.9674-.004-15.4305z"/></g></svg>
