<svg enable-background="new" viewBox="0 0 240 118" xmlns="http://www.w3.org/2000/svg"><g fill="#fff" transform="translate(0 86.78)"><path d="m673.195 348.856-523.118-340.875c-31.009-16.88-66.578-9.344-66.578 45.554v671.209c0 54.509 38.156 64.215 66.579 45.525l523.118-340.874c30.145-21.331 29.283-60.933-.001-80.539zm-534.548 353.5v-626.461l496.363 313.231z" transform="matrix(0 -.0654 .0654 0 71.21 -15.39)"/><path d="m673.195 348.856-523.118-340.875c-31.009-16.88-66.578-9.344-66.578 45.554v671.209c0 54.509 38.156 64.215 66.579 45.525l523.118-340.874c30.145-21.331 29.283-60.933-.001-80.539zm-534.548 353.5v-626.461l496.363 313.231z" transform="matrix(0 .0654 .0654 0 117.88 -66.3)"/><path d="m63.4271-.7531v-9.8125h3.0729v10.5833q0 1.1667.5938 1.8333.5938.6563 1.6458.6563 1.0521 0 1.6458-.6563.5938-.6667.5938-1.8333v-10.5833h3.0729v9.8125q0 3.1667-1.2604 4.6042-1.2604 1.4375-4.0521 1.4375-2.7813 0-4.0521-1.4375-1.2604-1.4375-1.2604-4.6042z"/><path d="m79.9167-7.9823v4.5625h1.2604q1.5104 0 2.1146-.5104.6146-.5104.6146-1.7708 0-1.2604-.6146-1.7708-.6042-.5104-2.1146-.5104zm-3.0729-2.5833h4.2188q3.2188 0 4.625 1.1458 1.4167 1.1458 1.4167 3.7188 0 2.5729-1.4167 3.7188-1.4063 1.1458-4.625 1.1458h-1.1459v5.8229h-3.0729z"/><path d="m109.8854 4.2365q-.7813.5208-1.6667.7813-.875.2708-1.7813.2708-2.3333 0-3.7813-1.3646-1.4479-1.3646-1.4479-3.5417 0-1.5104.7292-2.75.7396-1.2396 2.1875-2.1563-.5208-.8125-.7708-1.5-.25-.6979-.25-1.3229 0-1.6875 1.1354-2.5938 1.1354-.9063 3.2813-.9063.7604 0 1.4896.1146.7292.1146 1.4375.3333v2.6667q-.6667-.375-1.3542-.5625-.6771-.1979-1.3542-.1979-.8333 0-1.2604.2917-.4271.2917-.4271.8542 0 .375.3125 1.0313.3229.6563 1.0313 1.7188l3.2604 5q.2188-.3958.3333-.9063.1146-.5104.1146-1.1042 0-.3125-.0208-.6042-.0208-.3021-.0625-.5625h2.4479v.5313q0 1.5104-.3542 2.6458-.3541 1.1251-1.1145 2.0209l1.6875 2.5625h-3.3021zm-4.4792-6.8646q-.6875.4479-1.0417 1.0729-.3438.6146-.3438 1.375 0 1.2708.8125 2.1458.8229.8646 2.0104.8646.2917 0 .5938-.0625.3125-.0729.6042-.1979.0208-.0104.0833-.0417.3021-.1458.4896-.2708z"/><path d="m130.9896-7.7948v10.0104h.8333q1.8125 0 2.5833-1.1354.7708-1.1458.7708-3.8854 0-2.7188-.7708-3.8542-.7708-1.1354-2.5833-1.1354zm-3.0729-2.7708h3.2917q3.8125 0 5.4896 1.8229 1.6771 1.8125 1.6771 5.9375 0 4.1354-1.6771 5.9688-1.6771 1.8229-5.4896 1.8229h-3.2917z"/><path d="m145.7396-8.0864q-1.1771 0-1.7188 1.2604-.5417 1.25-.5417 4.0521 0 2.7917.5417 4.0521.5417 1.25 1.7188 1.25 1.1875 0 1.7292-1.25.5417-1.2604.5417-4.0521 0-2.8021-.5417-4.0521-.5417-1.2604-1.7292-1.2604zm-5.4583 5.3125q0-3.9896 1.375-6.0313 1.3854-2.0417 4.0833-2.0417 2.7083 0 4.0833 2.0417 1.3854 2.0417 1.3854 6.0313 0 3.9792-1.3854 6.0208-1.375 2.0417-4.0833 2.0417-2.6979 0-4.0833-2.0417-1.375-2.0417-1.375-6.0208z"/><path d="m152.1563-10.5656h2.6875l1.1146 11.4167 1.3438-7.3854h2.5521l1.5625 7.3854.875-11.4167h2.7082l-1.7917 15.5521h-2.8646l-1.7708-8.1667-1.6563 8.1667h-2.8438z"/><path d="m166.2292-10.5656h3.3021l4.3333 11.3021v-11.3021h2.7083v15.5521h-3.2813l-4.3541-11.3021v11.3021h-2.7083z"/></g></svg>
