<svg enable-background="new" viewBox="0 0 240 118" xmlns="http://www.w3.org/2000/svg"><g fill="#fff" transform="translate(0 86.78)"><path d="m117.3441-59.3902-22.28 34.1916c-1.1033 2.0268-.6107 4.3516 2.9775 4.3516h43.871c3.5628 0 4.1972-2.4939 2.9756-4.3517l-22.28-34.1915c-1.3942-1.9703-3.9827-1.914-5.2641.0001zm23.1052 34.9387h-40.9463l20.4732-32.4429z"/><path d="m69.6198-.7531v-9.8125h3.0729v10.5833q0 1.1667.5938 1.8333.5938.6563 1.6458.6563 1.0521 0 1.6458-.6563.5938-.6667.5938-1.8333v-10.5833h3.0729v9.8125q0 3.1667-1.2604 4.6042-1.2604 1.4375-4.0521 1.4375-2.7813 0-4.0521-1.4375-1.2604-1.4375-1.2604-4.6042z"/><path d="m86.1094-7.9823v4.5625h1.2604q1.5104 0 2.1146-.5104.6146-.5104.6146-1.7708 0-1.2604-.6146-1.7708-.6042-.5104-2.1146-.5104zm-3.0729-2.5833h4.2188q3.2188 0 4.625 1.1458 1.4167 1.1458 1.4167 3.7188 0 2.5729-1.4167 3.7188-1.4063 1.1458-4.625 1.1458h-1.1459v5.8229h-3.0729z"/><path d="m109.026-10.5656h8.4479v2.7083h-5.9583v2.8855q.375-.1458.8021-.2083.4271-.0729.9063-.0729 2.3125 0 3.75 1.4583 1.4375 1.4583 1.4375 3.7917 0 2.4479-1.5625 3.875-1.5521 1.4167-4.2396 1.4167-1 0-2.0208-.1667-1.0208-.1667-2.0833-.5v-2.7709q.8646.4271 1.7708.6458.9167.2083 1.8333.2083 1.625 0 2.4688-.6875.8438-.6979.8438-2.0208 0-1.2188-.8438-1.9479-.8333-.7396-2.2292-.7396-.8229 0-1.6563.2083-.8229.1979-1.6667.6042z"/><path d="m124.974-2.7739q0-.5521.375-.9271.375-.375.9167-.375.5521 0 .9271.375.375.375.375.9271 0 .5417-.375.9167-.375.375-.9271.375-.5417 0-.9167-.3646-.375-.375-.375-.9271zm1.2917-5.4688q-1.0625 0-1.5521 1.3021-.4896 1.3021-.4896 4.1667 0 2.8542.4896 4.1563.4896 1.3021 1.5521 1.3021 1.0729 0 1.5625-1.3021.4896-1.3021.4896-4.1563 0-2.8646-.4896-4.1667-.4896-1.3021-1.5625-1.3021zm-5.1354 5.4688q0-4.0417 1.2813-6.0521 1.2813-2.0208 3.8542-2.0208 2.5833 0 3.8646 2.0104 1.2813 2.0104 1.2813 6.0625 0 4.0417-1.2813 6.0521-1.2813 2.0104-3.8646 2.0104-2.5729 0-3.8542-2.0104-1.2813-2.0208-1.2813-6.0521z"/><path d="m152.7031-5.5135q.3438-.7396.875-1.0938.5313-.3542 1.3021-.3542 1.5104 0 2.0833 1.0417.5833 1.0417.5833 4.3333v6.5729h-2.5v-7.4895q0-1.3021-.1979-1.7396-.1979-.4375-.7188-.4375-.5208 0-.7292.4479-.2083.4479-.2083 1.7292v7.4896h-2.4688v-7.4896q0-1.2813-.2083-1.7292-.2083-.4479-.7292-.4479-.5208 0-.7188.4375-.1979.4375-.1979 1.7396v7.4896h-2.5v-11.6667h2.2188v1.2083q.2604-.6875.8333-1.0833.5729-.4063 1.2813-.4063.7083 0 1.2917.4271.5833.4167.7083 1.0208z"/><path d="m165.5365-5.5135q.3438-.7396.875-1.0938.5313-.3542 1.3021-.3542 1.5104 0 2.0833 1.0417.5833 1.0417.5833 4.3333v6.5729h-2.5v-7.4895q0-1.3021-.1979-1.7396-.1979-.4375-.7188-.4375-.5208 0-.7292.4479-.2083.4479-.2083 1.7292v7.4896h-2.4688v-7.4896q0-1.2813-.2083-1.7292-.2083-.4479-.7292-.4479-.5208 0-.7188.4375-.1979.4375-.1979 1.7396v7.4896h-2.5v-11.6667h2.2188v1.2083q.2604-.6875.8333-1.0833.5729-.4063 1.2813-.4063.7083 0 1.2917.4271.5833.4167.7083 1.0208z"/></g></svg>
