<svg enable-background="new" viewBox="0 0 240 118" xmlns="http://www.w3.org/2000/svg"><g fill="#fff" transform="translate(0 86.78)"><path d="m153.7504-36.1374-7.4985-4.3303v3.089h-38.327l7.4627-7.8844c.6351-.5091 1.4661-.8662 2.3209-.886 3.458 0 5.5115-.0009 6.2674-.0024.5124 1.4598 1.8887 2.5134 3.5248 2.5134 2.0699 0 3.7496-1.6796 3.7496-3.7502 0-2.0715-1.6796-3.7505-3.7496-3.7505-1.6362 0-3.0125 1.0531-3.5248 2.5116l-6.194-.0011c-1.6787 0-3.4378.921-4.5574 2.0008.0306-.0321.0623-.0662-.002.0006-.0238.0265-7.9177 8.3643-7.9177 8.3643-.6338.5083-1.4643.8632-2.3185.8836h-4.3357c-.5747-2.8643-3.104-5.0223-6.1381-5.0223-3.4592 0-6.2632 2.804-6.2632 6.2622 0 3.4592 2.804 6.2634 6.2632 6.2634 3.0346 0 5.564-2.1598 6.1387-5.0264h4.2597c.0113 0 .0216.0006.0329 0h9.4218c.8526.0215 1.682.3771 2.3152.886 0 0 7.8922 8.337 7.9166 8.3639.0632.067.0318.0321.0006.0006 1.1196 1.0796 2.8794 2 4.5584 2l5.9692-.0014v2.5142h7.5004v-7.4997h-7.5005v2.5109s-1.5722-.0028-6.0423-.0028c-.8549-.02-1.6868-.3763-2.3216-.8854l-7.4643-7.8859h28.9542v3.094z"/><path d="m101.6823-1.0448v-9.8125h3.0729v10.5833q0 1.1667.5938 1.8333.5938.6563 1.6458.6563 1.0521 0 1.6458-.6563.5938-.6667.5938-1.8333v-10.5833h3.0729v9.8125q0 3.1667-1.2604 4.6042-1.2604 1.4375-4.0521 1.4375-2.7813 0-4.0521-1.4375-1.2604-1.4375-1.2604-4.6042z"/><path d="m118.724-2.1282q-2.3229-.8854-3.1458-1.8542-.8229-.9792-.8229-2.625 0-2.1146 1.3542-3.3229 1.3542-1.2083 3.7188-1.2083 1.0729 0 2.1458.25 1.0729.2396 2.125.7188v3q-.9896-.6979-2.0104-1.0625-1.0208-.3646-2.0208-.3646-1.1146 0-1.7083.4479-.5938.4479-.5938 1.2813 0 .6458.4271 1.0729.4375.4167 1.8125.9271l1.3229.5q1.875.6875 2.7604 1.8229.8854 1.1354.8854 2.8646 0 2.3542-1.3958 3.5208-1.3854 1.1563-4.1979 1.1563-1.1563 0-2.3229-.2813-1.1563-.2708-2.2396-.8125v-3.1771q1.2292.875 2.375 1.3021 1.1563.4271 2.2813.4271 1.1354 0 1.7604-.5104.625-.5208.625-1.4479 0-.6979-.4167-1.2188-.4167-.5312-1.2083-.8333z"/><path d="m130.5156-2.3678v4.6042h2.0417q1.4688 0 2.0521-.5.5938-.5.5938-1.7396 0-1.2604-.6146-1.8125-.6146-.5521-2.0313-.5521zm0-6.0625v3.6146h2.0417q1.1667 0 1.6563-.4167.5-.4167.5-1.375 0-.9583-.5104-1.3854-.5-.4375-1.6458-.4375zm-2.9688-2.4479h5.0104q2.5938 0 3.8958.9896 1.3125.9792 1.3125 2.9375 0 1.5-.7708 2.3438-.7708.8438-2.2604.9792 1.7813.1771 2.6771 1.1979.9063 1.0208.9063 2.8542 0 2.25-1.3542 3.2604-1.3542 1.0104-4.4063 1.0104h-5.0104z"/></g></svg>
