<svg enable-background="new" viewBox="0 0 240 118" xmlns="http://www.w3.org/2000/svg"><g fill="#fff" transform="translate(0 86.78)"><path d="m643.5 742.5h-49.5v-173.25c0-95.684-77.566-173.25-173.25-173.25 95.684 0 173.25-77.566 173.25-173.25v-173.25h49.5c13.662 0 24.75-11.088 24.75-24.75s-11.088-24.75-24.75-24.75h-495c-13.662 0-24.75 11.088-24.75 24.75s11.088 24.75 24.75 24.75h49.5v173.25c0 95.684 77.566 173.25 173.25 173.25-95.684 0-173.25 77.566-173.25 173.25v173.25h-49.5c-13.662 0-24.75 11.088-24.75 24.75s11.088 24.75 24.75 24.75h495c13.662 0 24.75-11.088 24.75-24.75s-11.088-24.75-24.75-24.75zm-396-519.75c0-43.387 0-173.25 0-173.25h297v173.25c0 68.335-58.188 123.75-129.938 123.75h-37.125c-71.75 0-129.937-55.415-129.937-123.75zm297 519.75h-297s0-129.888 0-173.25c0-68.335 58.187-123.75 129.938-123.75h37.125c71.75 0 129.938 55.415 129.938 123.75-.001 39.822-.001 173.25-.001 173.25z" transform="matrix(.0588 0 0 .0588 96.73 -69.09)"/><path d="m37.2461 1.0382v5.7031h1.5755q1.888 0 2.6432-.638.7682-.638.7682-2.2135 0-1.5755-.7682-2.2135-.7552-.638-2.6432-.638zm-3.8411-3.2292h5.2734q4.0234 0 5.7813 1.4323 1.7708 1.4323 1.7708 4.6484 0 3.2161-1.7708 4.6484-1.7578 1.4323-5.7813 1.4323h-1.4323v7.2786h-3.8411z"/><path d="m50.2669 17.2491v-19.4401h3.8411v16.0547h8.2161v3.3854z"/><path d="m77.6758 17.2491h-12.1094v-19.4401h12.1094v3.3854h-8.2682v4.1927h7.487v3.3854h-7.487v5.0911h8.2682z"/><path d="m87.4414 1.3246-1.8099 7.9557h3.6328zm-2.3438-3.5156h4.7005l5.2474 19.4401h-3.8412l-1.1979-4.8047h-5.1432l-1.1719 4.8047h-3.8412z"/><path d="m102.1029 8.7205q-2.9036-1.1068-3.9323-2.3177-1.0287-1.224-1.0287-3.2813 0-2.6432 1.6927-4.1536 1.6927-1.5104 4.6484-1.5104 1.3411 0 2.6823.3125 1.3412.2995 2.6563.8984v3.75q-1.237-.8724-2.513-1.3281-1.276-.4557-2.526-.4557-1.3932 0-2.1354.5599-.7422.5599-.7422 1.6016 0 .8073.5339 1.3411.5469.5208 2.2656 1.1589l1.6537.625q2.3438.8594 3.4505 2.2786 1.1068 1.4193 1.1068 3.5807 0 2.9427-1.7448 4.401-1.7318 1.4453-5.2474 1.4453-1.4453 0-2.9036-.3516-1.4453-.3385-2.7995-1.0156v-3.9714q1.5365 1.0938 2.9687 1.6276 1.4453.5339 2.8516.5339 1.4193 0 2.2005-.638.7813-.651.7813-1.8099 0-.8724-.5208-1.5234-.5208-.6641-1.5104-1.0417z"/><path d="m125.8008 17.2491h-12.1094v-19.4401h12.1094v3.3854h-8.2682v4.1927h7.487v3.3854h-7.487v5.0911h8.2682z"/><path d="m143.5872-2.191h3.3594l1.3932 14.2708 1.6797-9.2318h3.1901l1.9531 9.2318 1.0938-14.2708h3.3854l-2.2396 19.4401h-3.5807l-2.2135-10.2083-2.0703 10.2083h-3.5547z"/><path d="m167.6497 1.3246-1.8099 7.9557h3.6328zm-2.3438-3.5156h4.7005l5.2474 19.4401h-3.8412l-1.1979-4.8047h-5.1432l-1.1719 4.8047h-3.8412z"/><path d="m177.9102 1.1944v-3.3854h11.5755v3.3854h-3.8672v12.6693h3.8672v3.3854h-11.5755v-3.3854h3.8672v-12.6693z"/><path d="m201.6602 17.2491h-3.8412v-16.0807h-4.9349v-3.3594h13.7109v3.3594h-4.9349z"/></g></svg>
