<svg viewBox="0 0 228 39" xmlns="http://www.w3.org/2000/svg"><g transform="matrix(1.1965 0 0 -1.1965 -158.39 358.47)"><g transform="matrix(.25507 0 0 .25507 103.59 198.9)"><g transform="translate(187.4,343.95)"><path d="m0 0c7.914 0 15.075-3.188 20.246-8.366l13.945 13.931c-8.761 8.734-20.84 14.158-34.191 14.158-26.713 0-48.335-21.648-48.335-48.336 0-26.715 21.622-48.34 48.335-48.34 13.351 0 25.43 5.395 34.191 14.141l-13.945 13.934c-5.171-5.184-12.332-8.383-20.246-8.383-15.807 0-28.65 12.81-28.65 28.648 0 15.812 12.843 28.613 28.65 28.613" fill="#f0531d"/></g><g transform="translate(232.59,360.19)"><path d="m0 0h8.634l2.839-13.605c0.237-1.46 0.454-2.898 0.65-4.319 0.197-1.42 0.415-2.878 0.651-4.377h0.237c0.275 1.499 0.541 2.979 0.798 4.438 0.256 1.459 0.561 2.879 0.918 4.258l3.252 13.605h7.513l3.311-13.605c0.355-1.46 0.67-2.898 0.947-4.319 0.274-1.42 0.569-2.878 0.887-4.377h0.237c0.275 1.499 0.502 2.957 0.68 4.377 0.176 1.421 0.402 2.859 0.68 4.319l2.781 13.605h8.043l-7.037-29.338h-10.175l-2.661 11.71c-0.318 1.382-0.593 2.76-0.829 4.142-0.237 1.38-0.494 2.857-0.769 4.435h-0.236c-0.277-1.578-0.525-3.055-0.74-4.435-0.217-1.382-0.463-2.76-0.739-4.142l-2.603-11.71h-9.937z" fill="#f0531d"/></g><g transform="translate(287.14,345.52)"><path d="m0 0c0-2.564 0.446-4.595 1.333-6.092 0.887-1.5 2.237-2.248 4.05-2.248 1.778 0 3.116 0.748 4.024 2.248 0.906 1.497 1.359 3.528 1.359 6.092 0 2.563-0.453 4.592-1.359 6.092-0.908 1.498-2.246 2.248-4.024 2.248-1.813 0-3.163-0.75-4.05-2.248-0.887-1.5-1.333-3.529-1.333-6.092m-8.93 0c0 2.444 0.395 4.621 1.183 6.535 0.788 1.912 1.844 3.519 3.165 4.82 1.318 1.301 2.848 2.296 4.582 2.987 1.737 0.69 3.529 1.035 5.383 1.035s3.638-0.345 5.354-1.035c1.716-0.691 3.232-1.686 4.555-2.987 1.32-1.301 2.376-2.908 3.164-4.82 0.788-1.914 1.183-4.091 1.183-6.535 0-2.447-0.395-4.624-1.183-6.535-0.788-1.914-1.844-3.52-3.164-4.82-1.323-1.304-2.839-2.298-4.555-2.99-1.716-0.688-3.5-1.033-5.354-1.033s-3.646 0.345-5.383 1.033c-1.734 0.692-3.264 1.686-4.582 2.99-1.321 1.3-2.377 2.906-3.165 4.82-0.788 1.911-1.183 4.088-1.183 6.535" fill="#f0531d"/></g><g transform="translate(312.47,360.19)"><path d="m0 0h7.098l0.59-5.147h0.239c1.063 2.011 2.344 3.489 3.843 4.436 1.499 0.946 2.997 1.419 4.496 1.419 0.827 0 1.506-0.05 2.04-0.147 0.532-0.099 1.014-0.248 1.45-0.445l-1.421-7.512c-0.553 0.159-1.065 0.278-1.536 0.357-0.476 0.079-1.028 0.117-1.658 0.117-1.105 0-2.259-0.393-3.459-1.182-1.205-0.789-2.2-2.188-2.988-4.201v-17.033h-8.694z" fill="#f0531d"/></g><g transform="translate(336.02,372.32)"><path d="m0 0h8.458v-23.776h0.233l9.288 11.652h9.463l-10.291-12.066 11.06-17.271h-9.404l-6.625 11.414-3.724-4.199v-7.215h-8.458z" fill="#f0531d"/></g><g transform="translate(370.08,339.67)"><path d="m0 0c1.338-1.027 2.619-1.796 3.843-2.307 1.219-0.512 2.463-0.769 3.723-0.769 1.304 0 2.25 0.218 2.842 0.652 0.591 0.432 0.887 1.043 0.887 1.832 0 0.474-0.169 0.896-0.501 1.274-0.337 0.373-0.791 0.717-1.363 1.034-0.571 0.315-1.211 0.6-1.922 0.856-0.71 0.256-1.441 0.543-2.189 0.858-0.907 0.354-1.814 0.771-2.721 1.241-0.908 0.475-1.733 1.058-2.485 1.748-0.747 0.688-1.358 1.497-1.833 2.423-0.471 0.927-0.708 2.001-0.708 3.224 0 1.341 0.265 2.582 0.796 3.726 0.534 1.143 1.294 2.111 2.279 2.899 0.986 0.789 2.168 1.41 3.547 1.863 1.382 0.454 2.92 0.68 4.616 0.68 2.248 0 4.218-0.384 5.914-1.152 1.696-0.771 3.173-1.629 4.436-2.575l-3.904-5.204c-1.064 0.788-2.111 1.399-3.133 1.833-1.026 0.435-2.053 0.652-3.077 0.652-2.207 0-3.312-0.77-3.312-2.307 0-0.474 0.157-0.878 0.473-1.212 0.315-0.337 0.738-0.643 1.272-0.917 0.53-0.277 1.142-0.545 1.833-0.8 0.69-0.257 1.411-0.522 2.158-0.798 0.947-0.355 1.883-0.759 2.812-1.213 0.924-0.453 1.773-1.015 2.542-1.685 0.768-0.671 1.39-1.489 1.864-2.455 0.472-0.965 0.708-2.122 0.708-3.461s-0.256-2.581-0.769-3.724c-0.512-1.147-1.281-2.141-2.306-2.989-1.024-0.849-2.289-1.518-3.783-2.011-1.501-0.49-3.235-0.737-5.207-0.737-1.934 0-3.914 0.375-5.944 1.123-2.033 0.747-3.796 1.735-5.293 2.957z" fill="#f0531d"/></g><g transform="translate(483.08,307.52)"><path d="m0 0-5.397 15.808c-1.715 5.054-3.342 9.897-4.884 14.523-1.543 4.627-3.042 9.553-4.498 14.78h-0.515c-1.457-5.227-2.955-10.153-4.498-14.78-1.542-4.626-3.171-9.469-4.884-14.523l-5.397-15.808zm1.671-5.013h-33.544l-9.897-29.045h-6.04l29.946 84.696h5.913l29.815-84.696h-6.297z" fill="#fff"/></g><g transform="translate(510.33,288.75)"><path d="m0 0c3.086-3.515 6.769-6.297 11.055-8.354 4.282-2.057 8.91-3.084 13.879-3.084 6.426 0 11.545 1.562 15.358 4.69 3.812 3.127 5.72 7.217 5.72 12.275 0 2.653-0.407 4.883-1.221 6.682-0.814 1.8-1.908 3.362-3.278 4.691-1.37 1.328-2.999 2.485-4.882 3.471-1.886 0.984-3.857 1.948-5.913 2.892l-12.853 5.782c-1.799 0.772-3.707 1.714-5.719 2.829-2.013 1.112-3.856 2.505-5.526 4.177-1.671 1.67-3.065 3.64-4.177 5.912-1.115 2.268-1.671 4.989-1.671 8.161 0 3.084 0.621 5.89 1.864 8.418 1.24 2.526 2.956 4.711 5.14 6.555 2.185 1.841 4.776 3.277 7.777 4.305 2.997 1.028 6.253 1.542 9.766 1.542 5.142 0 9.725-1.008 13.752-3.02 4.027-2.014 7.326-4.392 9.897-7.133l-3.47-3.984c-2.485 2.654-5.397 4.775-8.74 6.361-3.341 1.585-7.154 2.378-11.439 2.378-5.654 0-10.174-1.372-13.559-4.112-3.385-2.744-5.076-6.427-5.076-11.054 0-2.485 0.47-4.584 1.414-6.297 0.942-1.715 2.14-3.193 3.599-4.434 1.455-1.243 3.039-2.313 4.755-3.213 1.712-0.9 3.341-1.693 4.885-2.378l12.851-5.654c2.313-1.029 4.541-2.186 6.682-3.471 2.143-1.286 4.027-2.785 5.656-4.498 1.627-1.715 2.935-3.749 3.919-6.104 0.985-2.359 1.479-5.164 1.479-8.42s-0.643-6.277-1.928-9.059c-1.285-2.788-3.105-5.186-5.462-7.199-2.358-2.012-5.206-3.597-8.546-4.755-3.342-1.156-7.069-1.734-11.181-1.734-6.17 0-11.633 1.178-16.388 3.534-4.755 2.355-8.805 5.418-12.146 9.19z" fill="#fff"/></g><g transform="translate(614.37,307.52)"><path d="m0 0-5.398 15.808c-1.715 5.054-3.342 9.897-4.883 14.523-1.543 4.627-3.043 9.553-4.499 14.78h-0.515c-1.458-5.227-2.955-10.153-4.498-14.78-1.542-4.626-3.171-9.469-4.884-14.523l-5.397-15.808zm1.671-5.013h-33.545l-9.896-29.045h-6.041l29.946 84.696h5.912l29.818-84.696h-6.299z" fill="#fff"/></g><g transform="translate(664.2,314.84)"><path d="m0 0c8.74 0 15.186 1.542 19.343 4.627 4.154 3.084 6.233 8.096 6.233 15.037 0 3.598-0.536 6.575-1.607 8.932-1.072 2.356-2.657 4.261-4.755 5.719-2.101 1.456-4.755 2.485-7.968 3.085-3.214 0.598-6.963 0.9-11.246 0.9h-15.68v-38.3zm-21.592 43.312h23.135c4.71 0 8.932-0.408 12.658-1.221 3.728-0.816 6.876-2.165 9.446-4.048 2.572-1.886 4.541-4.328 5.913-7.326 1.37-3 2.056-6.683 2.056-11.053 0-8.312-2.656-14.503-7.969-18.572-5.313-4.07-12.68-6.105-22.104-6.105h-17.223v-36.371h-5.912z" fill="#fff"/></g><g transform="translate(708.97,340.94)"><path d="m0 0c1.543-2.487 3.534-4.478 5.977-5.977 2.442-1.5 5.118-2.249 8.032-2.249 3.169 0 5.912 0.919 8.225 2.764 2.314 1.84 3.471 4.476 3.471 7.903 0 3.256-1.587 5.784-4.756 7.583-3.171 1.8-7.499 2.699-12.98 2.699v3.599c5.054 0 8.932 1.071 11.631 3.213 2.699 2.141 4.047 4.669 4.047 7.583 0 2.741-0.962 4.99-2.89 6.747-1.928 1.755-4.521 2.635-7.777 2.635-1.971 0-3.963-0.623-5.975-1.863-2.015-1.244-3.836-2.85-5.462-4.82l-3.214 2.828c1.8 2.313 3.962 4.241 6.49 5.783s5.418 2.313 8.676 2.313c4.197 0 7.776-1.157 10.732-3.47s4.433-5.57 4.433-9.768c0-3.17-0.921-5.805-2.763-7.904-1.843-2.1-4.134-3.707-6.876-4.819 1.542-0.257 3-0.729 4.371-1.414 1.37-0.687 2.612-1.542 3.726-2.571 1.113-1.027 1.992-2.249 2.635-3.662 0.643-1.414 0.964-3.021 0.964-4.82 0-2.313-0.43-4.392-1.285-6.233-0.857-1.844-2.057-3.387-3.599-4.627-1.543-1.243-3.341-2.207-5.397-2.892-2.058-0.686-4.242-1.028-6.555-1.028-3.943 0-7.435 0.964-10.476 2.892-3.042 1.928-5.42 4.176-7.132 6.747z" fill="#fff"/></g></g></g></svg>
