<svg viewBox="0 0 228 39" xmlns="http://www.w3.org/2000/svg"><g transform="matrix(1.3333 0 0 -1.3333 -156.37 376.93)"><g fill="#fff"><path d="m155.6862 256.4443-8.9471 23.2309h5.5752l5.8895-15.577 6.1596 15.577h3.7761l6.2949-15.577 5.62 15.577h4.8101l-8.9471-23.2309h-3.6414l-6.3844 16.0726-6.4736-16.0726z"/><path d="m187.5751 265.7184h10.1608l-4.9904 9.4543zm-10.3858-9.274 13.1283 23.2309h5.2152l13.3081-23.2309h-6.0693l-2.7878 5.0873h-14.7018l-2.6977-5.0873z"/><path d="m226.9279 275.7133h-12.1386v-6.5278h12.1386c.8391 0 1.4232.0907 1.7536.2721.4496.2715.6744.8007.6744 1.5861v2.8112c0 .7848-.2248 1.314-.6744 1.5861-.3304.1817-.9144.2724-1.7536.2724m-17.4438-19.2691v23.2309h19.8717c3.4769 0 5.2154-1.5011 5.2154-4.5025v-5.4469c0-3.0017-1.7386-4.5025-5.2154-4.5025h-3.0573l10.7001-8.7791h-7.7328l-9.3514 8.7791h-5.1251v-8.7791z"/><path d="m237.6295 256.4443v23.2309h23.4683v-4.052h-18.0731v-6.123h9.7559v-4.232h-9.7559v-8.8238z"/><path d="m140.331 262.4051c-1.5593-1.0506-4.122-1.5757-7.6897-1.5757h-6.9685v14.7223h9.5773c5.0957 0 7.6434-2.4154 7.6434-7.2482 0-2.7916-.8544-4.7571-2.5624-5.8984m4.7214 14.2723c-2.2804 2.0109-5.5613 3.0167-9.8473 3.0167h-14.9276v-23.2306h13.5332c3.6858 0 6.4591.3887 8.3166 1.1695 2.0397.8703 3.628 2.2969 4.7675 4.2771 1.0484 1.892 1.5741 3.9919 1.5741 6.3043 0 3.6311-1.1389 6.4519-3.4166 8.463"/></g><path d="m284.1531 278.524c-.8089.781-2.3095 1.1703-4.4955 1.1703h-9.5726v-.001h-7.8804v-4.1883h13.2582v.003h2.6645c.9614 0 1.5743-.1494 1.8439-.4502.1871-.2076.3064-.5406.3642-.9804v-2.4209c-.0578-.4385-.1771-.7712-.3642-.9793-.2695-.3002-.8825-.4488-1.8439-.4488h-2.6645v.002h-13.2582v-.01h-.027v-4.1889h13.2576v.002h2.6636c.9608 0 1.5752-.1492 1.8447-.4499.2335-.2592.3607-.7086.3918-1.3263v-1.7926c-.0311-.6187-.1582-1.0678-.3918-1.3271-.2695-.3013-.8839-.4502-1.8447-.4502h-2.6636v.003h-13.2576v-4.1889h7.8791v-.0006h9.5723c2.1881 0 3.685.3887 4.4952 1.1695.7491.6903 1.1259 1.965 1.1259 3.8283l.0276 13.1974c0 1.8614-.3765 3.1361-1.1245 3.8269" fill="#bf1b2c"/></g></svg>