<svg enable-background="new" viewBox="0 0 30 30" xmlns="http://www.w3.org/2000/svg"><path d="m454.027 38.25h138.848c10.557 0 19.125-8.568 19.125-19.125s-8.568-19.125-19.125-19.125h-191.25c-2.314 0-19.125 0-19.125 19.125v191.25c0 10.557 8.568 19.125 19.125 19.125s19.125-8.568 19.125-19.125v-146.134c90.423 42.955 153 134.984 153 241.759 0 147.875-119.875 267.75-267.75 267.75s-267.75-119.875-267.75-267.75c0-134.851 99.794-246.101 229.5-264.709v-38.652c-150.896 18.858-267.75 147.34-267.75 303.361 0 169.008 136.992 306 306 306s306-136.992 306-306c0-115.286-63.801-215.577-157.973-267.75z" fill="#f0531d" transform="matrix(.0359 0 0 .0359 4 4)"/></svg>