<svg enable-background="new" viewBox="0 0 30 30" xmlns="http://www.w3.org/2000/svg"><g fill="#f0531d" transform="translate(0 22.06)"><path d="m29.9428-11.4885c-.0115-.0169-.0246-.0328-.0392-.0473-3.981-3.9808-9.2738-6.1732-14.9036-6.1732-5.6294 0-10.9219 2.1919-14.9026 6.1724-.0619.0614-.0974.1454-.0974.2338 0 .0873.0346.171.0964.2327l2.1793 2.1793c.0617.0617.1454.0963.2326.0963.0873 0 .171-.0347.2326-.0963 3.2799-3.28 7.6335-5.0863 12.2591-5.0863 4.6255 0 8.9791 1.8063 12.2591 5.0862.0617.0617.1454.0963.2326.0963.0873 0 .171-.0347.2326-.0963l2.1793-2.1793c.0617-.0617.0964-.1454.0964-.2327.0001-.0661-.0199-.1308-.0572-.1855z"/><path d="m15-11.9457c-4.0841 0-7.9279 1.5947-10.8235 4.4903-.1285.1285-.1285.3369.0001.4654l2.1725 2.1724c.0617.0617.1454.0964.2326.0964.0873 0 .171-.0347.2326-.0964 2.1901-2.19 5.0971-3.3962 8.1856-3.3962 3.0887 0 5.9957 1.2062 8.1856 3.3962.0617.0617.1454.0964.2327.0964s.171-.0347.2326-.0964l2.1726-2.1724c.0617-.0617.0964-.1454.0964-.2327s-.0346-.171-.0964-.2327c-2.8956-2.8955-6.7394-4.4902-10.8235-4.4902z"/><path d="m15-6.1824c-2.547 0-4.9443.9944-6.75 2.8002-.0618.0617-.0964.1454-.0964.2328 0 .0873.0346.171.0964.2326l2.1725 2.1725c.0617.0617.1454.0964.2326.0964.0873 0 .171-.0347.2326-.0964 1.1003-1.1003 2.5607-1.7062 4.1123-1.7062 1.5515 0 3.0121.6061 4.1123 1.7062.0617.0617.1454.0964.2326.0964s.171-.0347.2326-.0964l2.1725-2.1725c.1285-.1285.1285-.3369 0-.4653-1.8057-1.8059-4.2029-2.8004-6.75-2.8004z"/><path d="m15-.0756c-.8899 0-1.7262.3464-2.3551.9755-.1285.1285-.1285.3368.0001.4653l2.1223 2.1224c.0617.0617.1454.0964.2326.0964.0873 0 .171-.0347.2326-.0964l2.1225-2.1224c.1285-.1285.1285-.3368 0-.4654-.6289-.629-1.4653-.9754-2.355-.9754z"/></g></svg>