<svg enable-background="new" viewBox="0 0 30 30" xmlns="http://www.w3.org/2000/svg"><path d="m591.772 378.146-47.37-27.582c2.651-14.484 4.406-29.273 4.406-44.555 0-15.259-1.734-30.07-4.406-44.555l47.37-27.582c19.36-11.261 25.99-36.211 14.811-55.735l-40.454-70.668c-11.18-19.523-35.926-26.194-55.286-14.933l-47.86 27.867c-22.358-19.197-47.778-34.885-76.033-44.963v-34.639c-.001-22.542-18.116-40.801-40.455-40.801h-80.93c-22.339 0-40.455 18.279-40.455 40.801v34.62c-28.275 10.098-53.694 25.787-76.074 44.983l-47.86-27.867c-19.36-11.261-44.106-4.59-55.266 14.933l-40.473 70.669c-11.18 19.503-4.549 44.474 14.811 55.735l47.371 27.582c-2.652 14.485-4.407 29.295-4.407 44.555s1.734 30.07 4.407 44.555l-47.371 27.582c-19.36 11.262-25.99 36.232-14.811 55.734l40.475 70.668c11.18 19.504 35.926 26.195 55.266 14.934l47.86-27.867c22.359 19.197 47.778 34.885 76.034 44.963v34.641c0 22.523 18.116 40.801 40.454 40.801h80.93c22.339 0 40.454-18.277 40.454-40.801v-34.621c28.256-10.078 53.675-25.766 76.034-44.963l47.859 27.867c19.36 11.26 44.106 4.568 55.286-14.934l40.454-70.668c11.22-19.545 4.59-44.494-14.771-55.756zm-30.335 53.002-20.237 35.334c-5.59 9.752-17.953 13.098-27.644 7.467l-56.203-32.723c-28.541 32.457-67.099 55.734-110.878 64.689v44.902c0 11.262-9.058 20.4-20.237 20.4h-40.475c-11.18 0-20.238-9.139-20.238-20.4v-44.902c-43.78-8.955-82.337-32.232-110.877-64.689l-56.204 32.723c-9.67 5.631-22.053 2.285-27.643-7.467l-20.197-35.334c-5.59-9.752-2.265-22.236 7.405-27.867l56.428-32.865c-6.711-20.279-10.751-41.822-10.751-64.406 0-22.583 4.019-44.126 10.751-64.425l-56.449-32.866c-9.67-5.61-12.975-18.095-7.385-27.847l20.237-35.334c5.59-9.751 17.953-13.097 27.643-7.467l56.204 32.723c28.521-32.458 67.078-55.734 110.857-64.69v-44.902c0-11.261 9.058-20.401 20.238-20.401h40.475c11.18 0 20.237 9.14 20.237 20.401v44.902c43.779 8.956 82.337 32.253 110.878 64.69l56.203-32.723c9.67-5.63 22.054-2.285 27.644 7.467l20.237 35.334c5.59 9.751 2.265 22.237-7.405 27.867l-56.449 32.866c6.732 20.298 10.751 41.842 10.751 64.404 0 22.584-4.019 44.107-10.751 64.406l56.449 32.865c9.65 5.632 12.975 18.116 7.386 27.868zm-255.417-227.141c-55.877 0-101.167 45.677-101.167 102.003s45.29 102.004 101.167 102.004 101.167-45.678 101.167-102.004c-.02-56.326-45.31-102.003-101.167-102.003zm0 163.206c-33.519 0-60.692-27.398-60.692-61.203 0-33.803 27.173-61.202 60.692-61.202 33.518 0 60.692 27.398 60.692 61.202s-27.174 61.203-60.692 61.203z" fill="#f0531d" transform="matrix(.0359 0 0 .0359 4 4)"/></svg>